<svg width="40" height="21" viewBox="0 0 40 21" fill="none" xmlns="http://www.w3.org/2000/svg">
<path opacity="0.3" fill-rule="evenodd" clip-rule="evenodd" d="M28.7949 0.698921C28.5234 0.931668 28.4201 1.33568 28.5501 1.65554C28.5985 1.77453 30.328 3.59322 32.3935 5.69708C34.459 7.80095 36.149 9.54878 36.149 9.58112C36.149 9.61355 28.1578 9.64003 18.3907 9.64003C-0.816914 9.64003 0.329189 9.61472 0.126566 10.0436C-0.096688 10.5161 -0.0216821 10.9452 0.328575 11.1993L0.548685 11.3589H18.3488C28.1389 11.3589 36.149 11.3854 36.149 11.4178C36.149 11.4501 34.4406 13.2168 32.3526 15.3435C28.2975 19.4739 28.3404 19.4218 28.5579 19.9571C28.7049 20.3184 28.9826 20.5 29.3885 20.5H29.7397L34.4031 15.7536C37.9043 12.1902 39.0838 10.9436 39.1358 10.7519C39.1776 10.5981 39.1769 10.3961 39.1341 10.2442C39.082 10.0591 37.852 8.7567 34.5191 5.35753C32.02 2.80865 29.882 0.672748 29.7681 0.611026C29.4442 0.435704 29.0617 0.470237 28.7949 0.698921Z" fill="#292929"/>
</svg>
