<svg width="40" height="40" viewBox="0 0 40 40" fill="none" xmlns="http://www.w3.org/2000/svg">
<path fill-rule="evenodd" clip-rule="evenodd" d="M18.48 0.0620527C15.9186 0.272702 13.5015 0.935938 11.2104 2.05685C6.07346 4.56993 2.29013 9.12349 0.729911 14.6709C0.224366 16.4685 -0.0759403 19.0443 0.0167025 20.788C0.285946 25.8558 2.20382 30.3402 5.6158 33.88C8.54281 36.9165 12.2448 38.9011 16.4164 39.6699C22.0251 40.7036 27.7884 39.2861 32.3668 35.7467C33.1856 35.1137 35.0007 33.3208 35.6205 32.5327C37.9075 29.6248 39.252 26.5048 39.8219 22.7827C40.0612 21.2191 40.0591 18.7809 39.8169 17.1899C38.9338 11.3891 35.8588 6.52882 31.0496 3.3324C27.3822 0.894794 22.8122 -0.294166 18.48 0.0620527ZM15.3371 11.6959L17.4309 13.7932V14.1347C17.4309 14.4705 17.4101 14.4974 16.1931 15.7353C14.7809 17.1717 14.6486 17.3412 14.5263 17.8706C14.3801 18.5039 14.5574 18.9381 15.4138 20.0435C16.9136 21.9796 20.177 24.9765 21.2931 25.4427C21.6588 25.5954 22.2644 25.5914 22.6442 25.4338C22.8381 25.3533 23.4288 24.8322 24.2845 23.9867C25.6061 22.6808 25.6258 22.6654 25.9651 22.6654H26.3086L28.3985 24.7578C29.7586 26.1195 30.5067 26.9253 30.5408 27.0653C30.5696 27.1836 30.5701 27.3772 30.5421 27.4955C30.4695 27.8014 28.8493 29.3616 28.225 29.7268C27.1954 30.3291 25.6916 30.6191 24.6686 30.4127C23.5255 30.1819 21.986 29.6148 20.7563 28.9713C15.7564 26.3551 11.5001 21.5836 9.79349 16.6814C9.50555 15.8543 9.49397 15.7816 9.49452 14.8041C9.49499 13.9092 9.52026 13.7123 9.70523 13.1615C9.82072 12.8173 10.0469 12.3141 10.2077 12.0432C10.5518 11.4636 12.0653 9.8407 12.4381 9.65148C12.9972 9.36786 13.0502 9.40517 15.3371 11.6959Z" fill="#B3A394"/>
</svg>
