<svg width="24" height="24" viewBox="0 0 24 24" fill="none" xmlns="http://www.w3.org/2000/svg">
<path fill-rule="evenodd" clip-rule="evenodd" d="M11.2985 0.0110791C10.6394 0.0690228 10.0936 0.140067 9.67757 0.222006C4.99032 1.1454 1.30057 4.76115 0.260969 9.4499C-0.0869898 11.0192 -0.0869898 12.9883 0.260969 14.5576C0.592156 16.0512 1.16686 17.4025 2.00077 18.648C3.75546 21.269 6.37248 23.0581 9.44792 23.7392C11.0181 24.0869 12.9884 24.0869 14.5586 23.7392C17.634 23.0581 20.2511 21.269 22.0057 18.648C23.3436 16.6497 24 14.4627 24 12.0037C24 9.54475 23.3436 7.35777 22.0057 5.35947C20.0569 2.44847 17.0176 0.552106 13.579 0.10161C13.0231 0.0287815 11.6964 -0.0239031 11.2985 0.0110791ZM13.4828 2.44659C15.4752 2.75697 17.345 3.70995 18.8073 5.16037C22.6304 8.9524 22.6304 15.0551 18.8073 18.8471C17.3324 20.31 15.4753 21.2512 13.4362 21.5693C12.7293 21.6796 11.2772 21.6796 10.5703 21.5693C8.53118 21.2512 6.67407 20.31 5.19921 18.8471C1.68034 15.3568 1.36381 9.84508 4.45969 5.96989C6.08344 3.9374 8.51671 2.63015 11.181 2.35902C11.5636 2.3201 13.0284 2.37583 13.4828 2.44659ZM12.6138 4.26891C12.6137 4.66513 12.5974 4.77575 12.5203 4.90207C12.2436 5.35562 11.575 5.35562 11.2983 4.90207C11.2218 4.77674 11.2049 4.66517 11.2047 4.28582L11.2045 3.82259L10.9344 3.8549C8.91748 4.09635 6.89028 5.23423 5.59721 6.85074C4.66599 8.01488 3.98849 9.5988 3.85003 10.9355L3.81719 11.2524H4.28557C4.6939 11.2524 4.77382 11.266 4.90923 11.3581C5.169 11.5348 5.26113 11.6977 5.26113 11.9803C5.26113 12.4705 4.92619 12.7081 4.23497 12.7081H3.81602L3.84891 13.0485C3.86704 13.2358 3.93169 13.6002 3.99263 13.8585C4.71641 16.926 7.07817 19.2863 10.1474 20.0097C10.4058 20.0706 10.7688 20.1351 10.9539 20.1529L11.2906 20.1855L11.3063 19.6046C11.3242 18.9418 11.3687 18.8367 11.701 18.6722C11.9412 18.5532 12.0653 18.5532 12.3055 18.6722C12.6378 18.8367 12.6823 18.9418 12.7002 19.6046L12.7159 20.1855L13.0526 20.1529C13.4858 20.1111 14.2148 19.9388 14.7518 19.7513C17.5264 18.7828 19.6542 16.2443 20.105 13.365C20.1474 13.0941 20.1908 12.8166 20.2015 12.7483L20.221 12.6242L19.6946 12.6072C19.1224 12.5888 18.9403 12.5251 18.7569 12.2791C18.5196 11.9609 18.6454 11.4352 19.0026 11.2531C19.154 11.1759 19.2796 11.1585 19.6876 11.1585H20.1872L20.1553 10.912C20.052 10.1153 19.7545 9.13126 19.3953 8.39808C18.2323 6.0245 15.9267 4.30727 13.3653 3.90674C13.0942 3.86438 12.8143 3.82048 12.7432 3.80926L12.614 3.78879L12.6138 4.26891ZM8.16546 7.21916C8.22189 7.24766 9.10823 8.10837 10.1351 9.13177L12.0021 10.9925L13.0245 9.97707C13.8177 9.18934 14.0821 8.95414 14.2034 8.92855C14.7159 8.82045 15.1773 9.26724 15.0833 9.78056C15.0544 9.9381 14.8843 10.1278 13.7499 11.2676C13.0347 11.9861 12.3925 12.6042 12.3227 12.6411C12.1597 12.7271 11.8462 12.727 11.6838 12.6407C11.5306 12.5593 7.28964 8.31403 7.21583 8.16819C7.06995 7.87974 7.20954 7.44046 7.50417 7.26095C7.67397 7.15746 8.00238 7.1367 8.16546 7.21916Z" fill="#B3A394"/>
</svg>
