<svg width="24" height="18" viewBox="0 0 24 18" fill="none" xmlns="http://www.w3.org/2000/svg">
<path fill-rule="evenodd" clip-rule="evenodd" d="M1.53556 0.089555C-0.0291941 0.592243 -0.497637 2.59989 0.686647 3.72755C0.785728 3.82195 3.14956 5.42704 5.93959 7.29444C11.5195 11.0292 11.2743 10.884 12.0035 10.884C12.7343 10.884 12.4888 11.0295 18.0558 7.3C20.8382 5.436 23.2014 3.83231 23.3072 3.73618C24.5112 2.64301 24.0363 0.577681 22.469 0.0911571C22.174 -0.000407825 21.9991 -0.00191571 11.9868 0.00058195C2.24414 0.00298535 1.793 0.00684967 1.53556 0.089555ZM1.90644e-05 10.516C0.000769323 16.4723 -0.00640502 16.2991 0.260828 16.829C0.507053 17.3174 1.01465 17.743 1.55099 17.9107C1.82742 17.9972 2.15673 18 12.0035 18C21.8301 18 22.18 17.997 22.4543 17.9112C22.8475 17.7883 23.0997 17.6293 23.3883 17.3226C23.6843 17.008 23.8884 16.5953 23.9585 16.1693C23.9944 15.9508 24.0061 14.2169 23.9971 10.4481L23.9842 5.04042L18.873 8.46518C16.0619 10.3488 13.6247 11.9526 13.4571 12.0291C13.0923 12.1957 12.4185 12.3435 12.0193 12.3443C11.6381 12.3451 11.0782 12.2346 10.6691 12.0777C10.4214 11.9828 9.0608 11.0953 5.22768 8.52838C2.41656 6.6459 0.0901908 5.08977 0.0579297 5.0703C0.0111792 5.04207 -0.00054363 6.14354 1.90644e-05 10.516Z" fill="#B3A394"/>
</svg>
