<svg width="60" height="60" viewBox="0 0 60 60" fill="none" xmlns="http://www.w3.org/2000/svg">
<path fill-rule="evenodd" clip-rule="evenodd" d="M28.071 0.101296C22.1748 0.715177 16.9258 4.07036 13.7855 9.23261C12.512 11.3262 11.6828 13.6427 11.2682 16.2658C10.9991 17.9675 11.087 21.3074 11.4483 23.1135C12.277 27.2557 14.141 31.4475 17.0456 35.7005C17.587 36.4933 18.03 37.164 18.03 37.1909C18.03 37.218 16.0236 37.2551 13.5714 37.2735C9.74193 37.3021 9.08721 37.3323 8.93184 37.4874C8.6622 37.7568 2.76288 52.0806 2.76288 52.466C2.76288 52.8731 3.19565 53.3073 3.6014 53.3073C4.02406 53.3073 4.32964 52.9185 4.79904 51.7834L5.21113 50.787L8.21722 50.7558L11.2233 50.7245L11.0649 51.1074C10.9777 51.3181 10.2802 53.007 9.51457 54.8604L8.12268 58.2305H5.14913C3.51379 58.2305 2.17569 58.2096 2.17569 58.1842C2.17569 58.1588 2.38884 57.6078 2.64932 56.9598C3.15912 55.6912 3.17333 55.3188 2.72331 55.0043C2.39365 54.7737 2.02126 54.7857 1.72167 55.0363C1.58685 55.149 1.12731 56.083 0.700302 57.1115C0.0426433 58.6963 -0.0602332 59.036 0.0263193 59.3373C0.0824552 59.5328 0.258731 59.7586 0.418096 59.8391C0.84299 60.0536 59.1745 60.0536 59.5994 59.8391C59.7587 59.7586 59.9349 59.5332 59.9909 59.3381C60.0806 59.0257 59.5677 57.7154 55.6791 48.3252C53.2516 42.4631 51.1843 37.586 51.085 37.4868C50.9304 37.3324 50.2694 37.302 46.4461 37.2735C43.9938 37.2551 41.9875 37.218 41.9875 37.1909C41.9875 37.164 42.4305 36.4933 42.9719 35.7005C45.8841 31.4364 47.7384 27.2665 48.5691 23.1135C48.9305 21.3074 49.0183 17.9675 48.7493 16.2658C48.3346 13.6427 47.5055 11.3262 46.232 9.23261C42.3644 2.87484 35.3423 -0.655827 28.071 0.101296ZM33.335 2.08829C38.5804 3.14796 42.986 6.52354 45.3862 11.3218C47.8292 16.2055 47.7835 21.8687 45.2523 27.9246C43.079 33.1245 39.6408 37.9572 34.3598 43.2353C32.0533 45.5404 30.2246 47.2118 30.0087 47.2118C29.6026 47.2118 24.0424 41.7528 22.1288 39.4753C18.5555 35.2225 16.4065 31.8515 14.7651 27.9246C12.234 21.8687 12.1883 16.2055 14.6313 11.3218C17.2523 6.08209 22.3296 2.51462 28.1146 1.84811C29.4463 1.69478 31.9592 1.81036 33.335 2.08829ZM29.4215 10.95C27.9436 11.0977 26.0044 11.8121 25.3742 12.4413C24.9947 12.82 24.9839 13.325 25.348 13.6666C25.7125 14.0081 26.0468 13.9876 26.7648 13.5795C28.3281 12.6911 30.3003 12.4573 31.9054 12.9705C34.6399 13.8449 36.5549 16.6994 36.3158 19.5451C36.04 22.8287 33.2647 25.4089 30.0087 25.4089C27.9011 25.4089 25.8917 24.2998 24.6898 22.4729C23.7649 21.0669 23.4391 19.0547 23.8844 17.4966C24.0135 17.0453 24.2142 16.4278 24.3307 16.1242C24.5389 15.5816 24.5383 15.5669 24.2986 15.245C24.0256 14.8785 23.4161 14.7465 23.1218 14.9903C22.5081 15.4986 21.9822 17.3745 21.9753 19.0791C21.9609 22.7005 24.1401 25.6434 27.7187 26.8349C28.4047 27.0634 28.7835 27.1086 30.0087 27.1086C31.234 27.1086 31.6127 27.0634 32.2988 26.8349C35.874 25.6446 38.0425 22.7189 38.0474 19.0791C38.0494 17.5671 37.8894 16.8772 37.2043 15.4453C36.753 14.5019 36.5168 14.1775 35.6595 13.3236C34.8492 12.5164 34.4486 12.2187 33.6493 11.8296C32.2522 11.1495 30.6859 10.8236 29.4215 10.95ZM15.9822 39.2116C15.9401 39.3244 15.452 40.5112 14.8976 41.849L13.8896 44.2813H10.8974C8.55086 44.2813 7.91763 44.2497 7.96308 44.1348C7.99491 44.0543 8.48592 42.8674 9.05421 41.4974L10.0873 39.0065H13.073C15.8673 39.0065 16.0537 39.0196 15.9822 39.2116ZM20.7462 40.5596C23.2895 43.5272 28.4589 48.5421 29.6154 49.1637C29.9932 49.3668 30.024 49.3669 30.3978 49.166C30.6118 49.0509 31.5235 48.3022 32.4236 47.502L34.0604 46.0473L39.1983 46.0434C44.177 46.0398 44.3436 46.0324 44.5712 45.8052C44.8877 45.4893 44.8814 44.8547 44.559 44.5633C44.3284 44.3548 44.0306 44.3361 40.092 44.2813L35.8722 44.2227L36.5332 43.578C36.8968 43.2234 37.9611 42.0497 38.8983 40.9699L40.6023 39.0065H45.2662H49.9301L50.9633 41.4974C51.5315 42.8674 52.0214 44.0512 52.0518 44.1281C52.0935 44.2332 51.4907 44.277 49.6341 44.304C47.2733 44.3383 47.1492 44.3516 46.9048 44.5957C46.7406 44.7598 46.6528 44.9868 46.6596 45.229C46.6805 45.9598 46.7413 45.9749 49.9478 46.0396L52.8503 46.0983L53.4499 47.5049L54.0497 48.9115L44.7931 48.9701C34.6206 49.0345 35.2615 48.983 35.1083 49.748C35.0487 50.0449 35.0974 50.1782 35.3698 50.4667C35.554 50.6614 37.6045 52.4748 39.9266 54.4964L44.1486 58.1719L41.5989 58.2035L39.0492 58.2351L29.9849 50.5362C24.9996 46.3019 20.776 42.7828 20.5993 42.7162C20.1609 42.5511 19.7597 42.7489 19.5282 43.2447C19.4276 43.4602 18.0925 46.6697 16.5615 50.3768C15.0306 54.0839 13.6711 57.3674 13.5406 57.6737L13.3035 58.2305H11.6738C10.7775 58.2305 10.0441 58.2109 10.0441 58.1869C10.0441 58.1629 10.784 56.359 11.6882 54.1781C12.6119 51.9506 13.3324 50.0513 13.3324 49.8441C13.3324 49.6182 13.2367 49.3889 13.0854 49.2521C12.8577 49.0462 12.5693 49.0242 9.403 48.9701L5.96756 48.9115L6.56755 47.5049L7.16743 46.0983L10.9943 46.0674C14.7893 46.0367 14.823 46.0343 15.0553 45.7744C15.1842 45.6301 15.8914 44.0483 16.627 42.2593L17.9645 39.0065H18.6898H19.4151L20.7462 40.5596ZM28.5041 51.5783L36.2672 58.1719L30.9565 58.2024C28.0356 58.2191 23.3013 58.2191 20.4358 58.2024L15.2259 58.1719L17.9492 51.5803C19.4469 47.9549 20.6877 44.9878 20.7066 44.9867C20.7255 44.9856 24.2344 47.9519 28.5041 51.5783ZM56.2648 54.3036C57.0674 56.2378 57.7542 57.9126 57.7909 58.0254C57.8538 58.2188 57.5439 58.2303 52.3594 58.2264L46.8612 58.2224L42.6334 54.5238C40.3081 52.4895 38.3832 50.803 38.3559 50.776C38.3286 50.749 42.0185 50.7404 46.5558 50.7569L54.8054 50.787L56.2648 54.3036Z" fill="#B3A394"/>
</svg>
