<svg width="60" height="60" viewBox="0 0 60 60" fill="none" xmlns="http://www.w3.org/2000/svg">
<path fill-rule="evenodd" clip-rule="evenodd" d="M8 0.999946V1.99989H7H6V2.99984V3.99978H7H8V4.99973V5.99967H9H10V4.99973V3.99978H11H12V2.99984V1.99989H11H10V0.999946V0H9H8V0.999946ZM22.0625 2.07451C15.9773 3.70717 14.3934 4.17402 14.2188 4.38639C14.0164 4.6325 14 5.16022 14 11.4375C14 15.1693 14.0568 18.805 14.1261 19.5169C14.4845 23.1924 15.638 26.8923 17.3201 29.7614C19.0614 32.7314 21.528 35.1556 24.1981 36.5215C32.7731 40.9077 42.2701 35.0069 45.193 23.4769C45.8884 20.7341 45.9125 20.3829 45.9675 12.2433C46.0159 5.06148 46.0069 4.661 45.7905 4.39564C45.6022 4.16477 44.2181 3.75755 37.8466 2.05801C33.6029 0.926075 30.031 0.00637469 29.9091 0.0142493C29.7872 0.0221238 26.2563 0.949199 22.0625 2.07451ZM50 0.999946V1.99989H49H48V2.99984V3.99978H49H50V4.99973V5.99967H51H52V4.99973V3.99978H53H54V2.99984V1.99989H53H52V0.999946V0H51H50V0.999946ZM36.9375 3.87479C40.5812 4.84324 43.661 5.66507 43.7812 5.70107C43.9859 5.76231 44 6.17517 44 12.0752C44 15.6623 43.943 18.9075 43.8677 19.5976C43.329 24.5434 41.464 28.9141 38.6024 31.937C37.3244 33.2869 36.233 34.1144 34.8125 34.8105C32.983 35.7069 31.9958 35.9319 29.9375 35.9218C28.4075 35.9142 28.0469 35.8704 27.0686 35.5738C21.2886 33.8214 16.9991 27.5553 16.1322 19.5976C16.057 18.9074 16 15.6605 16 12.0691V5.75444L16.2812 5.68357C16.436 5.64469 19.5719 4.80586 23.25 3.81967C26.9281 2.83347 30.0219 2.04626 30.125 2.07026C30.2281 2.09426 33.2938 2.90634 36.9375 3.87479ZM2 6.99962V7.99957H1H0V8.99951V9.99946H1H2V10.9994V11.9993H3H4V10.9994V9.99946H5H6V8.99951V7.99957H5H4V6.99962V5.99967H3H2V6.99962ZM56 6.99962V7.99957H55H54V8.99951V9.99946H55H56V10.9994V11.9993H57H58V10.9994V9.99946H59H60V8.99951V7.99957H59H58V6.99962V5.99967H57H56V6.99962ZM27.1475 10.2097C26.9191 10.3222 26.5816 10.6116 26.3975 10.8528C26.0745 11.2758 26.0611 11.3573 26.0224 13.1364L25.9823 14.9814L24.1371 15.0216C22.3554 15.0603 22.2769 15.0732 21.8511 15.3984C21.073 15.9925 21 16.3012 21 18.999C21 21.6967 21.073 22.0054 21.8511 22.5995C22.2769 22.9248 22.3554 22.9376 24.1371 22.9764L25.9823 23.0165L26.0224 24.8615C26.0611 26.6432 26.074 26.7217 26.3993 27.1474C26.9934 27.9255 27.3021 27.9985 30 27.9985C32.6979 27.9985 33.0066 27.9255 33.6007 27.1474C33.926 26.7217 33.9389 26.6432 33.9776 24.8615L34.0177 23.0165L35.8629 22.9764C37.6446 22.9376 37.7231 22.9248 38.1489 22.5995C38.927 22.0054 39 21.6967 39 18.999C39 16.3012 38.927 15.9925 38.1489 15.3984C37.7231 15.0732 37.6446 15.0603 35.8629 15.0216L34.0177 14.9814L33.9776 13.1364C33.9389 11.3548 33.926 11.2763 33.6007 10.8505C33.0052 10.0706 32.7004 9.99908 29.9811 10.0023C27.9984 10.0046 27.4877 10.042 27.1475 10.2097ZM32 13.6991C32 15.6315 32.1204 16.042 32.8511 16.5998C33.2771 16.9252 33.3548 16.938 35.146 16.9768L37 17.0171V18.999V20.9809L35.146 21.0211C33.3548 21.06 33.2771 21.0727 32.8511 21.3981C32.1204 21.9559 32 22.3664 32 24.2988V25.9986H30H28V24.2988C28 22.3664 27.8796 21.9559 27.1489 21.3981C26.7229 21.0727 26.6453 21.06 24.854 21.0211L23 20.9809V18.999V17.0171L24.854 16.9768C26.6453 16.938 26.7229 16.9252 27.1489 16.5998C27.8796 16.042 28 15.6315 28 13.6991V11.9993H30H32V13.6991ZM6 25.9986V26.9985H5H4V27.9985V28.9984H5H6V29.9984V30.9983H7H8V29.9984V28.9984H9H10V27.9985V26.9985H9H8V25.9986V24.9986H7H6V25.9986ZM52 25.9986V26.9985H51H50V27.9985V28.9984H51H52V29.9984V30.9983H53H54V29.9984V28.9984H55H56V27.9985V26.9985H55H54V25.9986V24.9986H53H52V25.9986ZM12 31.9983V32.9982H11H10V33.9982V34.9981H11H12V35.9981V36.998H13H14V35.9981V34.9981H15H16V33.9982V32.9982H15H14V31.9983V30.9983H13H12V31.9983ZM46 31.9983V32.9982H45H44V33.9982V34.9981H45H46V35.9981V36.998H47H48V35.9981V34.9981H49H50V33.9982V32.9982H49H48V31.9983V30.9983H47H46V31.9983ZM0.506375 37.1764C0.338 37.2696 0.159125 37.4505 0.108875 37.5782C0.058625 37.706 0.013625 42.4393 0.00874996 48.0968L0 58.3832L0.306875 58.6899C0.475625 58.8587 0.6865 58.9973 0.775625 58.9981C0.864625 58.9987 2.4 58.7618 4.1875 58.4716C7.98325 57.8552 8 57.8474 8 56.6901V55.997H9.40775H10.8154L16.814 57.9985L22.8125 60L30.625 59.9671L38.4375 59.9343L46.125 57.2025C50.3531 55.7001 53.9605 54.3944 54.1413 54.3011C54.7494 53.9868 55.2601 53.4687 55.5967 52.8246C55.8714 52.2992 55.9318 52.0169 55.9344 51.2472C55.937 50.4396 55.8864 50.2177 55.5689 49.6443C54.9347 48.4997 53.8686 47.8724 52.5574 47.8724C52.0686 47.8724 50.0689 48.4106 44.8939 49.9348L37.8915 51.9972H34.0601H30.2287L27.5951 50.5285L24.9615 49.0598L30.2419 48.9973L35.5223 48.9348L35.7696 48.6294C35.9963 48.3493 36.0136 48.1644 35.9772 46.4111L35.9375 44.4985L34.7339 43.2953L33.5303 42.0921L25.7989 40.5449L18.0674 38.9979H14.9329H11.7984L9.9375 39.7478C8.914 40.1603 8.05937 40.4978 8.03837 40.4978C8.01725 40.4978 8 40.0735 8 39.5547C8 38.1077 8.09437 38.1581 4.1875 37.5221C2.4 37.2311 0.909375 36.9962 0.875 37C0.840625 37.0037 0.67475 37.0831 0.506375 37.1764ZM5.9375 47.9974V56.1766L3.96875 56.5033L2 56.8299V47.9974V39.1649L3.96875 39.4915L5.9375 39.8182V47.9974ZM25.1875 42.4446L32.4375 43.8918L33.2188 44.6598L34 45.4278V46.2126V46.9975H27.3404C20.0328 46.9975 20.2317 46.9771 20.0635 47.7432C19.8974 48.4991 20.055 48.6156 24.9375 51.3471L29.5625 53.9346L33.8251 53.9704L38.0877 54.0063L45.1376 51.9293C49.0151 50.787 52.3775 49.8512 52.6097 49.8498C53.3624 49.8453 53.9945 50.525 53.9981 51.3428C53.9995 51.6341 53.8838 51.8727 53.5938 52.1767C53.2269 52.5613 52.4449 52.8638 45.5215 55.2996L37.8555 57.9969H30.52H23.1846L17.1875 55.997L11.1904 53.9971H9.59525H8V48.3326V42.6683L10.0312 41.8449L12.0625 41.0214L15 41.0094L17.9375 40.9974L25.1875 42.4446Z" fill="#B3A394"/>
</svg>
