<svg width="60" height="60" viewBox="0 0 60 60" fill="none" xmlns="http://www.w3.org/2000/svg">
<path fill-rule="evenodd" clip-rule="evenodd" d="M17.3929 0.116575C16.665 0.357777 16.2578 0.605429 15.7869 1.09323C15.1119 1.79256 14.8702 2.47079 14.7898 3.89057L14.7203 5.11898H11.9492C8.93601 5.11898 8.35144 5.20164 7.13917 5.79932C6.31102 6.2075 5.05714 7.45924 4.64922 8.28498C3.95459 9.69092 3.97147 9.37995 3.97147 20.745C3.97147 29.8071 3.99444 31.2067 4.14847 31.5047C4.60281 32.3835 5.84192 32.2648 6.20576 31.3076C6.26988 31.1391 6.31583 28.1301 6.31583 24.1074V17.1967H27.54C42.9411 17.1967 48.8345 17.1608 49.0203 17.0657C49.9021 16.6145 49.9021 15.4337 49.0203 14.9825C48.8345 14.8874 42.9389 14.8515 27.5315 14.8515H6.29883L6.3367 12.4184L6.37444 9.98524L6.72234 9.35685C7.1557 8.57414 7.80907 8.00543 8.62597 7.69962C9.1899 7.48855 9.53851 7.46416 11.9881 7.46416H14.7211L14.7921 8.54881C14.8311 9.14543 14.9256 9.82729 15.002 10.0643C15.25 10.8328 15.9274 11.589 16.7519 12.0179C17.4664 12.3898 17.5642 12.4096 18.4479 12.3624C19.552 12.3035 20.1405 12.045 20.8475 11.3091C21.5197 10.6092 21.7886 9.81099 21.7886 8.51504V7.46416H31.6177H41.4468L41.5178 8.54881C41.5569 9.14543 41.6514 9.82729 41.7278 10.0643C41.9757 10.8328 42.6531 11.589 43.4776 12.0179C44.1922 12.3898 44.2899 12.4096 45.1736 12.3624C46.2777 12.3035 46.8663 12.045 47.5732 11.3091C48.2467 10.6079 48.5144 9.81146 48.5144 8.50836V7.45056L51.7672 7.48668C54.8057 7.52045 55.0558 7.53944 55.5649 7.77478C56.2615 8.0969 57.0249 8.86049 57.3469 9.55736L57.5988 10.1025L57.6292 33.0288L57.6597 55.9551L57.3948 56.4798C56.6461 57.9624 54.578 58.0278 53.7369 56.5955C53.526 56.2362 53.4889 55.9278 53.4375 54.1064L53.3789 52.0275L53.054 51.7026L52.7291 51.3778L45.7865 51.3433C41.968 51.3244 38.6783 51.3389 38.476 51.3756C37.3891 51.5723 37.1225 52.9922 38.0796 53.4873C38.3725 53.6388 39.3358 53.6644 44.7575 53.6644H51.0932V54.8851C51.0932 55.7757 51.1561 56.3069 51.3261 56.8492C51.4542 57.258 51.5597 57.6058 51.5605 57.6219C51.5613 57.6379 40.8673 57.65 27.7961 57.6486C4.98529 57.6461 4.01121 57.6373 3.5612 57.4306C2.62381 57 2.33041 56.3687 2.33041 54.7821V53.6644H15.6328H28.9352L29.2996 53.3387C29.5761 53.0915 29.667 52.9078 29.6763 52.5769C29.6908 52.0671 29.3492 51.5394 28.9284 51.4215C28.7729 51.3782 26.0168 51.3373 22.8034 51.3309L16.961 51.3192L17.5146 50.7036C18.5969 49.5001 19.2491 48.3898 19.7497 46.8992C20.1999 45.5589 20.275 43.3615 19.9216 41.8798C19.0805 38.355 16.4635 35.6911 12.88 34.7124C11.712 34.3934 9.35413 34.4189 8.14713 34.7638C4.91742 35.6865 2.49757 37.9957 1.42748 41.1762C1.13831 42.0356 1.11146 42.2718 1.10666 43.9905C1.10232 45.4995 1.14393 46.0043 1.31917 46.5702C1.8143 48.1686 2.62029 49.5645 3.76903 50.8123L4.21997 51.3021L2.45701 51.3399C0.709053 51.3774 0.691236 51.3806 0.369355 51.7026C0.0466538 52.0254 0.0444267 52.0383 0.00726855 53.831C-0.0495822 56.5761 0.211814 57.5252 1.33406 58.6479C2.0056 59.3197 2.73095 59.7105 3.61911 59.879C4.47 60.0403 55.5178 60.0403 56.3687 59.879C57.2568 59.7105 57.9822 59.3197 58.6537 58.6479C59.3253 57.9761 59.716 57.2505 59.8844 56.362C59.9602 55.9621 60.0011 47.7303 60 33.0987C59.9981 8.25355 60.0408 9.756 59.2961 8.28041C58.8403 7.37727 57.7442 6.28078 56.8414 5.82488C55.616 5.20598 54.9941 5.12261 51.5913 5.12074L48.5144 5.11898L48.5142 3.91707C48.5142 2.83992 48.4795 2.64199 48.181 2.01055C47.5757 0.730779 46.4626 0.0237053 45.0564 0.0256987C44.0378 0.0272231 43.2413 0.35426 42.5596 1.05101C41.8389 1.78752 41.5973 2.44441 41.5155 3.89057L41.446 5.11898H31.6172H21.7886L21.7885 3.91707C21.7885 2.83992 21.7538 2.64199 21.4553 2.01055C20.8973 0.830919 19.8208 0.0959371 18.5198 0.00646819C18.1579 -0.0185081 17.6508 0.0310927 17.3929 0.116575ZM18.8605 2.48181C19.0488 2.57926 19.2572 2.76042 19.3235 2.8846C19.3976 3.02297 19.4443 4.31012 19.4443 6.21629V9.32237L19.1408 9.68306C18.5365 10.4015 17.3371 10.0411 17.1583 9.08727C17.1175 8.86964 17.1008 7.41832 17.1213 5.86205C17.1559 3.22641 17.1746 3.01464 17.3929 2.77203C17.8218 2.29549 18.3128 2.19851 18.8605 2.48181ZM45.5862 2.48181C45.7745 2.57926 45.9829 2.76042 46.0493 2.8846C46.1233 3.02297 46.17 4.31012 46.17 6.21629V9.32237L45.8665 9.68306C45.2623 10.4015 44.0629 10.0411 43.884 9.08727C43.8432 8.86964 43.8266 7.41832 43.8471 5.86205C43.8817 3.22641 43.9003 3.01464 44.1187 2.77203C44.5476 2.29549 45.0385 2.19851 45.5862 2.48181ZM53.5547 15.0008C53.3936 15.0809 53.165 15.344 53.0469 15.5853C52.8387 16.0107 52.8387 16.0375 53.0469 16.4638C53.3365 17.0566 53.7914 17.2683 54.3902 17.0888C55.3961 16.7873 55.4575 15.3229 54.4785 14.9814C54.0113 14.8186 53.9171 14.8204 53.5547 15.0008ZM14.6538 23.5378C13.4484 23.7747 12.1429 24.7843 11.6092 25.8919C10.7674 27.6389 11.0995 29.6155 12.464 30.9804C15.0071 33.5245 19.2626 32.1597 19.9091 28.5928C20.3288 26.278 18.7291 23.9712 16.3973 23.5288C15.6899 23.3947 15.3737 23.3962 14.6538 23.5378ZM25.5812 23.5262C24.3369 23.7908 23.0495 24.8139 22.5265 25.9535C21.4766 28.2417 22.4181 30.8216 24.6914 31.8858C25.3831 32.2096 25.5992 32.2538 26.4761 32.2513C28.2928 32.2459 29.6967 31.3765 30.4893 29.7661C30.8415 29.0502 30.873 28.8944 30.873 27.8673C30.873 26.8402 30.8415 26.6844 30.4893 25.9685C29.592 24.1451 27.5197 23.114 25.5812 23.5262ZM36.3531 23.5926C35.0053 23.9556 34.0639 24.7373 33.4645 25.9911C33.1359 26.6786 33.1002 26.8625 33.1002 27.8673C33.1002 28.8721 33.1359 29.056 33.4645 29.7434C34.8009 32.5387 38.4199 33.1578 40.5846 30.9614C40.8862 30.6554 41.2772 30.1111 41.4536 29.7518C41.7413 29.1658 41.7743 28.9715 41.7743 27.8673C41.7743 26.7631 41.7413 26.5688 41.4536 25.9828C40.8433 24.7395 39.6793 23.8276 38.3399 23.5432C37.5492 23.3754 37.1196 23.3861 36.3531 23.5926ZM47.4749 23.5378C46.6756 23.695 45.9298 24.1091 45.2851 24.7542C43.5252 26.5146 43.5252 29.22 45.2851 30.9804C47.8282 33.5245 52.0836 32.1597 52.7302 28.5928C53.1499 26.278 51.5502 23.9712 49.2184 23.5288C48.511 23.3947 48.1948 23.3962 47.4749 23.5378ZM16.5173 26.0205C18.0556 26.7978 18.0556 28.9368 16.5173 29.7141C16.2301 29.8593 15.8066 29.978 15.5761 29.978C15.3455 29.978 14.922 29.8593 14.6348 29.7141C13.0965 28.9368 13.0965 26.7978 14.6348 26.0205C14.922 25.8753 15.3455 25.7566 15.5761 25.7566C15.8066 25.7566 16.2301 25.8753 16.5173 26.0205ZM27.7544 26.198C28.3011 26.6347 28.5869 27.2077 28.5869 27.8673C28.5869 29.4116 26.9881 30.4165 25.6002 29.7444C24.0337 28.9858 24.0097 26.7907 25.5593 26.0009C26.262 25.6427 27.1603 25.7233 27.7544 26.198ZM38.5956 26.1154C39.8232 26.9569 39.8164 28.7824 38.5825 29.6282C38.2435 29.8606 38.0123 29.9193 37.4367 29.9193C36.8237 29.9193 36.6498 29.869 36.2753 29.5833C35.6342 29.0942 35.3869 28.6233 35.3864 27.8907C35.3857 26.9882 35.7568 26.3982 36.6167 25.9343C37.1144 25.6658 38.0668 25.753 38.5956 26.1154ZM49.3384 26.0205C50.8767 26.7978 50.8767 28.9368 49.3384 29.7141C49.0512 29.8593 48.6277 29.978 48.3971 29.978C48.1666 29.978 47.7431 29.8593 47.4559 29.7141C45.9176 28.9368 45.9176 26.7978 47.4559 26.0205C47.7431 25.8753 48.1666 25.7566 48.3971 25.7566C48.6277 25.7566 49.0512 25.8753 49.3384 26.0205ZM25.5812 35.7212C24.3369 35.9857 23.0495 37.0088 22.5265 38.1485C21.4766 40.4367 22.4181 43.0166 24.6914 44.0807C25.3831 44.4046 25.5992 44.4488 26.4761 44.4462C28.2928 44.4409 29.6967 43.5715 30.4893 41.9611C30.8415 41.2452 30.873 41.0893 30.873 40.0623C30.873 39.0352 30.8415 38.8794 30.4893 38.1635C29.592 36.3401 27.5197 35.3089 25.5812 35.7212ZM36.3531 35.7876C35.0053 36.1506 34.0639 36.9323 33.4645 38.1861C33.1359 38.8736 33.1002 39.0575 33.1002 40.0623C33.1002 41.0671 33.1359 41.2509 33.4645 41.9384C34.8009 44.7337 38.4199 45.3528 40.5846 43.1564C40.8862 42.8503 41.2772 42.306 41.4536 41.9467C41.7413 41.3608 41.7743 41.1665 41.7743 40.0623C41.7743 38.958 41.7413 38.7637 41.4536 38.1778C40.8433 36.9345 39.6793 36.0226 38.3399 35.7382C37.5492 35.5704 37.1196 35.5811 36.3531 35.7876ZM47.4749 35.7328C46.6756 35.8899 45.9298 36.3041 45.2851 36.9492C43.5252 38.7096 43.5252 41.415 45.2851 43.1754C47.8282 45.7194 52.0836 44.3547 52.7302 40.7878C53.1499 38.4729 51.5502 36.1662 49.2184 35.7238C48.511 35.5896 48.1948 35.5912 47.4749 35.7328ZM12.7628 37.1186C14.9076 37.7956 16.6928 39.5348 17.4694 41.7039C17.704 42.3591 17.7424 42.6881 17.7424 44.0491C17.7424 45.4101 17.704 45.739 17.4694 46.3943C15.788 51.0902 10.1582 52.7972 6.19861 49.8116C4.95704 48.8755 3.95365 47.3774 3.55616 45.8666C3.31587 44.9535 3.31587 43.1447 3.55616 42.2316C4.23603 39.6471 6.4123 37.5469 9.0272 36.9518C10.0236 36.7251 11.7623 36.8027 12.7628 37.1186ZM27.7544 38.393C28.3011 38.8296 28.5869 39.4027 28.5869 40.0623C28.5869 41.6066 26.9881 42.6115 25.6002 41.9394C24.0337 41.1808 24.0097 38.9857 25.5593 38.1959C26.262 37.8376 27.1603 37.9183 27.7544 38.393ZM38.5956 38.3104C39.8232 39.1519 39.8164 40.9774 38.5825 41.8232C38.2435 42.0556 38.0123 42.1143 37.4367 42.1143C36.8237 42.1143 36.6498 42.064 36.2753 41.7782C35.6342 41.2892 35.3869 40.8182 35.3864 40.0857C35.3857 39.1832 35.7568 38.5931 36.6167 38.1292C37.1144 37.8607 38.0668 37.948 38.5956 38.3104ZM49.3384 38.2154C50.8767 38.9927 50.8767 41.1318 49.3384 41.9091C49.0512 42.0543 48.6277 42.1729 48.3971 42.1729C48.1666 42.1729 47.7431 42.0543 47.4559 41.9091C45.9176 41.1318 45.9176 38.9927 47.4559 38.2154C47.7431 38.0703 48.1666 37.9516 48.3971 37.9516C48.6277 37.9516 49.0512 38.0703 49.3384 38.2154ZM11.3696 42.9261L9.30489 44.969L8.53043 44.2328C8.10458 43.8279 7.61707 43.4617 7.44722 43.4191C6.97155 43.2997 6.33634 43.6197 6.14645 44.0742C5.8806 44.7105 6.03838 45.0647 7.06614 46.1399C8.29084 47.4211 8.81258 47.8014 9.3458 47.8014C9.73145 47.8014 9.95276 47.6111 12.3753 45.1964C14.4001 43.1782 15.0046 42.5074 15.0588 42.2187C15.1904 41.5164 14.641 40.89 13.8898 40.8857C13.4558 40.8832 13.3361 40.9802 11.3696 42.9261ZM33.7449 51.4491C33.3261 51.6135 33.0472 52.0198 33.0441 52.4702C33.0407 52.9867 33.207 53.2708 33.6454 53.4976C34.4018 53.8889 35.2687 53.3705 35.2687 52.5268C35.2687 51.9736 35.0857 51.6804 34.6184 51.4851C34.1633 51.2949 34.14 51.294 33.7449 51.4491Z" fill="#B3A394"/>
</svg>
