<svg width="26" height="47" viewBox="0 0 26 47" fill="none" xmlns="http://www.w3.org/2000/svg">
<path fill-rule="evenodd" clip-rule="evenodd" d="M1.98684 0.178837C1.6784 0.374555 1.51747 0.623382 1.51747 0.904922C1.51747 1.00508 1.75198 1.55566 2.0386 2.12839C3.18887 4.4272 3.61955 6.63559 3.52275 9.7396C3.42126 12.9947 2.61113 16.3801 1.06136 20.0247C0.191428 22.0704 -0.00562786 23.1211 0.000113351 25.6819C0.00806273 29.2735 0.744705 33.2218 2.09557 36.9141C2.3685 37.66 3.20053 39.5521 3.94459 41.1187C5.28636 43.9439 5.85783 45.3468 5.97734 46.1089C6.07096 46.7063 6.35705 46.9995 6.84647 46.9995C7.14607 46.9995 7.30082 46.9444 7.47235 46.7767C8.04329 46.2187 7.61385 44.7028 5.8195 40.942C5.14248 39.523 4.45044 38.0314 4.28165 37.6271C3.03722 34.6469 2.21437 31.417 1.87051 28.1628C1.76046 27.1211 1.74438 23.9737 1.8472 23.5931L1.91503 23.342L3.19567 24.341C5.98246 26.515 8.22825 28.6725 10.7662 31.6139L10.9691 31.8491L10.8362 34.784C10.5859 40.3083 10.9635 35.4338 10.7662 36.3364C10.6412 36.9079 10.6644 37.0821 10.9047 37.3793C11.3064 37.8759 12.0487 37.838 12.3125 37.3074C12.6226 36.6834 12.2317 32.9398 12.5108 36.5704C12.5864 34.9279 12.6713 33.2038 12.6995 32.7392L12.7506 31.8943L13.6378 30.8555C15.6099 28.5462 18.7611 25.4418 20.861 23.7393C21.6256 23.1193 23.0153 22.1442 23.1341 22.1442C23.2536 22.1442 23.7347 23.5151 23.9582 24.4922C24.3746 26.313 24.3614 27.8066 23.9063 30.3702C23.4509 32.9348 22.7379 35.3395 21.196 39.5107C19.1432 45.0636 18.8294 45.9457 18.8294 46.1634C18.8294 46.4707 19.2111 46.918 19.53 46.9844C19.8477 47.0505 20.3061 46.8982 20.4123 46.6912C20.6652 46.1981 23.7293 37.7508 24.2666 36.065C25.8752 31.0184 26.3408 27.4111 25.7606 24.4891C25.3645 22.494 24.3818 20.1577 22.964 17.8399C22.6655 17.3519 22.2524 16.6425 22.0462 16.2635C21.4424 15.1539 21.3566 15.0304 21.0998 14.9024C20.7824 14.7442 20.3195 14.8927 20.059 15.2364C19.698 15.7128 19.9344 16.3024 21.5537 18.9637C21.9499 19.6149 22.2742 20.1849 22.2742 20.2304C22.2742 20.507 18.4242 21.7575 16.1355 22.2242C14.3245 22.5935 13.0103 22.7241 11.0567 22.7291C9.04809 22.7341 8.14743 22.6445 6.46799 22.2719C4.88589 21.9209 2.66572 21.0955 2.66572 20.8583C2.66572 20.8025 2.7203 20.6452 2.78708 20.5087C3.06751 19.9356 3.91677 17.5039 4.24729 16.3279C5.85889 10.5935 5.63154 5.20317 3.61143 1.25602C3.21148 0.474619 2.77736 -0.000524953 2.46389 2.63642e-05C2.35631 0.000210137 2.14159 0.0807024 1.98684 0.178837ZM20.8068 0.129218C20.5861 0.230936 20.4791 0.388981 20.2636 0.931752C19.4734 2.92228 18.7426 6.36985 18.7416 8.11275C18.7412 8.65065 18.7706 8.7679 18.9543 8.95902C19.2336 9.24957 19.5639 9.3285 19.8979 9.1846C20.3052 9.0091 20.4206 8.74098 20.5158 7.74952C20.6956 5.8756 21.0631 4.11497 21.6236 2.44209C22.1267 0.940482 22.1431 0.866054 22.03 0.60767C21.8298 0.150628 21.2516 -0.0755041 20.8068 0.129218ZM19.2265 11.4316C18.6425 12.039 19.0276 12.9924 19.8569 12.9924C20.2855 12.9924 20.6843 12.5498 20.6843 12.0741C20.6843 11.331 19.7283 10.9096 19.2265 11.4316ZM10.7985 13.9286L10.5268 14.1665V15.5437V16.9209L10.7849 17.1895C10.9761 17.3883 11.1269 17.458 11.3659 17.458C11.6048 17.458 11.7556 17.3883 11.9468 17.1895L12.205 16.9209V15.5437V14.1665L11.9332 13.9286C11.7594 13.7763 11.555 13.6907 11.3659 13.6907C11.1768 13.6907 10.9724 13.7763 10.7985 13.9286ZM17.5045 24.2342C16.0765 25.545 12.9163 28.8422 12.1867 29.7823L11.9282 30.1155L9.92464 28.0283C8.82268 26.8805 7.4334 25.5151 6.83728 24.9942C6.24117 24.4733 5.76694 24.033 5.78355 24.0158C5.80007 23.9986 6.12882 24.0474 6.5141 24.1242C8.47583 24.5157 11.541 24.6521 13.6309 24.4408C14.6875 24.3341 16.5334 24.0325 17.2396 23.8513C18.1015 23.6301 18.1252 23.6644 17.5045 24.2342Z" fill="#B3A394"/>
</svg>
