<svg width="45" height="16" viewBox="0 0 45 16" fill="none" xmlns="http://www.w3.org/2000/svg">
<path fill-rule="evenodd" clip-rule="evenodd" d="M26.5775 0.0310479C25.9796 0.123596 24.7874 0.398555 24.3351 0.548159C22.9533 1.00519 2.49459 8.50864 2.05122 8.72092C0.965829 9.24063 0.215034 10.2491 0.0374038 11.4257C-0.292267 13.6093 1.60644 15.4975 3.79613 15.1637C4.67531 15.0297 13.2537 12.203 13.541 11.9527C14.0166 11.5382 13.7705 10.7003 13.14 10.5874C12.9166 10.5474 11.8979 10.8479 8.32939 12.0065C5.8394 12.8149 3.69861 13.4999 3.57207 13.5287C2.91976 13.6772 2.02079 13.0929 1.82294 12.3917C1.61216 11.645 1.95256 10.7444 2.59783 10.3412C3.02247 10.0759 24.7848 2.14036 25.7496 1.89896C26.6829 1.66553 28.683 1.58289 29.6824 1.73652C31.979 2.08951 34.2487 3.30908 35.6669 4.95212C36.0554 5.40219 40.6032 11.6922 40.6032 11.7795C40.6032 11.7941 40.1382 11.4918 39.57 11.1075C36.6858 9.15731 32.8635 6.60406 32.5162 6.39564C31.9322 6.04516 30.8736 5.70367 30.0162 5.58922C28.7768 5.42376 28.272 5.53216 24.2472 6.82792C19.4845 8.3613 19.3481 8.41189 19.1887 8.70598C18.9097 9.22074 19.1623 9.79298 19.7282 9.92849C19.9972 9.99293 19.8323 10.0422 25.1265 8.31641L28.4241 7.24141H29.2595C30.3595 7.24141 31.0495 7.46275 32.111 8.15581C32.5498 8.44235 35.3594 10.3249 38.3545 12.3394C43.0968 15.5288 43.8407 16.0016 44.1143 16C44.5983 15.9971 45 15.6057 45 15.137C45 15.0056 43.6755 13.0752 41.2975 9.74054C39.261 6.88506 37.4529 4.37879 37.2795 4.17113C36.3039 3.00324 34.7324 1.79466 33.2845 1.09892C32.5956 0.767908 31.4121 0.37481 30.5259 0.182582C29.9235 0.0519404 27.1338 -0.0551233 26.5775 0.0310479ZM16.201 9.46642C15.3272 9.94586 15.7832 11.2168 16.7557 11.013C17.3884 10.8804 17.6472 10.0858 17.1976 9.65672C16.95 9.42044 16.4566 9.32621 16.201 9.46642Z" fill="#B3A394"/>
</svg>
