<svg width="40" height="38" viewBox="0 0 40 38" fill="none" xmlns="http://www.w3.org/2000/svg">
<path fill-rule="evenodd" clip-rule="evenodd" d="M5.42954 0.106718C4.86987 0.374867 4.87758 1.13302 5.50305 7.35739C5.85013 10.8113 5.88777 12.5324 5.65454 14.2955C5.33811 16.6882 4.91824 18.0653 3.26038 22.1488C0.985178 27.7531 0.343343 30.3608 0.0635042 35.137C-0.06724 37.3684 -0.0233457 37.6774 0.455633 37.8936C0.848178 38.071 1.00541 38.0379 1.3379 37.7084C1.6388 37.41 1.64265 37.3916 1.64276 36.2359C1.64297 33.2837 2.21432 29.7899 3.16904 26.9021C3.37569 26.2769 4.07351 24.4634 4.71962 22.8721C7.50915 16.0021 7.82548 13.8306 7.075 6.70587C6.89275 4.97536 6.71405 2.88317 6.67808 2.05661C6.61427 0.5929 6.60509 0.546194 6.32515 0.268745C6.02165 -0.0320579 5.80197 -0.0717378 5.42954 0.106718ZM33.7887 0.106718C33.4448 0.271534 33.3608 0.626586 33.2944 2.19973C33.261 2.99219 33.0858 5.03818 32.9051 6.74638C32.1526 13.8605 32.4816 16.0639 35.3444 23.0788C35.9475 24.5564 36.61 26.2769 36.8165 26.9021C37.7669 29.7778 38.3394 33.2759 38.3418 36.2231C38.3429 37.4132 38.4458 37.7353 38.8823 37.9145C39.2566 38.0683 39.6059 37.9361 39.8663 37.5422C40.0313 37.2927 40.0357 37.1068 39.9228 35.1852C39.7274 31.8633 39.2829 29.3233 38.4309 26.6594C38.2009 25.9404 37.4326 23.9106 36.7235 22.1488C34.7194 17.169 34.2997 15.5335 34.2046 12.3322C34.1608 10.8588 34.2046 10.0588 34.4756 7.37217C34.7866 4.2885 35.0036 1.65217 35.0055 0.931728C35.0061 0.688792 34.9171 0.499383 34.7016 0.285897C34.3817 -0.031232 34.1652 -0.0737012 33.7887 0.106718ZM19.4714 20.0563C18.941 20.4152 18.5032 21.2717 18.5032 21.9508C18.5032 22.6152 18.8992 23.3455 19.464 23.7227C19.9285 24.0329 20.1555 24.0184 20.5221 23.6551C20.9181 23.2625 20.9064 23.0377 20.4619 22.5105C20.2612 22.2724 20.0974 22.0006 20.098 21.9065C20.0985 21.8124 20.2628 21.5313 20.4629 21.2817C20.9063 20.729 20.9171 20.5174 20.5221 20.1258C20.156 19.763 19.9271 19.7479 19.4714 20.0563Z" fill="#B3A394"/>
</svg>
