<svg width="76" height="202" viewBox="0 0 76 202" fill="none" xmlns="http://www.w3.org/2000/svg">
<mask id="path-1-outside-1_63_1477" maskUnits="userSpaceOnUse" x="0" y="0" width="76" height="202" fill="black">
<rect fill="white" width="76" height="202"/>
<path fill-rule="evenodd" clip-rule="evenodd" d="M31.9526 1.17645C31.6672 1.46073 31.7057 2.13363 32.0854 3.49878C32.4816 4.92297 32.4904 5.04783 32.1763 4.78819C32.0437 4.67855 31.7886 4.63522 31.6093 4.69195C31.43 4.74867 31.2353 4.71758 31.1765 4.62299C31.1178 4.52823 30.8846 4.45083 30.658 4.45083C29.5817 4.45083 27.9488 5.88544 27.5607 7.17205L27.3588 7.84098L27.2519 7.34486C27.193 7.072 27.1359 6.22992 27.1251 5.4735C27.1055 4.09479 26.9468 3.55005 26.456 3.17449C26.0893 2.89401 25.3609 2.91353 25.1138 3.21037C24.8734 3.49895 24.1271 7.81022 24.1214 8.94253C24.1151 10.2028 24.6554 11.5653 26.3566 14.5799C28.4982 18.3752 28.812 18.6868 31.2554 19.4447C35.1261 20.6455 36.9201 21.8947 39.8699 25.4428C41.1658 27.0016 41.1045 27.0949 38.6699 27.2703C36.0963 27.4559 34.9818 28.034 31.8404 30.8139C31.1123 31.4582 30.4055 32.089 30.2697 32.2153C30.0269 32.4419 29.211 33.0488 24.7841 36.2967C15.548 43.073 6.7076 51.3236 2.34891 57.2352C1.99236 57.7188 1.545 58.2973 1.3546 58.5207C0.911894 59.0401 0.88816 60.3191 1.25849 63.704C2.19802 72.2948 3.38189 77.4379 5.8748 83.7591C7.55915 88.03 9.37032 91.5103 14.7334 100.781C18.31 106.963 20.1289 110.606 21.2149 113.762C21.7311 115.263 22.366 116.9 22.6258 117.401C22.8854 117.901 23.149 118.571 23.2116 118.889C23.274 119.207 23.6885 120.456 24.1324 121.664C24.5764 122.871 25.0532 124.285 25.1918 124.806C25.5689 126.221 25.8564 131.301 25.6137 132.261C25.5073 132.682 25.3609 133.555 25.2882 134.201C25.187 135.099 24.978 135.727 24.3985 136.869C23.1734 139.286 22.5153 140.187 20.3746 142.382C19.2603 143.525 18.2165 144.716 18.055 145.028C17.8935 145.341 17.4506 146.006 17.0708 146.506C12.373 152.692 8.39278 160.506 6.70511 166.855C5.39591 171.78 5.05529 176.184 5.66681 180.273C6.09956 183.166 6.96107 186.856 8.16404 190.967C10.6315 199.4 11.0967 200.911 11.2246 200.912C11.4228 200.915 11.2628 200.289 9.97753 196.035C6.40333 184.207 5.5883 180.198 5.74218 175.198C5.99715 166.916 9.39456 158.063 15.9479 148.605C17.2054 146.79 17.5701 146.366 17.7257 146.538C17.9818 146.821 20.5552 151.201 22.3707 154.444C26.7808 162.322 29.7591 169.725 31.0791 176.091C31.6119 178.662 31.6692 180.035 31.3342 182.227C31.1744 183.273 31.0321 184.383 31.0182 184.693C30.9631 185.912 27.9984 187.909 25.4456 188.447C23.9282 188.767 19.7058 188.671 17.8928 188.275C16.1602 187.897 14.4469 187.234 13.3082 186.501C12.2737 185.835 11.7988 185.75 12.5159 186.359C13.1548 186.903 15.4676 187.969 16.7934 188.332C19.4801 189.067 24.2235 189.194 26.2756 188.585C27.8402 188.12 29.3926 187.199 30.5295 186.061C31.1166 185.473 31.6194 185.021 31.6468 185.057C31.6742 185.092 31.7809 185.773 31.884 186.571C32.1149 188.358 32.7664 189.795 33.9133 191.045C34.7239 191.928 34.7328 191.95 34.4916 192.432C34.3568 192.701 34.1762 193.622 34.0902 194.478C33.8992 196.383 33.7944 200.853 33.9377 200.995C33.995 201.052 34.0879 199.997 34.1444 198.65C34.2742 195.55 34.5159 193.147 34.7589 192.539L34.9481 192.066L35.2501 192.728C35.416 193.091 35.9761 195.082 36.4945 197.152C37.0129 199.221 37.5028 200.914 37.5831 200.914C37.7924 200.914 37.8162 201.029 36.735 196.789C36.1914 194.656 35.7651 192.893 35.7875 192.871C35.8099 192.848 36.2747 193.049 36.8204 193.316C37.3658 193.583 38.2146 193.877 38.7062 193.968C39.8534 194.181 41.0491 194.181 41.0491 193.968C41.0491 193.877 40.654 193.803 40.171 193.803C38.9569 193.803 37.479 193.392 36.4348 192.764C34.7044 191.723 33.0946 189.816 32.5178 188.124C32.2105 187.222 31.9249 184.94 32.0957 184.75C32.1576 184.681 32.3642 184.104 32.5548 183.467C33.1449 181.496 34.6654 179.287 37.4724 176.324C41.9868 171.557 47.7783 167.607 56.1546 163.579C57.9349 162.724 59.8254 161.761 60.3558 161.441C60.8859 161.12 61.36 160.898 61.409 160.947C61.458 160.995 61.6196 161.766 61.7684 162.66C61.9956 164.023 62.0396 165.781 62.0431 173.627C62.0474 183.014 61.9825 184.494 61.3716 188.924C60.868 192.576 60.0309 196.153 58.9931 199.089C58.6379 200.093 58.4065 200.952 58.4789 200.997C58.6832 201.123 59.8946 197.554 60.5388 194.928C61.9747 189.077 62.4853 183.335 62.4406 173.545C62.4133 167.523 62.274 164.308 61.9515 162.258C61.8407 161.553 61.7392 159.934 61.7257 158.661C61.7121 157.357 61.5987 155.891 61.4663 155.305C61.2541 154.366 61.2672 153.869 61.5999 150.261C61.8394 147.663 62.1096 145.707 62.3699 144.687C63.1162 141.764 64.3029 138.196 64.703 137.674C65.4634 136.681 66.131 134.969 66.5258 133C66.7414 131.924 67.5883 128.811 68.4077 126.083C69.9672 120.89 70.304 119.487 70.6084 116.92C70.7256 115.932 70.9773 114.906 71.2985 114.109C72.4119 111.342 72.6581 110.085 73.0012 105.411C73.4084 99.8616 73.5293 98.7892 74.4029 92.9621C74.994 89.0188 75.1021 85.9637 74.9186 78.3648C74.6618 67.7238 74.29 63.0982 73.1642 56.5433C72.3245 51.6537 70.8909 46.1554 70.374 45.8414C70.2563 45.7699 69.8448 45.1246 69.4599 44.4073C69.0748 43.69 68.2475 42.4249 67.6217 41.5959C65.4757 38.754 59.6259 32.2308 56.3372 29.0132C55.6345 28.3256 55.1586 27.7228 55.1586 27.5202C55.1586 26.9635 54.6897 26.4454 54.1857 26.4454C53.879 26.4454 53.5428 26.2508 53.1577 25.8503C52.8432 25.523 51.3236 24.1279 49.7812 22.7503C46.2527 19.5987 44.7408 17.8786 43.1187 15.1701C41.1596 11.8991 40.0646 10.5549 38.5243 9.53093C37.6805 8.97015 36.5808 7.31311 35.3237 4.70832C34.4473 2.89219 34.12 2.38648 33.407 1.74798C32.5047 0.939635 32.2792 0.850995 31.9526 1.17645ZM32.4174 1.38168C32.4174 1.42186 32.3427 1.50058 32.2514 1.55681C32.1601 1.61303 32.0854 1.58012 32.0854 1.48388C32.0854 1.38763 32.1601 1.30875 32.2514 1.30875C32.3427 1.30875 32.4174 1.34149 32.4174 1.38168ZM32.8323 2.2183C32.8323 2.47595 32.7485 2.71475 32.6459 2.74882C32.4268 2.82158 32.2333 2.2097 32.3662 1.86457C32.5168 1.47362 32.8323 1.71308 32.8323 2.2183ZM35.1634 5.07925C35.7515 6.28912 36.4948 7.6207 36.815 8.03843C37.1353 8.45633 37.3972 8.89259 37.3972 9.00818C37.3972 9.12378 37.7732 9.44874 38.2327 9.73037C39.41 10.4522 40.5225 11.6738 41.7416 13.5832C42.3194 14.4881 43.2208 15.8928 43.7448 16.705C44.7886 18.3218 46.5377 20.2233 49.0998 22.5264C51.0411 24.2714 52.9957 26.1122 53.2919 26.4744C53.4648 26.6859 53.4129 26.8379 52.9846 27.3727C52.7011 27.7267 52.2804 28.3863 52.0499 28.8381L51.6304 29.6596L51.3041 28.59C50.9399 27.3963 50.5833 26.9331 49.5737 26.3414C48.766 25.8681 47.2387 25.7297 46.4024 26.054C45.9043 26.2472 45.8629 26.2381 45.8629 25.9343C45.8629 25.1605 44.9719 23.9648 44.395 23.9648C44.3061 23.9648 43.5619 24.523 42.7412 25.2051C41.9205 25.8873 41.2126 26.4454 41.1678 26.4454C41.1231 26.4454 40.6505 25.9078 40.1175 25.2508C37.3869 21.8836 35.0648 20.2363 31.6659 19.255C28.9364 18.467 28.7922 18.3233 26.3619 13.972C24.886 11.3295 24.4508 10.2025 24.447 9.01397C24.4431 7.81601 24.9688 4.93885 25.1841 4.9787C25.626 5.06056 26.0989 4.71973 26.3273 4.15515C26.5647 3.5684 26.5797 3.55947 26.6646 3.95472C26.7136 4.1821 26.7986 5.12754 26.8535 6.05561C26.988 8.32122 27.2662 9.51654 28.1101 11.4534C28.7602 12.9452 29.1136 13.42 29.3778 13.1569C29.4328 13.102 29.0561 12.1379 28.5407 11.0143C28.0253 9.89078 27.6035 8.74507 27.6035 8.4684C27.6035 7.23704 28.4322 5.81979 29.5271 5.17881C30.6283 4.53418 31.4798 4.74751 30.7956 5.49665C29.8262 6.55802 29.8426 7.48642 30.8688 9.61874C31.2956 10.5056 31.7439 11.2311 31.8651 11.2311C32.2105 11.2311 32.1257 10.88 31.5854 10.0735C30.724 8.78774 30.4256 7.78359 30.6233 6.8375C30.8052 5.96681 31.4569 4.94695 31.8312 4.94695C31.9647 4.94695 32.2095 5.40735 32.4248 6.06322C32.9834 7.76441 33.8027 9.4231 34.4412 10.1451C35.1236 10.9171 35.421 10.71 34.8057 9.89144C34.0483 8.88382 33.576 7.77963 32.9889 5.64235C32.6715 4.48672 32.3677 3.40171 32.3138 3.23121C32.2509 3.03193 32.2802 2.96066 32.3961 3.0321C32.7234 3.23369 33.247 2.80885 33.2533 2.33654L33.2593 1.88755L33.6766 2.38367C33.9062 2.65654 34.5751 3.86955 35.1634 5.07925ZM26.0782 3.75081C26.1077 3.94926 25.9645 4.26462 25.7462 4.48209L25.3626 4.86427L25.3098 4.31605C25.2246 3.43263 25.9519 2.89782 26.0782 3.75081ZM44.8022 24.4221C45.1066 24.6227 45.5309 25.5713 45.5309 26.051C45.5309 26.3747 45.2529 26.7884 44.535 27.5334C43.5959 28.5075 43.3423 28.926 43.6909 28.926C43.7745 28.926 44.2684 28.4433 44.7883 27.8533C45.7632 26.7471 46.6036 26.1147 47.0988 26.1147C47.2548 26.1147 47.5903 26.3217 47.8442 26.5748C48.5494 27.2773 48.3806 27.8628 47.0591 29.2975C45.5655 30.9188 46.0537 30.9915 47.6321 29.3828C48.9846 28.0046 49.1416 27.52 48.4999 26.7071C48.034 26.1168 48.2053 25.9981 49.0045 26.3573C50.2565 26.9197 51.1748 28.2746 51.1748 29.5594C51.1748 29.9904 50.3591 30.8616 48.3909 32.5326C47.1432 33.592 46.9444 34.2312 48.1454 33.322C48.5789 32.9937 49.4043 32.4572 49.9791 32.13C50.9795 31.5603 51.0591 31.4663 51.8306 29.9409C52.274 29.0644 52.8863 28.0123 53.1916 27.603L53.7465 26.8589L53.83 27.5204C53.8969 28.0494 53.9884 28.1924 54.2872 28.2348C54.7524 28.3006 54.7516 28.3343 54.2402 30.249C53.2892 33.8088 53.0661 34.0321 47.6485 36.8443C45.436 37.9929 45.2267 38.0239 42.5827 37.5922C40.4867 37.2502 38.2707 37.3445 37.1875 37.8218C36.755 38.0124 35.9784 38.5633 35.4622 39.0459C34.9036 39.5679 34.6384 39.7452 34.8073 39.4839C35.0027 39.1815 35.0344 39.0093 34.9089 38.9321C34.6171 38.7525 33.908 39.3181 33.5986 39.9776C33.4396 40.3164 31.8822 42.0098 30.0745 43.8096C25.794 48.0714 24.4792 49.6368 18.6861 57.3702C12.2314 65.9869 13.0164 65.0699 12.1466 65.0089C11.6913 64.977 11.2949 65.0498 11.087 65.2034C10.7628 65.443 10.7663 65.4531 11.2354 65.6314C11.5883 65.7657 11.8674 65.7643 12.287 65.6263C12.8137 65.4531 12.8972 65.4753 13.3575 65.9107C13.9333 66.4553 14.2577 67.0576 15.5711 70.0212C17.8998 75.2768 20.9071 81.431 21.8614 82.8943C22.5837 84.002 23.5997 85.0176 25.8652 86.8967C27.7257 88.4398 30.0146 90.755 30.4133 91.4972C30.6087 91.8607 30.5776 91.9763 30.0982 92.6704C29.3855 93.7026 28.0768 96.3577 27.5273 97.8866C26.4982 100.75 25.9389 103.783 25.5304 108.718C25.2409 112.213 25.0859 113.272 24.5978 115.08C24.234 116.429 23.4913 117.939 23.2616 117.798C22.9741 117.621 22.461 116.411 21.543 113.748C20.3932 110.411 18.5148 106.715 13.902 98.7134C8.69008 89.6726 6.37727 84.8613 4.64096 79.4475C4.01135 77.4842 3.17307 74.2639 2.87594 72.6672C1.91135 67.4839 1.29136 62.2402 1.59812 61.8589C1.69738 61.7354 1.79947 60.8855 1.82503 59.9702L1.87151 58.3062L2.77187 57.1353C7.83238 50.5538 16.734 42.4223 26.6905 35.2858C28.06 34.3043 29.8365 32.9368 30.6384 32.2472C35.3568 28.1888 36.0067 27.8051 38.5055 27.6029C39.4024 27.5303 40.3228 27.3929 40.5511 27.2974C40.7793 27.202 41.7131 26.4883 42.626 25.7113C44.2881 24.2969 44.4589 24.1957 44.8022 24.4221ZM54.6301 27.2392C54.6588 27.434 54.6082 27.7259 54.5172 27.8877C54.369 28.1516 54.3341 28.1351 54.1789 27.7286C53.9865 27.2243 54.1024 26.729 54.3906 26.8235C54.4935 26.8572 54.6012 27.0443 54.6301 27.2392ZM57.6617 30.7878C63.7623 37.1418 67.9278 42.094 69.16 44.4579C69.6599 45.417 69.7363 45.7327 69.8047 47.1227C69.8772 48.598 70.0852 49.3666 70.4814 49.6236C70.752 49.7992 71.0702 49.5977 71.1318 49.2115C71.2047 48.7556 72.117 52.4641 72.6556 55.4054C74.0646 63.0995 74.5943 70.3539 74.6326 82.486C74.6517 88.5293 74.6097 89.9959 74.3737 91.5197C73.3176 98.3384 73.1697 99.6481 72.5886 107.335C72.4948 108.576 72.2762 110.139 72.1029 110.808C71.698 112.372 70.7686 114.92 70.6033 114.92C70.3953 114.92 69.106 111.538 68.6907 109.902C68.4792 109.069 68.1482 107.181 67.9555 105.705C66.7787 96.7025 62.7031 89.2923 58.0755 87.7421C57.6255 87.5914 57.1213 87.4681 56.955 87.4681C56.7887 87.4681 56.6526 87.4386 56.6526 87.4027C56.6526 86.9602 57.6173 84.5214 58.659 82.3314C59.3767 80.8221 60.0865 79.0721 60.2364 78.4425C60.5198 77.2515 60.5163 75.6809 60.2047 64.0678C60.1237 61.0524 60.1579 59.8544 60.3695 58.2867C60.5163 57.1988 60.6364 55.8904 60.6364 55.3788C60.6364 54.258 60.7442 54.1098 61.1685 54.6471C61.9252 55.6055 62.2712 54.626 61.6339 53.3295C61.3004 52.6508 61.1001 52.4153 58.8039 50.0013C57.1984 48.3139 54.8379 45.3639 52.7195 42.3981C50.8084 39.7226 49.0417 37.1208 48.9182 36.8006C48.8615 36.6529 49.3767 36.2783 50.449 35.6875C52.7321 34.4293 53.5022 33.6357 54.0468 31.9795C54.285 31.2551 54.6074 30.123 54.7634 29.4635C54.9194 28.804 55.0907 28.2652 55.1443 28.2659C55.1978 28.2665 56.3307 29.4015 57.6617 30.7878ZM50.9684 30.9518C50.8326 31.1566 50.4688 31.4676 50.1597 31.6434C49.6444 31.9365 49.6597 31.9062 50.3448 31.2781C51.2038 30.4905 51.3119 30.4341 50.9684 30.9518ZM50.1147 39.2205C53.7176 44.4651 56.3256 47.824 58.9904 50.6521L60.3735 52.1199L60.3675 54.1249C60.3644 55.2276 60.2276 57.1717 60.0636 58.4451C59.752 60.8633 59.7724 64.5652 60.135 71.4269C60.2143 72.9276 60.2178 75.123 60.1428 76.3054C59.9879 78.7493 59.8244 79.278 58.0818 82.9721C57.4945 84.217 56.8167 85.8848 56.5756 86.6781C56.3345 87.4715 56.0638 88.1659 55.974 88.2213C55.725 88.3746 54.2271 87.3487 53.6618 86.6376C52.8018 85.5559 51.4963 82.3785 50.9342 79.9998L50.7131 79.0638L51.2896 78.5115C52.0398 77.7926 52.193 77.4918 52.317 76.4946C52.4195 75.6692 52.4212 75.6674 53.5223 75.1122C54.974 74.3804 55.5295 73.59 55.6274 72.1168C55.6657 71.5402 55.7811 71.0452 55.8842 71.0144C55.9873 70.9835 56.2791 70.9131 56.5329 70.8575C56.8455 70.7892 57.0832 70.5704 57.2707 70.1786C57.5123 69.6741 57.5212 69.4738 57.3408 68.6038C57.2271 68.0554 57.0669 67.0197 56.9847 66.302C56.7545 64.2902 56.1382 63.3329 54.6523 62.678C53.9352 62.362 53.8836 62.292 53.5176 61.1402C52.2033 57.005 49.3121 52.7846 46.1856 50.4376C43.5486 48.4579 40.8788 47.4883 37.6374 47.333C34.4659 47.1811 32.1571 47.7594 29.8127 49.293C29.2092 49.6879 28.0729 50.346 27.288 50.7553C26.1469 51.3501 25.794 51.6251 25.5286 52.126C25.2753 52.604 24.9421 52.8787 24.1236 53.2836C22.4026 54.1353 21.5213 55.5294 21.1149 58.0436C20.9136 59.2888 21.1571 61.5475 21.645 62.9599C22.0434 64.1136 22.0394 64.3426 21.6006 65.5614C21.1749 66.7445 21.2378 67.1183 22.0385 68.1629C22.7123 69.042 22.751 69.1742 22.2917 69.029C22.0354 68.9479 21.9597 68.9992 21.9597 69.254C21.9597 69.638 22.3757 70.1039 22.7184 70.1039C23.0297 70.1039 23.0254 70.1442 22.5407 71.7576C22.0668 73.335 22.012 74.6766 22.3782 75.7385C22.5171 76.1412 23.2626 77.3112 24.035 78.3381C25.6036 80.4245 26.6263 82.0901 27.2694 83.6061C27.8454 84.9643 27.9913 85.1117 29.0689 85.4237C30.0078 85.6958 32.2862 85.7766 33.2243 85.5714C33.6821 85.4712 33.7669 85.5243 34.1721 86.1638C34.7912 87.1409 35.0665 87.8463 35.3418 89.1625C35.671 90.7347 35.4713 91.395 34.3079 92.5827L33.4054 93.5042L33.0359 93.0613C32.8327 92.8177 32.4648 92.5687 32.2187 92.508C31.9723 92.4474 31.6531 92.2187 31.5094 92.0001C31.3654 91.7813 31.1561 91.5979 31.0441 91.5923C30.932 91.5867 30.4296 91.0543 29.9274 90.4092C28.9904 89.2053 27.8659 88.1441 25.1206 85.8729C24.2571 85.1585 23.1885 84.1275 22.7462 83.5818C21.6358 82.2123 19.0355 77.011 15.1514 68.391C14.6576 67.2949 14.0238 66.1723 13.7149 65.8459C13.4108 65.5247 13.162 65.2419 13.162 65.2176C13.162 64.9977 24.2813 50.4812 25.7583 48.7729C28.1855 45.9656 33.1275 41.0667 33.9596 40.6434C34.3055 40.4672 35.1126 39.8443 35.753 39.2589C36.6064 38.4786 37.1444 38.1272 37.7684 37.9427C38.845 37.6242 40.868 37.6217 42.792 37.9365C45.0818 38.3114 45.4854 38.2732 46.8776 37.5501C47.5521 37.1998 48.192 36.9021 48.2999 36.8886C48.4076 36.875 49.2243 37.9245 50.1147 39.2205ZM34.406 39.5966C34.2904 39.7351 34.1618 39.8145 34.12 39.773C34.0049 39.6582 34.2388 39.3445 34.4393 39.3445C34.5496 39.3445 34.5369 39.4394 34.406 39.5966ZM70.51 47.6615C70.666 48.236 70.7663 48.8879 70.7327 49.1105L70.6718 49.515L70.4569 49.1329C70.2268 48.7243 69.9209 46.4291 70.1121 46.5468C70.1748 46.5855 70.3539 47.0871 70.51 47.6615ZM39.8156 47.8634C44.7582 48.8163 49.1294 52.4872 51.8245 57.949C52.713 59.7496 53.6212 62.1104 53.4743 62.2379C53.4421 62.2659 52.5869 62.3649 51.5738 62.458C48.9816 62.6962 47.7078 63.4361 46.7243 65.2743C45.6237 67.3317 45.6529 69.9723 46.8016 72.2599C47.4938 73.6384 48.4255 74.4846 49.6376 74.8357C50.5953 75.113 51.2325 75.0457 52.1707 74.568C52.4903 74.4053 53.1839 74.0715 53.7123 73.8266C55.0688 73.1974 55.6033 72.2537 54.603 72.2537C54.3788 72.2537 53.9112 72.5794 53.4157 73.0806C52.7359 73.7682 52.4977 73.9075 52.0021 73.9075C50.6125 73.9075 48.9366 72.5752 48.1787 70.8684C46.9266 68.0483 48.0295 64.6922 50.6809 63.2546C51.4327 62.847 51.6397 62.806 52.4416 62.9057C53.0327 62.9793 53.4291 62.9537 53.5759 62.8323C54.0506 62.4397 55.7112 63.4824 56.2512 64.512C56.4504 64.8918 56.8192 66.8933 57.1067 69.1552C57.201 69.8964 56.8109 70.6 56.3058 70.6C55.5504 70.6 55.3246 70.8883 55.3246 71.8527C55.3246 73.4221 54.5446 74.4795 52.9554 75.0643C52.2341 75.3297 52.149 75.482 51.9255 76.9047C51.808 77.6537 51.0579 78.4567 50.0364 78.9272C49.3412 79.2474 48.9816 79.2821 46.3609 79.2821C43.2243 79.2821 42.4894 79.1587 40.8781 78.3623C39.593 77.7268 38.7261 76.8228 37.8779 75.2329C37.0001 73.5875 36.5222 73.1573 33.6749 71.45C30.9724 69.8295 30.7481 69.7159 29.3808 69.2759C28.7698 69.0792 28.2275 68.8502 28.1759 68.7669C28.1242 68.6837 27.8396 68.6155 27.5433 68.6155C26.0432 68.6155 23.576 66.5542 22.5618 64.4531C21.1518 61.5326 20.9509 58.0249 22.0663 55.7991C22.6519 54.6306 23.3783 53.9301 24.5585 53.3956C25.2603 53.0778 25.6174 52.812 25.6986 52.5469C25.8884 51.9269 26.284 51.583 27.5205 50.9626C28.1596 50.642 29.0933 50.1025 29.5954 49.7639C32.6232 47.7218 35.9102 47.1106 39.8156 47.8634ZM61.4501 53.5912C61.5504 53.8777 61.6324 54.2646 61.6324 54.4512C61.6324 55.0146 61.2769 54.5081 61.1369 53.7452C60.9904 52.9469 61.1904 52.8487 61.4501 53.5912ZM1.49636 60.5536C1.45968 60.8493 1.42947 60.6074 1.42947 60.0161C1.42947 59.4249 1.45968 59.183 1.49636 59.4787C1.53321 59.7744 1.53321 60.2579 1.49636 60.5536ZM49.9064 63.3788C46.8433 65.4725 46.4864 70.3037 49.2074 72.8393C50.034 73.6098 51.1577 74.226 51.7557 74.2371C52.2643 74.2465 51.7395 74.5286 50.9731 74.6576C49.4984 74.9058 47.7906 73.7426 46.9568 71.9222C45.3995 68.5221 46.4137 64.6466 49.2261 63.2503C50.4807 62.6276 50.8921 62.7051 49.9064 63.3788ZM22.8406 65.5474C23.4958 66.5805 25.1006 68.0111 26.1698 68.515C27.0675 68.938 27.074 68.9463 26.9895 69.5735C26.9206 70.0854 27.0315 70.4556 27.572 71.5192C28.5077 73.3603 28.6601 74.0345 28.672 76.3856C28.6815 78.2477 28.7122 78.4559 28.9852 78.5085C29.3245 78.574 29.9274 78.1055 29.9274 77.7765C29.9274 77.6588 30.1824 77.3687 30.494 77.1319C31.015 76.736 31.348 76.2597 31.2039 76.1164C31.0774 75.9902 29.7694 77.3378 29.6082 77.7605C29.4353 78.2133 29.0121 78.3654 28.8953 78.0165C28.8603 77.9116 28.8915 77.3262 28.9647 76.7155C29.1599 75.0867 28.7902 73.2192 27.9469 71.5754C27.0308 69.7895 27.0511 68.9377 28.0041 69.176C28.507 69.3017 29.2439 70.9268 29.4648 72.3978C29.7264 74.1392 29.7623 74.2655 29.9751 74.1957C30.3469 74.0737 30.2855 73.4249 29.7515 71.8358C29.4595 70.9673 29.2673 70.2104 29.324 70.1537C29.381 70.0971 29.5777 70.1862 29.7614 70.352C29.9452 70.5177 30.151 70.5975 30.2189 70.5296C30.3886 70.3601 29.5911 69.7394 29.3312 69.8388C29.216 69.8828 29.0229 69.7993 28.9021 69.6533C27.9499 68.5016 34.8405 72.1722 36.3697 73.6313C36.672 73.9195 37.2314 74.7386 37.6128 75.4514C38.7821 77.6363 40.5237 78.8958 43.1386 79.4476C44.6859 79.7742 48.3686 79.7751 49.4469 79.4493C50.5146 79.1266 50.4567 79.1078 50.59 79.8196C50.8162 81.0281 51.7192 83.6006 52.3968 84.9673C53.2422 86.6724 53.9995 87.5471 55.2645 88.2794C57.1595 89.3763 57.4367 89.5976 58.0101 90.4714C58.8254 91.7138 59.1213 92.5601 59.4079 94.4706C59.7374 96.6653 59.7432 101.65 59.4185 103.427C58.7677 106.988 57.076 109.261 53.8307 110.936C50.9742 112.41 48.6146 112.85 44.25 112.722C40.8145 112.622 39.909 112.45 37.9725 111.528C34.4599 109.857 32.9389 106.732 32.6463 100.582C32.5301 98.1374 32.6893 96.6838 33.2853 94.7496C33.5465 93.9024 33.7646 93.5488 34.3336 93.0497C34.7288 92.7033 35.2062 92.1713 35.3946 91.8675C36.096 90.737 35.6944 88.0111 34.5652 86.2382C34.2793 85.7892 34.0167 85.1975 33.982 84.9235C33.91 84.3574 33.3717 83.7338 33.0996 83.9013C32.9723 83.9797 32.992 84.1887 33.1658 84.6031C33.3019 84.9276 33.4133 85.2153 33.4133 85.2426C33.4133 85.4202 31.1367 85.4756 30.1796 85.3212C28.3754 85.0301 28.306 84.9706 27.1905 82.7534C26.126 80.6378 25.6826 79.9461 24.232 78.138C22.3541 75.7972 22.0405 74.3123 22.8748 71.71C23.4116 70.0353 23.3962 69.6688 22.7482 68.7037C22.4514 68.2618 22.0784 67.7076 21.919 67.4723C21.7598 67.237 21.629 66.8593 21.6285 66.6329C21.6277 66.2161 22.1388 64.8134 22.2917 64.813C22.3373 64.8126 22.5843 65.1432 22.8406 65.5474ZM12.0415 65.4176C11.9275 65.4635 11.7407 65.4635 11.6265 65.4176C11.5125 65.3717 11.6058 65.3342 11.834 65.3342C12.0623 65.3342 12.1557 65.3717 12.0415 65.4176ZM22.9557 69.7002C22.9557 69.8419 22.881 69.9121 22.7897 69.8558C22.6984 69.7996 22.6237 69.6837 22.6237 69.598C22.6237 69.5124 22.6984 69.4424 22.7897 69.4424C22.881 69.4424 22.9557 69.5585 22.9557 69.7002ZM54.8266 72.6662C54.8266 72.8053 53.4595 73.7424 53.2663 73.7358C53.0183 73.7274 54.3577 72.5901 54.6191 72.587C54.7333 72.5856 54.8266 72.6212 54.8266 72.6662ZM58.8105 88.3378C60.2095 88.9863 62.2064 90.9905 63.4449 92.9889C65.3678 96.0914 67.0156 100.793 67.5332 104.654C68.1714 109.414 68.7101 111.579 69.8819 114.093C70.4356 115.281 70.4557 115.389 70.3558 116.656C70.1893 118.768 69.6871 120.9 68.1822 125.883C67.4074 128.448 66.5789 131.478 66.341 132.615C65.4317 136.963 64.4327 138.304 60.8249 140.018C55.9275 142.346 44.8841 142.655 36.5204 140.698C32.3231 139.717 27.9171 137.664 26.5214 136.039C25.6307 135.003 25.501 134.37 25.832 132.675C26.0684 131.464 26.0837 130.908 25.9371 128.836C25.6934 125.392 25.5337 124.584 24.5995 122.07C23.4941 119.096 23.3175 118.323 23.6553 117.941C24.7247 116.729 25.4569 113.747 25.7777 109.297C26.2231 103.121 27.2035 98.831 28.9698 95.3304C29.612 94.0575 30.8902 91.9331 31.0137 91.9331C31.0471 91.9331 31.261 92.1192 31.4893 92.3466C31.7175 92.574 32.0108 92.76 32.1411 92.76C32.2714 92.76 32.5691 93.0097 32.8028 93.3148L33.2276 93.8697L32.908 94.8922C31.9929 97.8217 32.1224 102.846 33.2023 106.308C33.7485 108.059 34.9529 109.898 36.1376 110.789C37.1889 111.58 38.8681 112.357 40.2619 112.697C41.6953 113.046 46.2399 113.194 48.0675 112.951C53.5955 112.214 57.8348 109.412 59.1264 105.641C59.9169 103.333 60.1833 99.3304 59.7982 95.5475C59.5837 93.442 59.2511 92.1051 58.6721 91.0236C58.1596 90.0662 56.7933 88.6257 56.3976 88.6257C56.2401 88.6257 56.1674 88.5392 56.2236 88.419C56.2769 88.3053 56.3669 88.0803 56.4238 87.9192C56.5621 87.5274 57.3674 87.6687 58.8105 88.3378ZM25.9734 126.536C26.0061 126.764 26.3328 127.106 26.8245 127.426C27.685 127.986 29.9342 128.925 30.8032 129.086C31.6115 129.237 31.1658 128.91 30.1052 128.574C28.3397 128.016 25.6751 126.496 26.4628 126.496C26.588 126.496 27.1578 126.717 27.7292 126.986C30.703 128.387 34.0084 129.324 37.3962 129.724C40.3016 130.067 44.2045 130.029 44.2025 129.658C44.2021 129.602 42.6521 129.552 40.7581 129.547C37.8721 129.54 37.0184 129.479 35.4883 129.169C33.0277 128.671 30.7765 127.966 28.5105 126.983C26.376 126.057 25.8928 125.972 25.9734 126.536ZM26.6075 132.437C26.6075 132.719 28.175 133.932 29.3094 134.528C31.5583 135.708 35.0656 136.569 40.3021 137.224C45.9851 137.935 53.2311 138.087 57.0274 137.575C58.6785 137.352 62.1347 136.485 62.3671 136.235C62.5004 136.091 62.4408 136.071 62.1304 136.156C57.6829 137.365 55.9858 137.576 50.7098 137.575C41.9861 137.573 33.4294 136.291 29.7614 134.436C28.8598 133.98 27.8465 133.287 27.2373 132.71C26.7591 132.257 26.6075 132.191 26.6075 132.437ZM26.1202 136.02C27.5535 137.926 32.3335 140.112 37.2664 141.115C41.5315 141.982 42.9749 142.116 48.1039 142.12C55.7552 142.126 59.6133 141.372 62.8067 139.248C63.3685 138.874 63.8481 138.568 63.8725 138.568C63.8971 138.568 63.6321 139.455 63.2839 140.538C62.1095 144.191 61.6681 146.345 61.3489 149.979L61.0511 153.369L58.9704 153.353C55.0853 153.322 51.1298 152.618 45.1159 150.887C36.3757 148.372 29.4457 145.536 23.7559 142.145L22.1494 141.188L23.116 139.721C23.6475 138.915 24.4079 137.582 24.8055 136.76C25.2032 135.939 25.5334 135.265 25.5392 135.264C25.545 135.262 25.8065 135.602 26.1202 136.02ZM23.7119 142.468C27.9672 145.018 33.8572 147.596 40.0531 149.62C48.1095 152.253 53.4022 153.408 58.1555 153.57L60.9032 153.664L61.1861 155.335C61.3414 156.255 61.4683 157.767 61.4676 158.695L61.4664 160.382L60.7609 160.864C60.373 161.129 58.0386 162.348 55.5736 163.571C47.3632 167.647 42.8192 170.694 38.1601 175.248C34.893 178.442 32.4399 181.903 32.146 183.734C32.0337 184.434 31.768 184.755 31.4591 184.565C31.3045 184.47 31.319 184.142 31.5221 183.128C31.8455 181.513 31.8882 178.354 31.6048 177.018C29.7503 168.274 26.7264 161.153 20.0745 149.864L17.8525 146.093L18.2701 145.312C18.6615 144.579 21.5143 141.38 21.7756 141.38C21.8413 141.38 22.7126 141.869 23.7119 142.468ZM19.9678 143.726C19.9678 144.359 22.7621 146.259 26.2073 147.969C28.9647 149.338 31.7507 150.533 31.8809 150.403C32.0178 150.267 32.0012 150.258 30.0104 149.403C25.7231 147.561 22.1162 145.528 20.6732 144.14C20.1982 143.682 19.9678 143.547 19.9678 143.726ZM50.6022 155.924C50.8506 156.172 55.5557 156.934 57.4917 157.04C59.2301 157.136 61.1348 157.004 61.1339 156.789C61.1338 156.727 59.7705 156.67 58.1045 156.662C55.5145 156.65 54.7629 156.584 52.9177 156.208C50.4952 155.714 50.377 155.7 50.6022 155.924Z"/>
</mask>
<path fill-rule="evenodd" clip-rule="evenodd" d="M31.9526 1.17645C31.6672 1.46073 31.7057 2.13363 32.0854 3.49878C32.4816 4.92297 32.4904 5.04783 32.1763 4.78819C32.0437 4.67855 31.7886 4.63522 31.6093 4.69195C31.43 4.74867 31.2353 4.71758 31.1765 4.62299C31.1178 4.52823 30.8846 4.45083 30.658 4.45083C29.5817 4.45083 27.9488 5.88544 27.5607 7.17205L27.3588 7.84098L27.2519 7.34486C27.193 7.072 27.1359 6.22992 27.1251 5.4735C27.1055 4.09479 26.9468 3.55005 26.456 3.17449C26.0893 2.89401 25.3609 2.91353 25.1138 3.21037C24.8734 3.49895 24.1271 7.81022 24.1214 8.94253C24.1151 10.2028 24.6554 11.5653 26.3566 14.5799C28.4982 18.3752 28.812 18.6868 31.2554 19.4447C35.1261 20.6455 36.9201 21.8947 39.8699 25.4428C41.1658 27.0016 41.1045 27.0949 38.6699 27.2703C36.0963 27.4559 34.9818 28.034 31.8404 30.8139C31.1123 31.4582 30.4055 32.089 30.2697 32.2153C30.0269 32.4419 29.211 33.0488 24.7841 36.2967C15.548 43.073 6.7076 51.3236 2.34891 57.2352C1.99236 57.7188 1.545 58.2973 1.3546 58.5207C0.911894 59.0401 0.88816 60.3191 1.25849 63.704C2.19802 72.2948 3.38189 77.4379 5.8748 83.7591C7.55915 88.03 9.37032 91.5103 14.7334 100.781C18.31 106.963 20.1289 110.606 21.2149 113.762C21.7311 115.263 22.366 116.9 22.6258 117.401C22.8854 117.901 23.149 118.571 23.2116 118.889C23.274 119.207 23.6885 120.456 24.1324 121.664C24.5764 122.871 25.0532 124.285 25.1918 124.806C25.5689 126.221 25.8564 131.301 25.6137 132.261C25.5073 132.682 25.3609 133.555 25.2882 134.201C25.187 135.099 24.978 135.727 24.3985 136.869C23.1734 139.286 22.5153 140.187 20.3746 142.382C19.2603 143.525 18.2165 144.716 18.055 145.028C17.8935 145.341 17.4506 146.006 17.0708 146.506C12.373 152.692 8.39278 160.506 6.70511 166.855C5.39591 171.78 5.05529 176.184 5.66681 180.273C6.09956 183.166 6.96107 186.856 8.16404 190.967C10.6315 199.4 11.0967 200.911 11.2246 200.912C11.4228 200.915 11.2628 200.289 9.97753 196.035C6.40333 184.207 5.5883 180.198 5.74218 175.198C5.99715 166.916 9.39456 158.063 15.9479 148.605C17.2054 146.79 17.5701 146.366 17.7257 146.538C17.9818 146.821 20.5552 151.201 22.3707 154.444C26.7808 162.322 29.7591 169.725 31.0791 176.091C31.6119 178.662 31.6692 180.035 31.3342 182.227C31.1744 183.273 31.0321 184.383 31.0182 184.693C30.9631 185.912 27.9984 187.909 25.4456 188.447C23.9282 188.767 19.7058 188.671 17.8928 188.275C16.1602 187.897 14.4469 187.234 13.3082 186.501C12.2737 185.835 11.7988 185.75 12.5159 186.359C13.1548 186.903 15.4676 187.969 16.7934 188.332C19.4801 189.067 24.2235 189.194 26.2756 188.585C27.8402 188.12 29.3926 187.199 30.5295 186.061C31.1166 185.473 31.6194 185.021 31.6468 185.057C31.6742 185.092 31.7809 185.773 31.884 186.571C32.1149 188.358 32.7664 189.795 33.9133 191.045C34.7239 191.928 34.7328 191.95 34.4916 192.432C34.3568 192.701 34.1762 193.622 34.0902 194.478C33.8992 196.383 33.7944 200.853 33.9377 200.995C33.995 201.052 34.0879 199.997 34.1444 198.65C34.2742 195.55 34.5159 193.147 34.7589 192.539L34.9481 192.066L35.2501 192.728C35.416 193.091 35.9761 195.082 36.4945 197.152C37.0129 199.221 37.5028 200.914 37.5831 200.914C37.7924 200.914 37.8162 201.029 36.735 196.789C36.1914 194.656 35.7651 192.893 35.7875 192.871C35.8099 192.848 36.2747 193.049 36.8204 193.316C37.3658 193.583 38.2146 193.877 38.7062 193.968C39.8534 194.181 41.0491 194.181 41.0491 193.968C41.0491 193.877 40.654 193.803 40.171 193.803C38.9569 193.803 37.479 193.392 36.4348 192.764C34.7044 191.723 33.0946 189.816 32.5178 188.124C32.2105 187.222 31.9249 184.94 32.0957 184.75C32.1576 184.681 32.3642 184.104 32.5548 183.467C33.1449 181.496 34.6654 179.287 37.4724 176.324C41.9868 171.557 47.7783 167.607 56.1546 163.579C57.9349 162.724 59.8254 161.761 60.3558 161.441C60.8859 161.12 61.36 160.898 61.409 160.947C61.458 160.995 61.6196 161.766 61.7684 162.66C61.9956 164.023 62.0396 165.781 62.0431 173.627C62.0474 183.014 61.9825 184.494 61.3716 188.924C60.868 192.576 60.0309 196.153 58.9931 199.089C58.6379 200.093 58.4065 200.952 58.4789 200.997C58.6832 201.123 59.8946 197.554 60.5388 194.928C61.9747 189.077 62.4853 183.335 62.4406 173.545C62.4133 167.523 62.274 164.308 61.9515 162.258C61.8407 161.553 61.7392 159.934 61.7257 158.661C61.7121 157.357 61.5987 155.891 61.4663 155.305C61.2541 154.366 61.2672 153.869 61.5999 150.261C61.8394 147.663 62.1096 145.707 62.3699 144.687C63.1162 141.764 64.3029 138.196 64.703 137.674C65.4634 136.681 66.131 134.969 66.5258 133C66.7414 131.924 67.5883 128.811 68.4077 126.083C69.9672 120.89 70.304 119.487 70.6084 116.92C70.7256 115.932 70.9773 114.906 71.2985 114.109C72.4119 111.342 72.6581 110.085 73.0012 105.411C73.4084 99.8616 73.5293 98.7892 74.4029 92.9621C74.994 89.0188 75.1021 85.9637 74.9186 78.3648C74.6618 67.7238 74.29 63.0982 73.1642 56.5433C72.3245 51.6537 70.8909 46.1554 70.374 45.8414C70.2563 45.7699 69.8448 45.1246 69.4599 44.4073C69.0748 43.69 68.2475 42.4249 67.6217 41.5959C65.4757 38.754 59.6259 32.2308 56.3372 29.0132C55.6345 28.3256 55.1586 27.7228 55.1586 27.5202C55.1586 26.9635 54.6897 26.4454 54.1857 26.4454C53.879 26.4454 53.5428 26.2508 53.1577 25.8503C52.8432 25.523 51.3236 24.1279 49.7812 22.7503C46.2527 19.5987 44.7408 17.8786 43.1187 15.1701C41.1596 11.8991 40.0646 10.5549 38.5243 9.53093C37.6805 8.97015 36.5808 7.31311 35.3237 4.70832C34.4473 2.89219 34.12 2.38648 33.407 1.74798C32.5047 0.939635 32.2792 0.850995 31.9526 1.17645ZM32.4174 1.38168C32.4174 1.42186 32.3427 1.50058 32.2514 1.55681C32.1601 1.61303 32.0854 1.58012 32.0854 1.48388C32.0854 1.38763 32.1601 1.30875 32.2514 1.30875C32.3427 1.30875 32.4174 1.34149 32.4174 1.38168ZM32.8323 2.2183C32.8323 2.47595 32.7485 2.71475 32.6459 2.74882C32.4268 2.82158 32.2333 2.2097 32.3662 1.86457C32.5168 1.47362 32.8323 1.71308 32.8323 2.2183ZM35.1634 5.07925C35.7515 6.28912 36.4948 7.6207 36.815 8.03843C37.1353 8.45633 37.3972 8.89259 37.3972 9.00818C37.3972 9.12378 37.7732 9.44874 38.2327 9.73037C39.41 10.4522 40.5225 11.6738 41.7416 13.5832C42.3194 14.4881 43.2208 15.8928 43.7448 16.705C44.7886 18.3218 46.5377 20.2233 49.0998 22.5264C51.0411 24.2714 52.9957 26.1122 53.2919 26.4744C53.4648 26.6859 53.4129 26.8379 52.9846 27.3727C52.7011 27.7267 52.2804 28.3863 52.0499 28.8381L51.6304 29.6596L51.3041 28.59C50.9399 27.3963 50.5833 26.9331 49.5737 26.3414C48.766 25.8681 47.2387 25.7297 46.4024 26.054C45.9043 26.2472 45.8629 26.2381 45.8629 25.9343C45.8629 25.1605 44.9719 23.9648 44.395 23.9648C44.3061 23.9648 43.5619 24.523 42.7412 25.2051C41.9205 25.8873 41.2126 26.4454 41.1678 26.4454C41.1231 26.4454 40.6505 25.9078 40.1175 25.2508C37.3869 21.8836 35.0648 20.2363 31.6659 19.255C28.9364 18.467 28.7922 18.3233 26.3619 13.972C24.886 11.3295 24.4508 10.2025 24.447 9.01397C24.4431 7.81601 24.9688 4.93885 25.1841 4.9787C25.626 5.06056 26.0989 4.71973 26.3273 4.15515C26.5647 3.5684 26.5797 3.55947 26.6646 3.95472C26.7136 4.1821 26.7986 5.12754 26.8535 6.05561C26.988 8.32122 27.2662 9.51654 28.1101 11.4534C28.7602 12.9452 29.1136 13.42 29.3778 13.1569C29.4328 13.102 29.0561 12.1379 28.5407 11.0143C28.0253 9.89078 27.6035 8.74507 27.6035 8.4684C27.6035 7.23704 28.4322 5.81979 29.5271 5.17881C30.6283 4.53418 31.4798 4.74751 30.7956 5.49665C29.8262 6.55802 29.8426 7.48642 30.8688 9.61874C31.2956 10.5056 31.7439 11.2311 31.8651 11.2311C32.2105 11.2311 32.1257 10.88 31.5854 10.0735C30.724 8.78774 30.4256 7.78359 30.6233 6.8375C30.8052 5.96681 31.4569 4.94695 31.8312 4.94695C31.9647 4.94695 32.2095 5.40735 32.4248 6.06322C32.9834 7.76441 33.8027 9.4231 34.4412 10.1451C35.1236 10.9171 35.421 10.71 34.8057 9.89144C34.0483 8.88382 33.576 7.77963 32.9889 5.64235C32.6715 4.48672 32.3677 3.40171 32.3138 3.23121C32.2509 3.03193 32.2802 2.96066 32.3961 3.0321C32.7234 3.23369 33.247 2.80885 33.2533 2.33654L33.2593 1.88755L33.6766 2.38367C33.9062 2.65654 34.5751 3.86955 35.1634 5.07925ZM26.0782 3.75081C26.1077 3.94926 25.9645 4.26462 25.7462 4.48209L25.3626 4.86427L25.3098 4.31605C25.2246 3.43263 25.9519 2.89782 26.0782 3.75081ZM44.8022 24.4221C45.1066 24.6227 45.5309 25.5713 45.5309 26.051C45.5309 26.3747 45.2529 26.7884 44.535 27.5334C43.5959 28.5075 43.3423 28.926 43.6909 28.926C43.7745 28.926 44.2684 28.4433 44.7883 27.8533C45.7632 26.7471 46.6036 26.1147 47.0988 26.1147C47.2548 26.1147 47.5903 26.3217 47.8442 26.5748C48.5494 27.2773 48.3806 27.8628 47.0591 29.2975C45.5655 30.9188 46.0537 30.9915 47.6321 29.3828C48.9846 28.0046 49.1416 27.52 48.4999 26.7071C48.034 26.1168 48.2053 25.9981 49.0045 26.3573C50.2565 26.9197 51.1748 28.2746 51.1748 29.5594C51.1748 29.9904 50.3591 30.8616 48.3909 32.5326C47.1432 33.592 46.9444 34.2312 48.1454 33.322C48.5789 32.9937 49.4043 32.4572 49.9791 32.13C50.9795 31.5603 51.0591 31.4663 51.8306 29.9409C52.274 29.0644 52.8863 28.0123 53.1916 27.603L53.7465 26.8589L53.83 27.5204C53.8969 28.0494 53.9884 28.1924 54.2872 28.2348C54.7524 28.3006 54.7516 28.3343 54.2402 30.249C53.2892 33.8088 53.0661 34.0321 47.6485 36.8443C45.436 37.9929 45.2267 38.0239 42.5827 37.5922C40.4867 37.2502 38.2707 37.3445 37.1875 37.8218C36.755 38.0124 35.9784 38.5633 35.4622 39.0459C34.9036 39.5679 34.6384 39.7452 34.8073 39.4839C35.0027 39.1815 35.0344 39.0093 34.9089 38.9321C34.6171 38.7525 33.908 39.3181 33.5986 39.9776C33.4396 40.3164 31.8822 42.0098 30.0745 43.8096C25.794 48.0714 24.4792 49.6368 18.6861 57.3702C12.2314 65.9869 13.0164 65.0699 12.1466 65.0089C11.6913 64.977 11.2949 65.0498 11.087 65.2034C10.7628 65.443 10.7663 65.4531 11.2354 65.6314C11.5883 65.7657 11.8674 65.7643 12.287 65.6263C12.8137 65.4531 12.8972 65.4753 13.3575 65.9107C13.9333 66.4553 14.2577 67.0576 15.5711 70.0212C17.8998 75.2768 20.9071 81.431 21.8614 82.8943C22.5837 84.002 23.5997 85.0176 25.8652 86.8967C27.7257 88.4398 30.0146 90.755 30.4133 91.4972C30.6087 91.8607 30.5776 91.9763 30.0982 92.6704C29.3855 93.7026 28.0768 96.3577 27.5273 97.8866C26.4982 100.75 25.9389 103.783 25.5304 108.718C25.2409 112.213 25.0859 113.272 24.5978 115.08C24.234 116.429 23.4913 117.939 23.2616 117.798C22.9741 117.621 22.461 116.411 21.543 113.748C20.3932 110.411 18.5148 106.715 13.902 98.7134C8.69008 89.6726 6.37727 84.8613 4.64096 79.4475C4.01135 77.4842 3.17307 74.2639 2.87594 72.6672C1.91135 67.4839 1.29136 62.2402 1.59812 61.8589C1.69738 61.7354 1.79947 60.8855 1.82503 59.9702L1.87151 58.3062L2.77187 57.1353C7.83238 50.5538 16.734 42.4223 26.6905 35.2858C28.06 34.3043 29.8365 32.9368 30.6384 32.2472C35.3568 28.1888 36.0067 27.8051 38.5055 27.6029C39.4024 27.5303 40.3228 27.3929 40.5511 27.2974C40.7793 27.202 41.7131 26.4883 42.626 25.7113C44.2881 24.2969 44.4589 24.1957 44.8022 24.4221ZM54.6301 27.2392C54.6588 27.434 54.6082 27.7259 54.5172 27.8877C54.369 28.1516 54.3341 28.1351 54.1789 27.7286C53.9865 27.2243 54.1024 26.729 54.3906 26.8235C54.4935 26.8572 54.6012 27.0443 54.6301 27.2392ZM57.6617 30.7878C63.7623 37.1418 67.9278 42.094 69.16 44.4579C69.6599 45.417 69.7363 45.7327 69.8047 47.1227C69.8772 48.598 70.0852 49.3666 70.4814 49.6236C70.752 49.7992 71.0702 49.5977 71.1318 49.2115C71.2047 48.7556 72.117 52.4641 72.6556 55.4054C74.0646 63.0995 74.5943 70.3539 74.6326 82.486C74.6517 88.5293 74.6097 89.9959 74.3737 91.5197C73.3176 98.3384 73.1697 99.6481 72.5886 107.335C72.4948 108.576 72.2762 110.139 72.1029 110.808C71.698 112.372 70.7686 114.92 70.6033 114.92C70.3953 114.92 69.106 111.538 68.6907 109.902C68.4792 109.069 68.1482 107.181 67.9555 105.705C66.7787 96.7025 62.7031 89.2923 58.0755 87.7421C57.6255 87.5914 57.1213 87.4681 56.955 87.4681C56.7887 87.4681 56.6526 87.4386 56.6526 87.4027C56.6526 86.9602 57.6173 84.5214 58.659 82.3314C59.3767 80.8221 60.0865 79.0721 60.2364 78.4425C60.5198 77.2515 60.5163 75.6809 60.2047 64.0678C60.1237 61.0524 60.1579 59.8544 60.3695 58.2867C60.5163 57.1988 60.6364 55.8904 60.6364 55.3788C60.6364 54.258 60.7442 54.1098 61.1685 54.6471C61.9252 55.6055 62.2712 54.626 61.6339 53.3295C61.3004 52.6508 61.1001 52.4153 58.8039 50.0013C57.1984 48.3139 54.8379 45.3639 52.7195 42.3981C50.8084 39.7226 49.0417 37.1208 48.9182 36.8006C48.8615 36.6529 49.3767 36.2783 50.449 35.6875C52.7321 34.4293 53.5022 33.6357 54.0468 31.9795C54.285 31.2551 54.6074 30.123 54.7634 29.4635C54.9194 28.804 55.0907 28.2652 55.1443 28.2659C55.1978 28.2665 56.3307 29.4015 57.6617 30.7878ZM50.9684 30.9518C50.8326 31.1566 50.4688 31.4676 50.1597 31.6434C49.6444 31.9365 49.6597 31.9062 50.3448 31.2781C51.2038 30.4905 51.3119 30.4341 50.9684 30.9518ZM50.1147 39.2205C53.7176 44.4651 56.3256 47.824 58.9904 50.6521L60.3735 52.1199L60.3675 54.1249C60.3644 55.2276 60.2276 57.1717 60.0636 58.4451C59.752 60.8633 59.7724 64.5652 60.135 71.4269C60.2143 72.9276 60.2178 75.123 60.1428 76.3054C59.9879 78.7493 59.8244 79.278 58.0818 82.9721C57.4945 84.217 56.8167 85.8848 56.5756 86.6781C56.3345 87.4715 56.0638 88.1659 55.974 88.2213C55.725 88.3746 54.2271 87.3487 53.6618 86.6376C52.8018 85.5559 51.4963 82.3785 50.9342 79.9998L50.7131 79.0638L51.2896 78.5115C52.0398 77.7926 52.193 77.4918 52.317 76.4946C52.4195 75.6692 52.4212 75.6674 53.5223 75.1122C54.974 74.3804 55.5295 73.59 55.6274 72.1168C55.6657 71.5402 55.7811 71.0452 55.8842 71.0144C55.9873 70.9835 56.2791 70.9131 56.5329 70.8575C56.8455 70.7892 57.0832 70.5704 57.2707 70.1786C57.5123 69.6741 57.5212 69.4738 57.3408 68.6038C57.2271 68.0554 57.0669 67.0197 56.9847 66.302C56.7545 64.2902 56.1382 63.3329 54.6523 62.678C53.9352 62.362 53.8836 62.292 53.5176 61.1402C52.2033 57.005 49.3121 52.7846 46.1856 50.4376C43.5486 48.4579 40.8788 47.4883 37.6374 47.333C34.4659 47.1811 32.1571 47.7594 29.8127 49.293C29.2092 49.6879 28.0729 50.346 27.288 50.7553C26.1469 51.3501 25.794 51.6251 25.5286 52.126C25.2753 52.604 24.9421 52.8787 24.1236 53.2836C22.4026 54.1353 21.5213 55.5294 21.1149 58.0436C20.9136 59.2888 21.1571 61.5475 21.645 62.9599C22.0434 64.1136 22.0394 64.3426 21.6006 65.5614C21.1749 66.7445 21.2378 67.1183 22.0385 68.1629C22.7123 69.042 22.751 69.1742 22.2917 69.029C22.0354 68.9479 21.9597 68.9992 21.9597 69.254C21.9597 69.638 22.3757 70.1039 22.7184 70.1039C23.0297 70.1039 23.0254 70.1442 22.5407 71.7576C22.0668 73.335 22.012 74.6766 22.3782 75.7385C22.5171 76.1412 23.2626 77.3112 24.035 78.3381C25.6036 80.4245 26.6263 82.0901 27.2694 83.6061C27.8454 84.9643 27.9913 85.1117 29.0689 85.4237C30.0078 85.6958 32.2862 85.7766 33.2243 85.5714C33.6821 85.4712 33.7669 85.5243 34.1721 86.1638C34.7912 87.1409 35.0665 87.8463 35.3418 89.1625C35.671 90.7347 35.4713 91.395 34.3079 92.5827L33.4054 93.5042L33.0359 93.0613C32.8327 92.8177 32.4648 92.5687 32.2187 92.508C31.9723 92.4474 31.6531 92.2187 31.5094 92.0001C31.3654 91.7813 31.1561 91.5979 31.0441 91.5923C30.932 91.5867 30.4296 91.0543 29.9274 90.4092C28.9904 89.2053 27.8659 88.1441 25.1206 85.8729C24.2571 85.1585 23.1885 84.1275 22.7462 83.5818C21.6358 82.2123 19.0355 77.011 15.1514 68.391C14.6576 67.2949 14.0238 66.1723 13.7149 65.8459C13.4108 65.5247 13.162 65.2419 13.162 65.2176C13.162 64.9977 24.2813 50.4812 25.7583 48.7729C28.1855 45.9656 33.1275 41.0667 33.9596 40.6434C34.3055 40.4672 35.1126 39.8443 35.753 39.2589C36.6064 38.4786 37.1444 38.1272 37.7684 37.9427C38.845 37.6242 40.868 37.6217 42.792 37.9365C45.0818 38.3114 45.4854 38.2732 46.8776 37.5501C47.5521 37.1998 48.192 36.9021 48.2999 36.8886C48.4076 36.875 49.2243 37.9245 50.1147 39.2205ZM34.406 39.5966C34.2904 39.7351 34.1618 39.8145 34.12 39.773C34.0049 39.6582 34.2388 39.3445 34.4393 39.3445C34.5496 39.3445 34.5369 39.4394 34.406 39.5966ZM70.51 47.6615C70.666 48.236 70.7663 48.8879 70.7327 49.1105L70.6718 49.515L70.4569 49.1329C70.2268 48.7243 69.9209 46.4291 70.1121 46.5468C70.1748 46.5855 70.3539 47.0871 70.51 47.6615ZM39.8156 47.8634C44.7582 48.8163 49.1294 52.4872 51.8245 57.949C52.713 59.7496 53.6212 62.1104 53.4743 62.2379C53.4421 62.2659 52.5869 62.3649 51.5738 62.458C48.9816 62.6962 47.7078 63.4361 46.7243 65.2743C45.6237 67.3317 45.6529 69.9723 46.8016 72.2599C47.4938 73.6384 48.4255 74.4846 49.6376 74.8357C50.5953 75.113 51.2325 75.0457 52.1707 74.568C52.4903 74.4053 53.1839 74.0715 53.7123 73.8266C55.0688 73.1974 55.6033 72.2537 54.603 72.2537C54.3788 72.2537 53.9112 72.5794 53.4157 73.0806C52.7359 73.7682 52.4977 73.9075 52.0021 73.9075C50.6125 73.9075 48.9366 72.5752 48.1787 70.8684C46.9266 68.0483 48.0295 64.6922 50.6809 63.2546C51.4327 62.847 51.6397 62.806 52.4416 62.9057C53.0327 62.9793 53.4291 62.9537 53.5759 62.8323C54.0506 62.4397 55.7112 63.4824 56.2512 64.512C56.4504 64.8918 56.8192 66.8933 57.1067 69.1552C57.201 69.8964 56.8109 70.6 56.3058 70.6C55.5504 70.6 55.3246 70.8883 55.3246 71.8527C55.3246 73.4221 54.5446 74.4795 52.9554 75.0643C52.2341 75.3297 52.149 75.482 51.9255 76.9047C51.808 77.6537 51.0579 78.4567 50.0364 78.9272C49.3412 79.2474 48.9816 79.2821 46.3609 79.2821C43.2243 79.2821 42.4894 79.1587 40.8781 78.3623C39.593 77.7268 38.7261 76.8228 37.8779 75.2329C37.0001 73.5875 36.5222 73.1573 33.6749 71.45C30.9724 69.8295 30.7481 69.7159 29.3808 69.2759C28.7698 69.0792 28.2275 68.8502 28.1759 68.7669C28.1242 68.6837 27.8396 68.6155 27.5433 68.6155C26.0432 68.6155 23.576 66.5542 22.5618 64.4531C21.1518 61.5326 20.9509 58.0249 22.0663 55.7991C22.6519 54.6306 23.3783 53.9301 24.5585 53.3956C25.2603 53.0778 25.6174 52.812 25.6986 52.5469C25.8884 51.9269 26.284 51.583 27.5205 50.9626C28.1596 50.642 29.0933 50.1025 29.5954 49.7639C32.6232 47.7218 35.9102 47.1106 39.8156 47.8634ZM61.4501 53.5912C61.5504 53.8777 61.6324 54.2646 61.6324 54.4512C61.6324 55.0146 61.2769 54.5081 61.1369 53.7452C60.9904 52.9469 61.1904 52.8487 61.4501 53.5912ZM1.49636 60.5536C1.45968 60.8493 1.42947 60.6074 1.42947 60.0161C1.42947 59.4249 1.45968 59.183 1.49636 59.4787C1.53321 59.7744 1.53321 60.2579 1.49636 60.5536ZM49.9064 63.3788C46.8433 65.4725 46.4864 70.3037 49.2074 72.8393C50.034 73.6098 51.1577 74.226 51.7557 74.2371C52.2643 74.2465 51.7395 74.5286 50.9731 74.6576C49.4984 74.9058 47.7906 73.7426 46.9568 71.9222C45.3995 68.5221 46.4137 64.6466 49.2261 63.2503C50.4807 62.6276 50.8921 62.7051 49.9064 63.3788ZM22.8406 65.5474C23.4958 66.5805 25.1006 68.0111 26.1698 68.515C27.0675 68.938 27.074 68.9463 26.9895 69.5735C26.9206 70.0854 27.0315 70.4556 27.572 71.5192C28.5077 73.3603 28.6601 74.0345 28.672 76.3856C28.6815 78.2477 28.7122 78.4559 28.9852 78.5085C29.3245 78.574 29.9274 78.1055 29.9274 77.7765C29.9274 77.6588 30.1824 77.3687 30.494 77.1319C31.015 76.736 31.348 76.2597 31.2039 76.1164C31.0774 75.9902 29.7694 77.3378 29.6082 77.7605C29.4353 78.2133 29.0121 78.3654 28.8953 78.0165C28.8603 77.9116 28.8915 77.3262 28.9647 76.7155C29.1599 75.0867 28.7902 73.2192 27.9469 71.5754C27.0308 69.7895 27.0511 68.9377 28.0041 69.176C28.507 69.3017 29.2439 70.9268 29.4648 72.3978C29.7264 74.1392 29.7623 74.2655 29.9751 74.1957C30.3469 74.0737 30.2855 73.4249 29.7515 71.8358C29.4595 70.9673 29.2673 70.2104 29.324 70.1537C29.381 70.0971 29.5777 70.1862 29.7614 70.352C29.9452 70.5177 30.151 70.5975 30.2189 70.5296C30.3886 70.3601 29.5911 69.7394 29.3312 69.8388C29.216 69.8828 29.0229 69.7993 28.9021 69.6533C27.9499 68.5016 34.8405 72.1722 36.3697 73.6313C36.672 73.9195 37.2314 74.7386 37.6128 75.4514C38.7821 77.6363 40.5237 78.8958 43.1386 79.4476C44.6859 79.7742 48.3686 79.7751 49.4469 79.4493C50.5146 79.1266 50.4567 79.1078 50.59 79.8196C50.8162 81.0281 51.7192 83.6006 52.3968 84.9673C53.2422 86.6724 53.9995 87.5471 55.2645 88.2794C57.1595 89.3763 57.4367 89.5976 58.0101 90.4714C58.8254 91.7138 59.1213 92.5601 59.4079 94.4706C59.7374 96.6653 59.7432 101.65 59.4185 103.427C58.7677 106.988 57.076 109.261 53.8307 110.936C50.9742 112.41 48.6146 112.85 44.25 112.722C40.8145 112.622 39.909 112.45 37.9725 111.528C34.4599 109.857 32.9389 106.732 32.6463 100.582C32.5301 98.1374 32.6893 96.6838 33.2853 94.7496C33.5465 93.9024 33.7646 93.5488 34.3336 93.0497C34.7288 92.7033 35.2062 92.1713 35.3946 91.8675C36.096 90.737 35.6944 88.0111 34.5652 86.2382C34.2793 85.7892 34.0167 85.1975 33.982 84.9235C33.91 84.3574 33.3717 83.7338 33.0996 83.9013C32.9723 83.9797 32.992 84.1887 33.1658 84.6031C33.3019 84.9276 33.4133 85.2153 33.4133 85.2426C33.4133 85.4202 31.1367 85.4756 30.1796 85.3212C28.3754 85.0301 28.306 84.9706 27.1905 82.7534C26.126 80.6378 25.6826 79.9461 24.232 78.138C22.3541 75.7972 22.0405 74.3123 22.8748 71.71C23.4116 70.0353 23.3962 69.6688 22.7482 68.7037C22.4514 68.2618 22.0784 67.7076 21.919 67.4723C21.7598 67.237 21.629 66.8593 21.6285 66.6329C21.6277 66.2161 22.1388 64.8134 22.2917 64.813C22.3373 64.8126 22.5843 65.1432 22.8406 65.5474ZM12.0415 65.4176C11.9275 65.4635 11.7407 65.4635 11.6265 65.4176C11.5125 65.3717 11.6058 65.3342 11.834 65.3342C12.0623 65.3342 12.1557 65.3717 12.0415 65.4176ZM22.9557 69.7002C22.9557 69.8419 22.881 69.9121 22.7897 69.8558C22.6984 69.7996 22.6237 69.6837 22.6237 69.598C22.6237 69.5124 22.6984 69.4424 22.7897 69.4424C22.881 69.4424 22.9557 69.5585 22.9557 69.7002ZM54.8266 72.6662C54.8266 72.8053 53.4595 73.7424 53.2663 73.7358C53.0183 73.7274 54.3577 72.5901 54.6191 72.587C54.7333 72.5856 54.8266 72.6212 54.8266 72.6662ZM58.8105 88.3378C60.2095 88.9863 62.2064 90.9905 63.4449 92.9889C65.3678 96.0914 67.0156 100.793 67.5332 104.654C68.1714 109.414 68.7101 111.579 69.8819 114.093C70.4356 115.281 70.4557 115.389 70.3558 116.656C70.1893 118.768 69.6871 120.9 68.1822 125.883C67.4074 128.448 66.5789 131.478 66.341 132.615C65.4317 136.963 64.4327 138.304 60.8249 140.018C55.9275 142.346 44.8841 142.655 36.5204 140.698C32.3231 139.717 27.9171 137.664 26.5214 136.039C25.6307 135.003 25.501 134.37 25.832 132.675C26.0684 131.464 26.0837 130.908 25.9371 128.836C25.6934 125.392 25.5337 124.584 24.5995 122.07C23.4941 119.096 23.3175 118.323 23.6553 117.941C24.7247 116.729 25.4569 113.747 25.7777 109.297C26.2231 103.121 27.2035 98.831 28.9698 95.3304C29.612 94.0575 30.8902 91.9331 31.0137 91.9331C31.0471 91.9331 31.261 92.1192 31.4893 92.3466C31.7175 92.574 32.0108 92.76 32.1411 92.76C32.2714 92.76 32.5691 93.0097 32.8028 93.3148L33.2276 93.8697L32.908 94.8922C31.9929 97.8217 32.1224 102.846 33.2023 106.308C33.7485 108.059 34.9529 109.898 36.1376 110.789C37.1889 111.58 38.8681 112.357 40.2619 112.697C41.6953 113.046 46.2399 113.194 48.0675 112.951C53.5955 112.214 57.8348 109.412 59.1264 105.641C59.9169 103.333 60.1833 99.3304 59.7982 95.5475C59.5837 93.442 59.2511 92.1051 58.6721 91.0236C58.1596 90.0662 56.7933 88.6257 56.3976 88.6257C56.2401 88.6257 56.1674 88.5392 56.2236 88.419C56.2769 88.3053 56.3669 88.0803 56.4238 87.9192C56.5621 87.5274 57.3674 87.6687 58.8105 88.3378ZM25.9734 126.536C26.0061 126.764 26.3328 127.106 26.8245 127.426C27.685 127.986 29.9342 128.925 30.8032 129.086C31.6115 129.237 31.1658 128.91 30.1052 128.574C28.3397 128.016 25.6751 126.496 26.4628 126.496C26.588 126.496 27.1578 126.717 27.7292 126.986C30.703 128.387 34.0084 129.324 37.3962 129.724C40.3016 130.067 44.2045 130.029 44.2025 129.658C44.2021 129.602 42.6521 129.552 40.7581 129.547C37.8721 129.54 37.0184 129.479 35.4883 129.169C33.0277 128.671 30.7765 127.966 28.5105 126.983C26.376 126.057 25.8928 125.972 25.9734 126.536ZM26.6075 132.437C26.6075 132.719 28.175 133.932 29.3094 134.528C31.5583 135.708 35.0656 136.569 40.3021 137.224C45.9851 137.935 53.2311 138.087 57.0274 137.575C58.6785 137.352 62.1347 136.485 62.3671 136.235C62.5004 136.091 62.4408 136.071 62.1304 136.156C57.6829 137.365 55.9858 137.576 50.7098 137.575C41.9861 137.573 33.4294 136.291 29.7614 134.436C28.8598 133.98 27.8465 133.287 27.2373 132.71C26.7591 132.257 26.6075 132.191 26.6075 132.437ZM26.1202 136.02C27.5535 137.926 32.3335 140.112 37.2664 141.115C41.5315 141.982 42.9749 142.116 48.1039 142.12C55.7552 142.126 59.6133 141.372 62.8067 139.248C63.3685 138.874 63.8481 138.568 63.8725 138.568C63.8971 138.568 63.6321 139.455 63.2839 140.538C62.1095 144.191 61.6681 146.345 61.3489 149.979L61.0511 153.369L58.9704 153.353C55.0853 153.322 51.1298 152.618 45.1159 150.887C36.3757 148.372 29.4457 145.536 23.7559 142.145L22.1494 141.188L23.116 139.721C23.6475 138.915 24.4079 137.582 24.8055 136.76C25.2032 135.939 25.5334 135.265 25.5392 135.264C25.545 135.262 25.8065 135.602 26.1202 136.02ZM23.7119 142.468C27.9672 145.018 33.8572 147.596 40.0531 149.62C48.1095 152.253 53.4022 153.408 58.1555 153.57L60.9032 153.664L61.1861 155.335C61.3414 156.255 61.4683 157.767 61.4676 158.695L61.4664 160.382L60.7609 160.864C60.373 161.129 58.0386 162.348 55.5736 163.571C47.3632 167.647 42.8192 170.694 38.1601 175.248C34.893 178.442 32.4399 181.903 32.146 183.734C32.0337 184.434 31.768 184.755 31.4591 184.565C31.3045 184.47 31.319 184.142 31.5221 183.128C31.8455 181.513 31.8882 178.354 31.6048 177.018C29.7503 168.274 26.7264 161.153 20.0745 149.864L17.8525 146.093L18.2701 145.312C18.6615 144.579 21.5143 141.38 21.7756 141.38C21.8413 141.38 22.7126 141.869 23.7119 142.468ZM19.9678 143.726C19.9678 144.359 22.7621 146.259 26.2073 147.969C28.9647 149.338 31.7507 150.533 31.8809 150.403C32.0178 150.267 32.0012 150.258 30.0104 149.403C25.7231 147.561 22.1162 145.528 20.6732 144.14C20.1982 143.682 19.9678 143.547 19.9678 143.726ZM50.6022 155.924C50.8506 156.172 55.5557 156.934 57.4917 157.04C59.2301 157.136 61.1348 157.004 61.1339 156.789C61.1338 156.727 59.7705 156.67 58.1045 156.662C55.5145 156.65 54.7629 156.584 52.9177 156.208C50.4952 155.714 50.377 155.7 50.6022 155.924Z" fill="#B3A394"/>
<path fill-rule="evenodd" clip-rule="evenodd" d="M31.9526 1.17645C31.6672 1.46073 31.7057 2.13363 32.0854 3.49878C32.4816 4.92297 32.4904 5.04783 32.1763 4.78819C32.0437 4.67855 31.7886 4.63522 31.6093 4.69195C31.43 4.74867 31.2353 4.71758 31.1765 4.62299C31.1178 4.52823 30.8846 4.45083 30.658 4.45083C29.5817 4.45083 27.9488 5.88544 27.5607 7.17205L27.3588 7.84098L27.2519 7.34486C27.193 7.072 27.1359 6.22992 27.1251 5.4735C27.1055 4.09479 26.9468 3.55005 26.456 3.17449C26.0893 2.89401 25.3609 2.91353 25.1138 3.21037C24.8734 3.49895 24.1271 7.81022 24.1214 8.94253C24.1151 10.2028 24.6554 11.5653 26.3566 14.5799C28.4982 18.3752 28.812 18.6868 31.2554 19.4447C35.1261 20.6455 36.9201 21.8947 39.8699 25.4428C41.1658 27.0016 41.1045 27.0949 38.6699 27.2703C36.0963 27.4559 34.9818 28.034 31.8404 30.8139C31.1123 31.4582 30.4055 32.089 30.2697 32.2153C30.0269 32.4419 29.211 33.0488 24.7841 36.2967C15.548 43.073 6.7076 51.3236 2.34891 57.2352C1.99236 57.7188 1.545 58.2973 1.3546 58.5207C0.911894 59.0401 0.88816 60.3191 1.25849 63.704C2.19802 72.2948 3.38189 77.4379 5.8748 83.7591C7.55915 88.03 9.37032 91.5103 14.7334 100.781C18.31 106.963 20.1289 110.606 21.2149 113.762C21.7311 115.263 22.366 116.9 22.6258 117.401C22.8854 117.901 23.149 118.571 23.2116 118.889C23.274 119.207 23.6885 120.456 24.1324 121.664C24.5764 122.871 25.0532 124.285 25.1918 124.806C25.5689 126.221 25.8564 131.301 25.6137 132.261C25.5073 132.682 25.3609 133.555 25.2882 134.201C25.187 135.099 24.978 135.727 24.3985 136.869C23.1734 139.286 22.5153 140.187 20.3746 142.382C19.2603 143.525 18.2165 144.716 18.055 145.028C17.8935 145.341 17.4506 146.006 17.0708 146.506C12.373 152.692 8.39278 160.506 6.70511 166.855C5.39591 171.78 5.05529 176.184 5.66681 180.273C6.09956 183.166 6.96107 186.856 8.16404 190.967C10.6315 199.4 11.0967 200.911 11.2246 200.912C11.4228 200.915 11.2628 200.289 9.97753 196.035C6.40333 184.207 5.5883 180.198 5.74218 175.198C5.99715 166.916 9.39456 158.063 15.9479 148.605C17.2054 146.79 17.5701 146.366 17.7257 146.538C17.9818 146.821 20.5552 151.201 22.3707 154.444C26.7808 162.322 29.7591 169.725 31.0791 176.091C31.6119 178.662 31.6692 180.035 31.3342 182.227C31.1744 183.273 31.0321 184.383 31.0182 184.693C30.9631 185.912 27.9984 187.909 25.4456 188.447C23.9282 188.767 19.7058 188.671 17.8928 188.275C16.1602 187.897 14.4469 187.234 13.3082 186.501C12.2737 185.835 11.7988 185.75 12.5159 186.359C13.1548 186.903 15.4676 187.969 16.7934 188.332C19.4801 189.067 24.2235 189.194 26.2756 188.585C27.8402 188.12 29.3926 187.199 30.5295 186.061C31.1166 185.473 31.6194 185.021 31.6468 185.057C31.6742 185.092 31.7809 185.773 31.884 186.571C32.1149 188.358 32.7664 189.795 33.9133 191.045C34.7239 191.928 34.7328 191.95 34.4916 192.432C34.3568 192.701 34.1762 193.622 34.0902 194.478C33.8992 196.383 33.7944 200.853 33.9377 200.995C33.995 201.052 34.0879 199.997 34.1444 198.65C34.2742 195.55 34.5159 193.147 34.7589 192.539L34.9481 192.066L35.2501 192.728C35.416 193.091 35.9761 195.082 36.4945 197.152C37.0129 199.221 37.5028 200.914 37.5831 200.914C37.7924 200.914 37.8162 201.029 36.735 196.789C36.1914 194.656 35.7651 192.893 35.7875 192.871C35.8099 192.848 36.2747 193.049 36.8204 193.316C37.3658 193.583 38.2146 193.877 38.7062 193.968C39.8534 194.181 41.0491 194.181 41.0491 193.968C41.0491 193.877 40.654 193.803 40.171 193.803C38.9569 193.803 37.479 193.392 36.4348 192.764C34.7044 191.723 33.0946 189.816 32.5178 188.124C32.2105 187.222 31.9249 184.94 32.0957 184.75C32.1576 184.681 32.3642 184.104 32.5548 183.467C33.1449 181.496 34.6654 179.287 37.4724 176.324C41.9868 171.557 47.7783 167.607 56.1546 163.579C57.9349 162.724 59.8254 161.761 60.3558 161.441C60.8859 161.12 61.36 160.898 61.409 160.947C61.458 160.995 61.6196 161.766 61.7684 162.66C61.9956 164.023 62.0396 165.781 62.0431 173.627C62.0474 183.014 61.9825 184.494 61.3716 188.924C60.868 192.576 60.0309 196.153 58.9931 199.089C58.6379 200.093 58.4065 200.952 58.4789 200.997C58.6832 201.123 59.8946 197.554 60.5388 194.928C61.9747 189.077 62.4853 183.335 62.4406 173.545C62.4133 167.523 62.274 164.308 61.9515 162.258C61.8407 161.553 61.7392 159.934 61.7257 158.661C61.7121 157.357 61.5987 155.891 61.4663 155.305C61.2541 154.366 61.2672 153.869 61.5999 150.261C61.8394 147.663 62.1096 145.707 62.3699 144.687C63.1162 141.764 64.3029 138.196 64.703 137.674C65.4634 136.681 66.131 134.969 66.5258 133C66.7414 131.924 67.5883 128.811 68.4077 126.083C69.9672 120.89 70.304 119.487 70.6084 116.92C70.7256 115.932 70.9773 114.906 71.2985 114.109C72.4119 111.342 72.6581 110.085 73.0012 105.411C73.4084 99.8616 73.5293 98.7892 74.4029 92.9621C74.994 89.0188 75.1021 85.9637 74.9186 78.3648C74.6618 67.7238 74.29 63.0982 73.1642 56.5433C72.3245 51.6537 70.8909 46.1554 70.374 45.8414C70.2563 45.7699 69.8448 45.1246 69.4599 44.4073C69.0748 43.69 68.2475 42.4249 67.6217 41.5959C65.4757 38.754 59.6259 32.2308 56.3372 29.0132C55.6345 28.3256 55.1586 27.7228 55.1586 27.5202C55.1586 26.9635 54.6897 26.4454 54.1857 26.4454C53.879 26.4454 53.5428 26.2508 53.1577 25.8503C52.8432 25.523 51.3236 24.1279 49.7812 22.7503C46.2527 19.5987 44.7408 17.8786 43.1187 15.1701C41.1596 11.8991 40.0646 10.5549 38.5243 9.53093C37.6805 8.97015 36.5808 7.31311 35.3237 4.70832C34.4473 2.89219 34.12 2.38648 33.407 1.74798C32.5047 0.939635 32.2792 0.850995 31.9526 1.17645ZM32.4174 1.38168C32.4174 1.42186 32.3427 1.50058 32.2514 1.55681C32.1601 1.61303 32.0854 1.58012 32.0854 1.48388C32.0854 1.38763 32.1601 1.30875 32.2514 1.30875C32.3427 1.30875 32.4174 1.34149 32.4174 1.38168ZM32.8323 2.2183C32.8323 2.47595 32.7485 2.71475 32.6459 2.74882C32.4268 2.82158 32.2333 2.2097 32.3662 1.86457C32.5168 1.47362 32.8323 1.71308 32.8323 2.2183ZM35.1634 5.07925C35.7515 6.28912 36.4948 7.6207 36.815 8.03843C37.1353 8.45633 37.3972 8.89259 37.3972 9.00818C37.3972 9.12378 37.7732 9.44874 38.2327 9.73037C39.41 10.4522 40.5225 11.6738 41.7416 13.5832C42.3194 14.4881 43.2208 15.8928 43.7448 16.705C44.7886 18.3218 46.5377 20.2233 49.0998 22.5264C51.0411 24.2714 52.9957 26.1122 53.2919 26.4744C53.4648 26.6859 53.4129 26.8379 52.9846 27.3727C52.7011 27.7267 52.2804 28.3863 52.0499 28.8381L51.6304 29.6596L51.3041 28.59C50.9399 27.3963 50.5833 26.9331 49.5737 26.3414C48.766 25.8681 47.2387 25.7297 46.4024 26.054C45.9043 26.2472 45.8629 26.2381 45.8629 25.9343C45.8629 25.1605 44.9719 23.9648 44.395 23.9648C44.3061 23.9648 43.5619 24.523 42.7412 25.2051C41.9205 25.8873 41.2126 26.4454 41.1678 26.4454C41.1231 26.4454 40.6505 25.9078 40.1175 25.2508C37.3869 21.8836 35.0648 20.2363 31.6659 19.255C28.9364 18.467 28.7922 18.3233 26.3619 13.972C24.886 11.3295 24.4508 10.2025 24.447 9.01397C24.4431 7.81601 24.9688 4.93885 25.1841 4.9787C25.626 5.06056 26.0989 4.71973 26.3273 4.15515C26.5647 3.5684 26.5797 3.55947 26.6646 3.95472C26.7136 4.1821 26.7986 5.12754 26.8535 6.05561C26.988 8.32122 27.2662 9.51654 28.1101 11.4534C28.7602 12.9452 29.1136 13.42 29.3778 13.1569C29.4328 13.102 29.0561 12.1379 28.5407 11.0143C28.0253 9.89078 27.6035 8.74507 27.6035 8.4684C27.6035 7.23704 28.4322 5.81979 29.5271 5.17881C30.6283 4.53418 31.4798 4.74751 30.7956 5.49665C29.8262 6.55802 29.8426 7.48642 30.8688 9.61874C31.2956 10.5056 31.7439 11.2311 31.8651 11.2311C32.2105 11.2311 32.1257 10.88 31.5854 10.0735C30.724 8.78774 30.4256 7.78359 30.6233 6.8375C30.8052 5.96681 31.4569 4.94695 31.8312 4.94695C31.9647 4.94695 32.2095 5.40735 32.4248 6.06322C32.9834 7.76441 33.8027 9.4231 34.4412 10.1451C35.1236 10.9171 35.421 10.71 34.8057 9.89144C34.0483 8.88382 33.576 7.77963 32.9889 5.64235C32.6715 4.48672 32.3677 3.40171 32.3138 3.23121C32.2509 3.03193 32.2802 2.96066 32.3961 3.0321C32.7234 3.23369 33.247 2.80885 33.2533 2.33654L33.2593 1.88755L33.6766 2.38367C33.9062 2.65654 34.5751 3.86955 35.1634 5.07925ZM26.0782 3.75081C26.1077 3.94926 25.9645 4.26462 25.7462 4.48209L25.3626 4.86427L25.3098 4.31605C25.2246 3.43263 25.9519 2.89782 26.0782 3.75081ZM44.8022 24.4221C45.1066 24.6227 45.5309 25.5713 45.5309 26.051C45.5309 26.3747 45.2529 26.7884 44.535 27.5334C43.5959 28.5075 43.3423 28.926 43.6909 28.926C43.7745 28.926 44.2684 28.4433 44.7883 27.8533C45.7632 26.7471 46.6036 26.1147 47.0988 26.1147C47.2548 26.1147 47.5903 26.3217 47.8442 26.5748C48.5494 27.2773 48.3806 27.8628 47.0591 29.2975C45.5655 30.9188 46.0537 30.9915 47.6321 29.3828C48.9846 28.0046 49.1416 27.52 48.4999 26.7071C48.034 26.1168 48.2053 25.9981 49.0045 26.3573C50.2565 26.9197 51.1748 28.2746 51.1748 29.5594C51.1748 29.9904 50.3591 30.8616 48.3909 32.5326C47.1432 33.592 46.9444 34.2312 48.1454 33.322C48.5789 32.9937 49.4043 32.4572 49.9791 32.13C50.9795 31.5603 51.0591 31.4663 51.8306 29.9409C52.274 29.0644 52.8863 28.0123 53.1916 27.603L53.7465 26.8589L53.83 27.5204C53.8969 28.0494 53.9884 28.1924 54.2872 28.2348C54.7524 28.3006 54.7516 28.3343 54.2402 30.249C53.2892 33.8088 53.0661 34.0321 47.6485 36.8443C45.436 37.9929 45.2267 38.0239 42.5827 37.5922C40.4867 37.2502 38.2707 37.3445 37.1875 37.8218C36.755 38.0124 35.9784 38.5633 35.4622 39.0459C34.9036 39.5679 34.6384 39.7452 34.8073 39.4839C35.0027 39.1815 35.0344 39.0093 34.9089 38.9321C34.6171 38.7525 33.908 39.3181 33.5986 39.9776C33.4396 40.3164 31.8822 42.0098 30.0745 43.8096C25.794 48.0714 24.4792 49.6368 18.6861 57.3702C12.2314 65.9869 13.0164 65.0699 12.1466 65.0089C11.6913 64.977 11.2949 65.0498 11.087 65.2034C10.7628 65.443 10.7663 65.4531 11.2354 65.6314C11.5883 65.7657 11.8674 65.7643 12.287 65.6263C12.8137 65.4531 12.8972 65.4753 13.3575 65.9107C13.9333 66.4553 14.2577 67.0576 15.5711 70.0212C17.8998 75.2768 20.9071 81.431 21.8614 82.8943C22.5837 84.002 23.5997 85.0176 25.8652 86.8967C27.7257 88.4398 30.0146 90.755 30.4133 91.4972C30.6087 91.8607 30.5776 91.9763 30.0982 92.6704C29.3855 93.7026 28.0768 96.3577 27.5273 97.8866C26.4982 100.75 25.9389 103.783 25.5304 108.718C25.2409 112.213 25.0859 113.272 24.5978 115.08C24.234 116.429 23.4913 117.939 23.2616 117.798C22.9741 117.621 22.461 116.411 21.543 113.748C20.3932 110.411 18.5148 106.715 13.902 98.7134C8.69008 89.6726 6.37727 84.8613 4.64096 79.4475C4.01135 77.4842 3.17307 74.2639 2.87594 72.6672C1.91135 67.4839 1.29136 62.2402 1.59812 61.8589C1.69738 61.7354 1.79947 60.8855 1.82503 59.9702L1.87151 58.3062L2.77187 57.1353C7.83238 50.5538 16.734 42.4223 26.6905 35.2858C28.06 34.3043 29.8365 32.9368 30.6384 32.2472C35.3568 28.1888 36.0067 27.8051 38.5055 27.6029C39.4024 27.5303 40.3228 27.3929 40.5511 27.2974C40.7793 27.202 41.7131 26.4883 42.626 25.7113C44.2881 24.2969 44.4589 24.1957 44.8022 24.4221ZM54.6301 27.2392C54.6588 27.434 54.6082 27.7259 54.5172 27.8877C54.369 28.1516 54.3341 28.1351 54.1789 27.7286C53.9865 27.2243 54.1024 26.729 54.3906 26.8235C54.4935 26.8572 54.6012 27.0443 54.6301 27.2392ZM57.6617 30.7878C63.7623 37.1418 67.9278 42.094 69.16 44.4579C69.6599 45.417 69.7363 45.7327 69.8047 47.1227C69.8772 48.598 70.0852 49.3666 70.4814 49.6236C70.752 49.7992 71.0702 49.5977 71.1318 49.2115C71.2047 48.7556 72.117 52.4641 72.6556 55.4054C74.0646 63.0995 74.5943 70.3539 74.6326 82.486C74.6517 88.5293 74.6097 89.9959 74.3737 91.5197C73.3176 98.3384 73.1697 99.6481 72.5886 107.335C72.4948 108.576 72.2762 110.139 72.1029 110.808C71.698 112.372 70.7686 114.92 70.6033 114.92C70.3953 114.92 69.106 111.538 68.6907 109.902C68.4792 109.069 68.1482 107.181 67.9555 105.705C66.7787 96.7025 62.7031 89.2923 58.0755 87.7421C57.6255 87.5914 57.1213 87.4681 56.955 87.4681C56.7887 87.4681 56.6526 87.4386 56.6526 87.4027C56.6526 86.9602 57.6173 84.5214 58.659 82.3314C59.3767 80.8221 60.0865 79.0721 60.2364 78.4425C60.5198 77.2515 60.5163 75.6809 60.2047 64.0678C60.1237 61.0524 60.1579 59.8544 60.3695 58.2867C60.5163 57.1988 60.6364 55.8904 60.6364 55.3788C60.6364 54.258 60.7442 54.1098 61.1685 54.6471C61.9252 55.6055 62.2712 54.626 61.6339 53.3295C61.3004 52.6508 61.1001 52.4153 58.8039 50.0013C57.1984 48.3139 54.8379 45.3639 52.7195 42.3981C50.8084 39.7226 49.0417 37.1208 48.9182 36.8006C48.8615 36.6529 49.3767 36.2783 50.449 35.6875C52.7321 34.4293 53.5022 33.6357 54.0468 31.9795C54.285 31.2551 54.6074 30.123 54.7634 29.4635C54.9194 28.804 55.0907 28.2652 55.1443 28.2659C55.1978 28.2665 56.3307 29.4015 57.6617 30.7878ZM50.9684 30.9518C50.8326 31.1566 50.4688 31.4676 50.1597 31.6434C49.6444 31.9365 49.6597 31.9062 50.3448 31.2781C51.2038 30.4905 51.3119 30.4341 50.9684 30.9518ZM50.1147 39.2205C53.7176 44.4651 56.3256 47.824 58.9904 50.6521L60.3735 52.1199L60.3675 54.1249C60.3644 55.2276 60.2276 57.1717 60.0636 58.4451C59.752 60.8633 59.7724 64.5652 60.135 71.4269C60.2143 72.9276 60.2178 75.123 60.1428 76.3054C59.9879 78.7493 59.8244 79.278 58.0818 82.9721C57.4945 84.217 56.8167 85.8848 56.5756 86.6781C56.3345 87.4715 56.0638 88.1659 55.974 88.2213C55.725 88.3746 54.2271 87.3487 53.6618 86.6376C52.8018 85.5559 51.4963 82.3785 50.9342 79.9998L50.7131 79.0638L51.2896 78.5115C52.0398 77.7926 52.193 77.4918 52.317 76.4946C52.4195 75.6692 52.4212 75.6674 53.5223 75.1122C54.974 74.3804 55.5295 73.59 55.6274 72.1168C55.6657 71.5402 55.7811 71.0452 55.8842 71.0144C55.9873 70.9835 56.2791 70.9131 56.5329 70.8575C56.8455 70.7892 57.0832 70.5704 57.2707 70.1786C57.5123 69.6741 57.5212 69.4738 57.3408 68.6038C57.2271 68.0554 57.0669 67.0197 56.9847 66.302C56.7545 64.2902 56.1382 63.3329 54.6523 62.678C53.9352 62.362 53.8836 62.292 53.5176 61.1402C52.2033 57.005 49.3121 52.7846 46.1856 50.4376C43.5486 48.4579 40.8788 47.4883 37.6374 47.333C34.4659 47.1811 32.1571 47.7594 29.8127 49.293C29.2092 49.6879 28.0729 50.346 27.288 50.7553C26.1469 51.3501 25.794 51.6251 25.5286 52.126C25.2753 52.604 24.9421 52.8787 24.1236 53.2836C22.4026 54.1353 21.5213 55.5294 21.1149 58.0436C20.9136 59.2888 21.1571 61.5475 21.645 62.9599C22.0434 64.1136 22.0394 64.3426 21.6006 65.5614C21.1749 66.7445 21.2378 67.1183 22.0385 68.1629C22.7123 69.042 22.751 69.1742 22.2917 69.029C22.0354 68.9479 21.9597 68.9992 21.9597 69.254C21.9597 69.638 22.3757 70.1039 22.7184 70.1039C23.0297 70.1039 23.0254 70.1442 22.5407 71.7576C22.0668 73.335 22.012 74.6766 22.3782 75.7385C22.5171 76.1412 23.2626 77.3112 24.035 78.3381C25.6036 80.4245 26.6263 82.0901 27.2694 83.6061C27.8454 84.9643 27.9913 85.1117 29.0689 85.4237C30.0078 85.6958 32.2862 85.7766 33.2243 85.5714C33.6821 85.4712 33.7669 85.5243 34.1721 86.1638C34.7912 87.1409 35.0665 87.8463 35.3418 89.1625C35.671 90.7347 35.4713 91.395 34.3079 92.5827L33.4054 93.5042L33.0359 93.0613C32.8327 92.8177 32.4648 92.5687 32.2187 92.508C31.9723 92.4474 31.6531 92.2187 31.5094 92.0001C31.3654 91.7813 31.1561 91.5979 31.0441 91.5923C30.932 91.5867 30.4296 91.0543 29.9274 90.4092C28.9904 89.2053 27.8659 88.1441 25.1206 85.8729C24.2571 85.1585 23.1885 84.1275 22.7462 83.5818C21.6358 82.2123 19.0355 77.011 15.1514 68.391C14.6576 67.2949 14.0238 66.1723 13.7149 65.8459C13.4108 65.5247 13.162 65.2419 13.162 65.2176C13.162 64.9977 24.2813 50.4812 25.7583 48.7729C28.1855 45.9656 33.1275 41.0667 33.9596 40.6434C34.3055 40.4672 35.1126 39.8443 35.753 39.2589C36.6064 38.4786 37.1444 38.1272 37.7684 37.9427C38.845 37.6242 40.868 37.6217 42.792 37.9365C45.0818 38.3114 45.4854 38.2732 46.8776 37.5501C47.5521 37.1998 48.192 36.9021 48.2999 36.8886C48.4076 36.875 49.2243 37.9245 50.1147 39.2205ZM34.406 39.5966C34.2904 39.7351 34.1618 39.8145 34.12 39.773C34.0049 39.6582 34.2388 39.3445 34.4393 39.3445C34.5496 39.3445 34.5369 39.4394 34.406 39.5966ZM70.51 47.6615C70.666 48.236 70.7663 48.8879 70.7327 49.1105L70.6718 49.515L70.4569 49.1329C70.2268 48.7243 69.9209 46.4291 70.1121 46.5468C70.1748 46.5855 70.3539 47.0871 70.51 47.6615ZM39.8156 47.8634C44.7582 48.8163 49.1294 52.4872 51.8245 57.949C52.713 59.7496 53.6212 62.1104 53.4743 62.2379C53.4421 62.2659 52.5869 62.3649 51.5738 62.458C48.9816 62.6962 47.7078 63.4361 46.7243 65.2743C45.6237 67.3317 45.6529 69.9723 46.8016 72.2599C47.4938 73.6384 48.4255 74.4846 49.6376 74.8357C50.5953 75.113 51.2325 75.0457 52.1707 74.568C52.4903 74.4053 53.1839 74.0715 53.7123 73.8266C55.0688 73.1974 55.6033 72.2537 54.603 72.2537C54.3788 72.2537 53.9112 72.5794 53.4157 73.0806C52.7359 73.7682 52.4977 73.9075 52.0021 73.9075C50.6125 73.9075 48.9366 72.5752 48.1787 70.8684C46.9266 68.0483 48.0295 64.6922 50.6809 63.2546C51.4327 62.847 51.6397 62.806 52.4416 62.9057C53.0327 62.9793 53.4291 62.9537 53.5759 62.8323C54.0506 62.4397 55.7112 63.4824 56.2512 64.512C56.4504 64.8918 56.8192 66.8933 57.1067 69.1552C57.201 69.8964 56.8109 70.6 56.3058 70.6C55.5504 70.6 55.3246 70.8883 55.3246 71.8527C55.3246 73.4221 54.5446 74.4795 52.9554 75.0643C52.2341 75.3297 52.149 75.482 51.9255 76.9047C51.808 77.6537 51.0579 78.4567 50.0364 78.9272C49.3412 79.2474 48.9816 79.2821 46.3609 79.2821C43.2243 79.2821 42.4894 79.1587 40.8781 78.3623C39.593 77.7268 38.7261 76.8228 37.8779 75.2329C37.0001 73.5875 36.5222 73.1573 33.6749 71.45C30.9724 69.8295 30.7481 69.7159 29.3808 69.2759C28.7698 69.0792 28.2275 68.8502 28.1759 68.7669C28.1242 68.6837 27.8396 68.6155 27.5433 68.6155C26.0432 68.6155 23.576 66.5542 22.5618 64.4531C21.1518 61.5326 20.9509 58.0249 22.0663 55.7991C22.6519 54.6306 23.3783 53.9301 24.5585 53.3956C25.2603 53.0778 25.6174 52.812 25.6986 52.5469C25.8884 51.9269 26.284 51.583 27.5205 50.9626C28.1596 50.642 29.0933 50.1025 29.5954 49.7639C32.6232 47.7218 35.9102 47.1106 39.8156 47.8634ZM61.4501 53.5912C61.5504 53.8777 61.6324 54.2646 61.6324 54.4512C61.6324 55.0146 61.2769 54.5081 61.1369 53.7452C60.9904 52.9469 61.1904 52.8487 61.4501 53.5912ZM1.49636 60.5536C1.45968 60.8493 1.42947 60.6074 1.42947 60.0161C1.42947 59.4249 1.45968 59.183 1.49636 59.4787C1.53321 59.7744 1.53321 60.2579 1.49636 60.5536ZM49.9064 63.3788C46.8433 65.4725 46.4864 70.3037 49.2074 72.8393C50.034 73.6098 51.1577 74.226 51.7557 74.2371C52.2643 74.2465 51.7395 74.5286 50.9731 74.6576C49.4984 74.9058 47.7906 73.7426 46.9568 71.9222C45.3995 68.5221 46.4137 64.6466 49.2261 63.2503C50.4807 62.6276 50.8921 62.7051 49.9064 63.3788ZM22.8406 65.5474C23.4958 66.5805 25.1006 68.0111 26.1698 68.515C27.0675 68.938 27.074 68.9463 26.9895 69.5735C26.9206 70.0854 27.0315 70.4556 27.572 71.5192C28.5077 73.3603 28.6601 74.0345 28.672 76.3856C28.6815 78.2477 28.7122 78.4559 28.9852 78.5085C29.3245 78.574 29.9274 78.1055 29.9274 77.7765C29.9274 77.6588 30.1824 77.3687 30.494 77.1319C31.015 76.736 31.348 76.2597 31.2039 76.1164C31.0774 75.9902 29.7694 77.3378 29.6082 77.7605C29.4353 78.2133 29.0121 78.3654 28.8953 78.0165C28.8603 77.9116 28.8915 77.3262 28.9647 76.7155C29.1599 75.0867 28.7902 73.2192 27.9469 71.5754C27.0308 69.7895 27.0511 68.9377 28.0041 69.176C28.507 69.3017 29.2439 70.9268 29.4648 72.3978C29.7264 74.1392 29.7623 74.2655 29.9751 74.1957C30.3469 74.0737 30.2855 73.4249 29.7515 71.8358C29.4595 70.9673 29.2673 70.2104 29.324 70.1537C29.381 70.0971 29.5777 70.1862 29.7614 70.352C29.9452 70.5177 30.151 70.5975 30.2189 70.5296C30.3886 70.3601 29.5911 69.7394 29.3312 69.8388C29.216 69.8828 29.0229 69.7993 28.9021 69.6533C27.9499 68.5016 34.8405 72.1722 36.3697 73.6313C36.672 73.9195 37.2314 74.7386 37.6128 75.4514C38.7821 77.6363 40.5237 78.8958 43.1386 79.4476C44.6859 79.7742 48.3686 79.7751 49.4469 79.4493C50.5146 79.1266 50.4567 79.1078 50.59 79.8196C50.8162 81.0281 51.7192 83.6006 52.3968 84.9673C53.2422 86.6724 53.9995 87.5471 55.2645 88.2794C57.1595 89.3763 57.4367 89.5976 58.0101 90.4714C58.8254 91.7138 59.1213 92.5601 59.4079 94.4706C59.7374 96.6653 59.7432 101.65 59.4185 103.427C58.7677 106.988 57.076 109.261 53.8307 110.936C50.9742 112.41 48.6146 112.85 44.25 112.722C40.8145 112.622 39.909 112.45 37.9725 111.528C34.4599 109.857 32.9389 106.732 32.6463 100.582C32.5301 98.1374 32.6893 96.6838 33.2853 94.7496C33.5465 93.9024 33.7646 93.5488 34.3336 93.0497C34.7288 92.7033 35.2062 92.1713 35.3946 91.8675C36.096 90.737 35.6944 88.0111 34.5652 86.2382C34.2793 85.7892 34.0167 85.1975 33.982 84.9235C33.91 84.3574 33.3717 83.7338 33.0996 83.9013C32.9723 83.9797 32.992 84.1887 33.1658 84.6031C33.3019 84.9276 33.4133 85.2153 33.4133 85.2426C33.4133 85.4202 31.1367 85.4756 30.1796 85.3212C28.3754 85.0301 28.306 84.9706 27.1905 82.7534C26.126 80.6378 25.6826 79.9461 24.232 78.138C22.3541 75.7972 22.0405 74.3123 22.8748 71.71C23.4116 70.0353 23.3962 69.6688 22.7482 68.7037C22.4514 68.2618 22.0784 67.7076 21.919 67.4723C21.7598 67.237 21.629 66.8593 21.6285 66.6329C21.6277 66.2161 22.1388 64.8134 22.2917 64.813C22.3373 64.8126 22.5843 65.1432 22.8406 65.5474ZM12.0415 65.4176C11.9275 65.4635 11.7407 65.4635 11.6265 65.4176C11.5125 65.3717 11.6058 65.3342 11.834 65.3342C12.0623 65.3342 12.1557 65.3717 12.0415 65.4176ZM22.9557 69.7002C22.9557 69.8419 22.881 69.9121 22.7897 69.8558C22.6984 69.7996 22.6237 69.6837 22.6237 69.598C22.6237 69.5124 22.6984 69.4424 22.7897 69.4424C22.881 69.4424 22.9557 69.5585 22.9557 69.7002ZM54.8266 72.6662C54.8266 72.8053 53.4595 73.7424 53.2663 73.7358C53.0183 73.7274 54.3577 72.5901 54.6191 72.587C54.7333 72.5856 54.8266 72.6212 54.8266 72.6662ZM58.8105 88.3378C60.2095 88.9863 62.2064 90.9905 63.4449 92.9889C65.3678 96.0914 67.0156 100.793 67.5332 104.654C68.1714 109.414 68.7101 111.579 69.8819 114.093C70.4356 115.281 70.4557 115.389 70.3558 116.656C70.1893 118.768 69.6871 120.9 68.1822 125.883C67.4074 128.448 66.5789 131.478 66.341 132.615C65.4317 136.963 64.4327 138.304 60.8249 140.018C55.9275 142.346 44.8841 142.655 36.5204 140.698C32.3231 139.717 27.9171 137.664 26.5214 136.039C25.6307 135.003 25.501 134.37 25.832 132.675C26.0684 131.464 26.0837 130.908 25.9371 128.836C25.6934 125.392 25.5337 124.584 24.5995 122.07C23.4941 119.096 23.3175 118.323 23.6553 117.941C24.7247 116.729 25.4569 113.747 25.7777 109.297C26.2231 103.121 27.2035 98.831 28.9698 95.3304C29.612 94.0575 30.8902 91.9331 31.0137 91.9331C31.0471 91.9331 31.261 92.1192 31.4893 92.3466C31.7175 92.574 32.0108 92.76 32.1411 92.76C32.2714 92.76 32.5691 93.0097 32.8028 93.3148L33.2276 93.8697L32.908 94.8922C31.9929 97.8217 32.1224 102.846 33.2023 106.308C33.7485 108.059 34.9529 109.898 36.1376 110.789C37.1889 111.58 38.8681 112.357 40.2619 112.697C41.6953 113.046 46.2399 113.194 48.0675 112.951C53.5955 112.214 57.8348 109.412 59.1264 105.641C59.9169 103.333 60.1833 99.3304 59.7982 95.5475C59.5837 93.442 59.2511 92.1051 58.6721 91.0236C58.1596 90.0662 56.7933 88.6257 56.3976 88.6257C56.2401 88.6257 56.1674 88.5392 56.2236 88.419C56.2769 88.3053 56.3669 88.0803 56.4238 87.9192C56.5621 87.5274 57.3674 87.6687 58.8105 88.3378ZM25.9734 126.536C26.0061 126.764 26.3328 127.106 26.8245 127.426C27.685 127.986 29.9342 128.925 30.8032 129.086C31.6115 129.237 31.1658 128.91 30.1052 128.574C28.3397 128.016 25.6751 126.496 26.4628 126.496C26.588 126.496 27.1578 126.717 27.7292 126.986C30.703 128.387 34.0084 129.324 37.3962 129.724C40.3016 130.067 44.2045 130.029 44.2025 129.658C44.2021 129.602 42.6521 129.552 40.7581 129.547C37.8721 129.54 37.0184 129.479 35.4883 129.169C33.0277 128.671 30.7765 127.966 28.5105 126.983C26.376 126.057 25.8928 125.972 25.9734 126.536ZM26.6075 132.437C26.6075 132.719 28.175 133.932 29.3094 134.528C31.5583 135.708 35.0656 136.569 40.3021 137.224C45.9851 137.935 53.2311 138.087 57.0274 137.575C58.6785 137.352 62.1347 136.485 62.3671 136.235C62.5004 136.091 62.4408 136.071 62.1304 136.156C57.6829 137.365 55.9858 137.576 50.7098 137.575C41.9861 137.573 33.4294 136.291 29.7614 134.436C28.8598 133.98 27.8465 133.287 27.2373 132.71C26.7591 132.257 26.6075 132.191 26.6075 132.437ZM26.1202 136.02C27.5535 137.926 32.3335 140.112 37.2664 141.115C41.5315 141.982 42.9749 142.116 48.1039 142.12C55.7552 142.126 59.6133 141.372 62.8067 139.248C63.3685 138.874 63.8481 138.568 63.8725 138.568C63.8971 138.568 63.6321 139.455 63.2839 140.538C62.1095 144.191 61.6681 146.345 61.3489 149.979L61.0511 153.369L58.9704 153.353C55.0853 153.322 51.1298 152.618 45.1159 150.887C36.3757 148.372 29.4457 145.536 23.7559 142.145L22.1494 141.188L23.116 139.721C23.6475 138.915 24.4079 137.582 24.8055 136.76C25.2032 135.939 25.5334 135.265 25.5392 135.264C25.545 135.262 25.8065 135.602 26.1202 136.02ZM23.7119 142.468C27.9672 145.018 33.8572 147.596 40.0531 149.62C48.1095 152.253 53.4022 153.408 58.1555 153.57L60.9032 153.664L61.1861 155.335C61.3414 156.255 61.4683 157.767 61.4676 158.695L61.4664 160.382L60.7609 160.864C60.373 161.129 58.0386 162.348 55.5736 163.571C47.3632 167.647 42.8192 170.694 38.1601 175.248C34.893 178.442 32.4399 181.903 32.146 183.734C32.0337 184.434 31.768 184.755 31.4591 184.565C31.3045 184.47 31.319 184.142 31.5221 183.128C31.8455 181.513 31.8882 178.354 31.6048 177.018C29.7503 168.274 26.7264 161.153 20.0745 149.864L17.8525 146.093L18.2701 145.312C18.6615 144.579 21.5143 141.38 21.7756 141.38C21.8413 141.38 22.7126 141.869 23.7119 142.468ZM19.9678 143.726C19.9678 144.359 22.7621 146.259 26.2073 147.969C28.9647 149.338 31.7507 150.533 31.8809 150.403C32.0178 150.267 32.0012 150.258 30.0104 149.403C25.7231 147.561 22.1162 145.528 20.6732 144.14C20.1982 143.682 19.9678 143.547 19.9678 143.726ZM50.6022 155.924C50.8506 156.172 55.5557 156.934 57.4917 157.04C59.2301 157.136 61.1348 157.004 61.1339 156.789C61.1338 156.727 59.7705 156.67 58.1045 156.662C55.5145 156.65 54.7629 156.584 52.9177 156.208C50.4952 155.714 50.377 155.7 50.6022 155.924Z" stroke="#B3A394" mask="url(#path-1-outside-1_63_1477)"/>
</svg>
