<svg width="111" height="267" viewBox="0 0 111 267" fill="none" xmlns="http://www.w3.org/2000/svg">
<mask id="path-1-outside-1_63_1852" maskUnits="userSpaceOnUse" x="0" y="0" width="111" height="267" fill="black">
<rect fill="white" width="111" height="267"/>
<path fill-rule="evenodd" clip-rule="evenodd" d="M54.7607 1.3196C52.4608 1.92908 50.8951 2.87689 48.9343 4.84684C46.8226 6.96803 45.8524 8.68002 45.479 10.9436C45.19 12.6958 45.6128 14.4121 46.6161 15.5602L47.2779 16.3172H46.5998C45.681 16.3172 44.7904 16.8137 44.4794 17.4994C44.0013 18.5533 44.1918 19.4964 45.4468 22.2852C46.7978 25.2879 47.1746 25.6714 48.3401 25.2295C48.9621 24.9936 48.9997 25.0146 49.3419 25.782C49.5827 26.3227 49.6967 27.171 49.6957 28.4161C49.6944 29.9554 49.6 30.4567 49.1122 31.5138C47.9966 33.9316 46.5376 35.1715 42.5018 37.132C41.0233 37.8501 39.3449 38.7247 38.7719 39.0752C37.8725 39.6257 37.7422 39.7924 37.8164 40.3004L37.9024 40.8885L36.0621 41.0125C30.8344 41.3647 24.594 45.1129 21.6402 49.6746C20.0926 52.0648 19.6188 52.6272 17.4464 54.6535C10.8972 60.7624 9.85236 62.1537 7.90599 67.359C6.81775 70.2697 6.61924 70.6383 4.97633 72.8014C1.23006 77.7338 1.00983 80.1391 3.70399 86.7029C6.28545 92.9918 12.1923 102.869 16.33 107.815C18.6379 110.574 21.6557 113.459 23.4573 114.629C24.4809 115.294 24.8663 115.673 24.8663 116.014C24.8663 117.023 26.7408 118.183 30.1193 119.266C32.6246 120.069 32.8244 120.281 32.8212 122.128C32.8184 123.784 32.6479 124.468 31.1103 128.988C28.0319 138.038 25.1818 149.657 23.3726 160.531C21.982 168.89 20.8604 179.843 21.0912 182.809C21.2237 184.509 21.2026 184.619 20.3926 186.482C15.2817 198.233 12.7564 212.015 11.9645 232.478C11.6695 240.101 11.1563 242.624 8.8938 247.576C7.94728 249.647 7.78103 250.219 7.64468 251.873C7.458 254.137 7.438 254.172 4.01046 258.272C2.67941 259.864 1.45631 261.489 1.29222 261.884C0.698197 263.312 1.0251 264.623 2.13378 265.26C2.4381 265.435 4.0253 265.582 6.58547 265.672C8.77379 265.749 10.875 265.881 11.2548 265.965C12.1764 266.17 13.6677 265.444 14.455 264.407C15.2521 263.357 15.5889 262.308 16.053 259.431C16.4332 257.074 16.9244 255.719 18.0241 253.993C18.4422 253.337 18.4968 252.938 18.5252 250.321C18.5497 248.061 18.6661 246.971 19.0293 245.595C20.3625 240.548 22.0902 236.621 25.9416 229.884C32.901 217.709 35.1291 211.928 36.4754 202.553C37.4583 195.709 37.9002 194.119 40.1484 189.335C41.0798 187.353 42.3816 184.443 43.0412 182.869C45.4577 177.103 49.6273 164.771 50.4503 160.955C50.9439 158.666 50.8506 157.821 50.021 157.067C49.4333 156.533 49.4858 156.434 50.3948 156.369C52.0522 156.25 52.4573 155.615 53.4989 151.511L54.1914 148.781L54.745 149.176C55.7741 149.911 57.0121 150.305 58.6646 150.425L60.3103 150.544L60.4572 151.757C60.7633 154.282 61.5367 155.238 63.2733 155.238H64.0155L63.3456 155.839C62.2023 156.865 62.2571 157.724 63.7549 162.26C65.3563 167.109 68.3646 174.981 70.9171 180.999C74.7954 190.144 74.9152 190.634 75.1948 198.489C75.3077 201.66 75.5008 205.16 75.6243 206.267C76.3536 212.813 78.0109 219.298 80.9975 227.291C86.0191 240.731 86.2366 241.67 85.3729 246.196C85.05 247.887 85.0466 248.197 85.3367 249.353C85.6153 250.464 85.6185 250.824 85.3619 252.035C84.9479 253.987 85.0999 255.317 85.8617 256.4C86.8405 257.792 87.6995 258.117 90.8582 258.293C93.9141 258.463 94.07 258.51 96.9141 260.13C99.3527 261.519 101.696 262.343 103.714 262.522C105.097 262.645 105.302 262.603 106.842 261.88C109.35 260.704 110.41 259.405 109.857 258.185C109.717 257.876 108.621 257.081 107.069 256.161C104.372 254.564 103.259 253.747 100.463 251.31C97.992 249.157 97.3068 248.262 96.5308 246.169C95.3671 243.031 94.8709 234.3 95.4826 227.723C96.3181 218.74 96.4108 212.232 95.8226 203.849C95.5277 199.646 95.1509 197.054 94.2191 192.818C93.4061 189.121 92.6177 186.817 91.6264 185.24L91.0442 184.313L91.4352 182.037C91.8901 179.389 92.0591 170.61 91.735 166.473C90.1893 146.742 87.7692 133.013 83.4848 119.67C82.9456 117.991 82.5045 116.527 82.5045 116.416C82.5045 116.306 82.9288 115.915 83.4476 115.548C84.6472 114.699 87.2332 111.48 88.1849 109.652C88.5873 108.879 89.2299 107.23 89.6127 105.987C90.0994 104.406 91.2634 101.84 93.4835 97.4526C97.0423 90.4203 98.3079 87.4023 99.2861 83.6171C100.567 78.6596 100.436 76.7618 98.3703 70.33C96.4394 64.3179 95.0705 61.2234 93.5508 59.436C93.1547 58.9698 92.5379 57.8031 92.1806 56.8434C90.4801 52.2765 88.0313 48.6443 84.7662 45.8458C82.0079 43.4815 79.548 42.4337 76.0146 42.118C74.4995 41.9828 74.3833 41.9387 74.6036 41.5844C74.9784 40.9814 74.499 40.6037 72.9841 40.3086C71.1074 39.943 69.0935 38.8924 67.5895 37.4939L66.3077 36.3019L63.814 36.3358L61.3203 36.3698L63.2559 36.2112C64.3631 36.1204 65.5382 35.8867 66.0017 35.6648C67.8564 34.7768 69.7045 31.8318 70.3568 28.725C70.6497 27.3304 70.6895 26.3785 70.5719 23.6074C70.4461 20.6499 70.4777 20.0545 70.8121 19.0703C71.3315 17.5424 71.2844 15.6425 70.6904 14.1567C70.4293 13.5031 70.042 12.4823 69.8297 11.8882C68.7255 8.79539 68.0704 7.50146 67.4923 7.27137C66.394 6.8343 62.8217 6.34343 60.6751 6.33457C54.9891 6.31102 51.4164 8.80382 49.9286 13.8326L49.609 14.9129L49.6862 13.8784C49.7976 12.3827 50.8865 10.3216 52.2494 9.02678C54.3899 6.99309 57.1998 5.95432 60.5676 5.95173C62.7585 5.95 66.6774 6.44411 67.5089 6.82652C68.1692 7.1305 68.7677 8.00573 69.1615 9.24348C69.5275 10.3935 69.8989 10.0349 69.7398 8.68521C69.5523 7.09464 68.6709 5.46173 67.3826 4.31838C66.0931 3.17375 63.4118 1.8042 61.5044 1.31592C59.8529 0.893112 56.3626 0.895057 54.7607 1.3196ZM61.3749 1.73463C64.0728 2.37371 67.073 4.23521 68.2728 6.01439C69.2127 7.40813 69.3281 7.91758 68.515 7.08297C67.7379 6.28553 67.1308 6.10253 64.1162 5.75707C58.2625 5.08601 54.6809 5.98716 51.8418 8.84509C50.2344 10.4635 49.4464 12.0673 49.1655 14.2919C48.9324 16.14 48.6773 16.6309 48.1091 16.3254C47.251 15.8641 46.341 14.6525 46.0201 13.544C44.7904 9.29426 49.2952 3.23446 54.7874 1.75062C56.3015 1.34142 59.6804 1.33321 61.3749 1.73463ZM65.0328 7.17717C66.2467 7.36751 67.371 7.63045 67.5317 7.76116C67.6923 7.89208 68.1853 8.92286 68.6275 10.0517C69.0694 11.1806 69.7292 12.8334 70.0938 13.7246C70.8784 15.6429 70.9695 17.3368 70.3813 19.0703C70.0475 20.0538 70.0161 20.6514 70.1422 23.6074C70.2577 26.3137 70.2179 27.344 69.9484 28.6321C69.2477 31.9794 67.1198 34.9909 65.0556 35.5568C64.4558 35.7214 63.2968 35.7722 61.8498 35.6974C58.2575 35.5123 55.3457 34.2957 53.0215 32.0094C52.4311 31.4287 51.8792 31.0229 51.7952 31.1076C51.507 31.3982 54.833 34.3397 56.2662 35.0618C58.6993 36.2877 60.3602 36.6781 63.4181 36.7425L66.1613 36.8004L67.3487 37.8908C68.7479 39.1754 70.713 40.1986 72.7365 40.6968C74.2181 41.0615 74.6575 41.4191 73.9646 41.6961C73.7527 41.7808 71.3048 42.1342 68.5251 42.4814C65.7453 42.8286 63.3501 43.1572 63.2021 43.2114C63.0544 43.2657 62.9333 43.5074 62.9333 43.749C62.9333 44.1251 63.0716 44.1878 63.9041 44.1878C64.4381 44.1878 66.5432 43.8352 68.5819 43.4042C71.6905 42.7472 72.7228 42.6199 74.9771 42.6162C77.3065 42.6123 77.8975 42.688 79.4028 43.1814C81.6885 43.9307 83.4568 45.1086 85.7264 47.3933C88.4154 50.1 90.6315 53.5899 91.6481 56.7187C92.0522 57.9621 92.7022 59.1182 93.7132 60.3916C94.6978 61.6317 96.1684 65.014 97.5653 69.2503C99.8556 76.1962 100.081 77.8332 99.2845 81.7571C98.4256 85.9921 96.9964 89.6278 93.5009 96.4721C92.1355 99.1458 90.7491 101.868 90.4201 102.522C90.091 103.175 89.5729 104.585 89.2688 105.654C88.6677 107.767 87.5427 110.268 86.7611 111.229L86.2682 111.835L86.263 110.041C86.2583 108.472 86.1697 108.059 85.5559 106.747C84.1584 103.76 82.4307 102.34 80.6777 102.737C80.2104 102.843 79.7908 102.892 79.745 102.846C79.6992 102.8 79.8717 102.466 80.128 102.105C80.7728 101.195 81.9567 98.5497 82.3587 97.1203C82.9964 94.8524 83.3607 92.2349 83.6747 87.6611C83.9693 83.3723 84.0302 82.9903 84.578 81.9788C84.9012 81.3825 85.5537 80.6079 86.028 80.2573C86.7689 79.71 87.0827 79.6201 88.2531 79.6201C89.7603 79.6201 90.7818 79.2773 91.4212 78.5565C91.7815 78.1506 91.7972 78.0512 91.5288 77.874C91.1126 77.599 90.1599 77.782 88.5178 78.4522C86.9465 79.0936 86.5209 79.0401 84.9516 78.0037C83.5861 77.1016 82.4804 75.7675 81.7128 74.0957C81.2335 73.0515 81.1102 72.4347 81.0466 70.7621C80.964 68.5948 81.0539 68.2096 82.3961 64.9721C83.0301 63.4427 83.0512 62.2743 82.4467 62.1591C81.9686 62.0682 81.6642 62.7788 80.89 65.7929C78.992 73.1803 75.3303 75.5997 67.9971 74.3111C66.4486 74.0391 63.2243 73.1367 61.6975 72.5481C61.5494 72.4911 61.4278 72.5566 61.4278 72.694C61.4278 73.106 66.8338 75.6228 68.6326 76.0482C71.4304 76.7102 75.1062 76.1711 76.7723 74.8545C77.5268 74.2582 77.6719 74.5903 77.6276 76.8115C77.6033 78.0412 77.4085 79.2902 77.0379 80.5924C75.7002 85.2954 75.5709 86.0656 75.6789 88.6943C75.7591 90.6467 75.9525 91.8266 76.5815 94.2036C77.9352 99.3179 78.0225 99.7684 77.9449 101.249C77.8636 102.798 77.2685 103.897 76.2422 104.395C75.9604 104.531 75.2683 104.856 74.704 105.116C72.9144 105.941 71.7511 108.287 72.049 110.47C72.1251 111.029 72.4765 112.088 72.8297 112.824C73.1828 113.559 73.4716 114.245 73.4716 114.348C73.4716 114.451 73.7545 114.984 74.1001 115.531C75.4585 117.683 78.0885 118.323 80.6782 117.132C81.3563 116.82 81.9443 116.565 81.9845 116.565C82.1378 116.565 84.0801 122.892 85.1015 126.719C88.2045 138.347 90.182 150.86 91.2098 165.371C91.735 172.785 91.6148 178.942 90.8726 182.632L90.6427 183.776L89.7717 182.985C88.3286 181.675 86.7551 181.058 84.8703 181.063C83.628 181.065 83.0519 181.175 82.3641 181.541C80.6141 182.471 79.6779 184.185 79.6779 186.458C79.6779 188.592 81.0799 190.368 83.2697 191.007C86.4355 191.932 89.1785 190.077 90.3997 186.187C90.5954 185.563 90.833 185.053 90.9279 185.053C91.1784 185.053 92.166 187.09 92.746 188.802C93.4807 190.972 94.704 196.897 95.0774 200.095C95.2561 201.625 95.5153 205.322 95.6536 208.31C95.9271 214.227 95.7204 221.04 95.0615 227.831C94.5225 233.384 94.8374 241.332 95.742 245.007C96.3667 247.545 97.1732 248.813 99.6147 251.094C102.353 253.651 103.478 254.501 106.748 256.475C109.615 258.207 109.975 258.679 109.226 259.727C108.983 260.068 108.499 260.514 108.151 260.717L107.519 261.088L107.54 260.129C107.575 258.477 106.023 257.554 104.814 258.509C103.809 259.304 104.074 260.789 105.339 261.447C106.167 261.877 105.838 262.175 104.53 262.18C102.46 262.188 99.9416 261.262 95.3202 258.796C93.8949 258.036 93.7184 257.997 91.0137 257.855C87.8412 257.689 87.1797 257.461 86.2256 256.205C85.7118 255.529 85.6254 255.218 85.6389 254.099C85.6477 253.376 85.7344 252.22 85.8316 251.53C85.9516 250.678 85.92 249.905 85.7327 249.121C85.4976 248.137 85.509 247.708 85.8088 246.213C86.2738 243.895 86.2512 241.721 85.7402 239.606C85.3466 237.977 83.7663 233.459 80.827 225.563C78.5425 219.425 76.9256 213.064 76.1596 207.198C75.9733 205.772 75.7303 201.932 75.6197 198.664C75.3533 190.798 75.2014 190.115 72.0602 182.669C67.2689 171.311 62.9333 159.429 62.9333 157.655C62.9333 156.773 63.8039 155.779 64.9287 155.375C65.4281 155.196 66.9497 154.942 68.31 154.81C71.5922 154.492 79.4123 153.194 81.9718 152.541C83.097 152.255 84.766 151.679 85.6804 151.263C87.053 150.637 87.3435 150.418 87.3435 150.009C87.3435 149.196 86.5942 149.294 83.8315 150.469C80.7833 151.766 78.9802 152.22 73.4362 153.087C71.1491 153.445 68.4552 153.936 67.4497 154.179C65.044 154.759 62.7273 154.942 62.0933 154.601C61.4693 154.265 61.0669 153.286 60.8837 151.659L60.7381 150.367L61.9266 149.872C63.4654 149.231 65.084 147.554 65.084 146.6C65.084 145.41 63.5028 145.186 61.9234 146.154C60.9753 146.735 60.5456 147.474 60.38 148.808L60.2389 149.945L58.5926 149.92C57.1467 149.898 56.7819 149.804 55.5982 149.152C54.3048 148.439 54.24 148.363 53.9968 147.278C53.6357 145.668 53.0731 144.52 52.521 144.267C51.898 143.982 51.3196 144.308 51.3196 144.944C51.3196 145.517 52.3087 147.13 53.1174 147.876C53.4299 148.164 53.6854 148.567 53.6854 148.771C53.6854 149.388 52.395 154.179 52.0466 154.856C51.6296 155.666 50.4772 156.161 49.4264 155.982C46.0042 155.398 33.8484 152.64 31.3043 151.871C29.5694 151.346 27.949 150.917 27.7037 150.917C26.7956 150.917 26.8819 151.764 27.8353 152.21C30.3696 153.396 33.4227 154.074 41.4265 155.231C44.7977 155.719 47.9119 156.272 48.3467 156.46C48.7816 156.648 49.4107 157.088 49.7447 157.439C50.8263 158.574 50.5458 160.084 47.5854 169.065C44.6601 177.941 42.9619 182.313 40.0376 188.496C37.6 193.65 37.0525 195.576 36.0412 202.553C34.6878 211.89 32.6515 217.155 25.5119 229.776C21.3056 237.211 20.1498 239.813 18.7953 244.899C18.2191 247.063 18.131 247.764 18.1127 250.328L18.0916 253.272L17.3169 254.433C16.2859 255.978 16.1237 256.456 15.6373 259.394C15.0357 263.026 14.3589 264.421 12.813 265.213C11.9484 265.656 10.6718 265.79 10.6718 265.438C10.6718 265.328 10.8664 265.175 11.1043 265.099C11.5903 264.944 12.1772 263.946 12.1772 263.274C12.1772 262.089 10.3965 261.543 9.44889 262.437C8.9095 262.946 8.78024 264.051 9.17382 264.79C9.38953 265.195 9.2921 265.208 6.07189 265.208C2.80888 265.208 2.73489 265.198 2.0856 264.649C1.58127 264.223 1.42384 263.911 1.42384 263.341C1.42384 262.233 1.87268 261.515 4.64986 258.186C6.03769 256.523 7.3423 254.829 7.54941 254.422C7.7606 254.007 7.99482 252.869 8.08299 251.829C8.21741 250.249 8.4 249.627 9.32436 247.6C11.3494 243.16 12.0577 240.153 12.2768 235.069C12.9341 219.819 13.5218 213.689 15.1041 205.578C16.3203 199.344 18.3637 192.419 20.4999 187.293C21.1178 185.81 21.3211 185.495 21.4482 185.823C21.537 186.053 21.7706 186.692 21.9671 187.242C23.0763 190.348 26.521 191.768 29.5311 190.36C32.1104 189.154 33.1477 185.617 31.6869 183.011C30.7015 181.252 28.3129 180.088 26.3094 180.39C24.9736 180.591 23.2289 181.681 22.4377 182.809C21.7914 183.73 21.7435 183.757 21.548 183.317C21.2957 182.749 21.6581 176.896 22.29 171.334C23.9511 156.712 27.1451 142.151 31.5792 128.988C32.8905 125.095 33.1217 124.183 33.2068 122.567C33.3253 120.316 33.2401 120.309 35.7575 122.779C36.7206 123.724 37.9338 124.704 38.4534 124.957C40.5316 125.968 42.7502 125.968 44.8257 124.959C45.7354 124.517 47.0183 123.065 47.0183 122.479C47.0183 122.321 47.2688 122.027 47.5751 121.826C48.0409 121.519 48.1166 121.333 48.0398 120.686C47.9895 120.261 47.8846 119.768 47.8069 119.59C47.6278 119.178 48.639 118.503 50.2256 117.975C51.5188 117.544 51.7367 117.537 56.5019 117.76C60.0979 117.928 62.6481 117.726 66.0518 117.001C68.7933 116.417 71.3823 115.633 71.4713 115.36C71.6072 114.943 70.474 114.62 68.8731 114.62C68.0111 114.62 65.2814 114.953 62.8075 115.36C60.3336 115.767 56.9725 116.309 55.3384 116.565L52.3677 117.031L50.9295 116.591C48.9481 115.985 47.6633 115.105 45.7498 113.046C41.3762 108.339 41.0805 108.109 37.9226 106.959C36.1784 106.324 36.1765 106.316 36.0214 99.399C35.8597 92.1954 35.5093 89.8214 33.4896 82.2454C31.7654 75.7788 31.0905 71.7209 31.5833 70.7832C32.2898 69.4387 33.3335 69.6293 34.174 71.256C35.3119 73.4586 37.7342 75.2803 40.8888 76.3059C42.2534 76.7497 43.1896 76.8875 45.4145 76.9731C48.7193 77.1001 50.8577 76.6773 53.3628 75.4018C54.9691 74.5838 56.4565 73.4739 56.2391 73.2553C56.1664 73.1825 55.624 73.3141 55.0334 73.5478C49.8858 75.5863 43.8206 74.8303 36.7578 71.2702L33.9174 69.8382L33.6957 68.7338C33.5737 68.1264 33.383 66.6268 33.2718 65.4014C33.0713 63.1927 32.8412 62.5521 32.2489 62.5521C31.9057 62.5521 31.3183 63.7951 31.3183 64.521C31.3183 65.6105 28.434 70.6445 26.1949 73.4627C23.4137 76.9634 21.1163 78.9938 19.1984 79.6461L18.1215 80.0123L17.163 78.9413C15.7568 77.3702 14.1516 76.643 13.5107 77.2868C13.1367 77.6625 13.1771 77.7904 13.9501 78.6747C14.6813 79.5115 16.4635 80.4787 17.2808 80.4822C17.6262 80.4837 17.8886 80.7369 18.2189 81.3874C18.657 82.2501 21.137 88.5523 24.5564 97.4919C27.0965 104.133 28.4056 106.434 30.1182 107.266C30.7103 107.554 32.0205 107.842 33.6748 108.047C35.1151 108.226 36.8176 108.569 37.4579 108.809C39.1679 109.452 41.5485 111.267 43.0595 113.08C44.4246 114.717 47.1727 119.074 46.9695 119.278C46.9067 119.342 46.5393 118.83 46.1531 118.141C44.2138 114.684 41.9076 112.009 39.5967 110.536C38.3848 109.764 37.5688 109.688 37.0219 110.294C36.4509 110.928 36.7137 111.999 37.9155 113.936C39.2319 116.058 41.7244 118.681 43.846 120.178C44.7629 120.825 45.5128 121.401 45.5128 121.458C45.5128 121.807 44.231 123.15 43.4709 123.597C41.5446 124.731 39.2205 124.124 36.3094 121.725C34.0346 119.851 32.1538 118.686 28.6695 116.994C26.9722 116.17 24.8172 114.997 23.8806 114.387C21.6407 112.928 17.3363 108.561 14.8467 105.222C10.2378 99.0403 4.99526 89.5278 3.15643 84.0107C1.87376 80.1616 2.09227 77.7053 3.95584 75.0254C4.51501 74.2213 5.46024 72.8601 6.05641 72.0007C7.12486 70.4607 7.63866 69.3709 8.96456 65.8342C10.1838 62.5817 11.7348 60.6636 17.9987 54.663C19.5642 53.1634 20.96 51.6191 21.3155 50.9934C23.9167 46.4142 29.2588 42.6316 34.6205 41.5729C36.0836 41.2841 39.1438 41.2977 40.828 41.6006C41.5712 41.7341 43.5826 42.3181 45.2977 42.898C47.0129 43.4781 48.8201 44.0422 49.3137 44.1515C50.2656 44.3626 50.7327 44.1595 50.528 43.6237C50.2993 43.0252 43.2804 41.1639 39.2092 40.6223C37.4912 40.3937 37.926 39.9504 41.7521 38.0303C43.6464 37.0797 45.6421 35.9899 46.187 35.6086C49.5251 33.2725 50.9129 29.6247 49.8284 26.0373C49.4309 24.7235 49.3963 24.3709 49.612 23.8477C49.9985 22.9104 49.7423 21.3737 49.0313 20.3645C48.2341 19.2328 47.7818 18.9457 47.2871 19.2568C46.643 19.6619 46.6998 20.7625 47.4235 21.8954C48.8188 24.0797 48.9132 24.9592 47.7527 24.9592C47.172 24.9592 46.9273 24.5783 45.6595 21.704C44.4889 19.05 44.3839 18.0798 45.1805 17.2797C45.947 16.5095 46.9348 16.5767 48.2872 17.4908C49.4535 18.2794 49.4617 18.274 49.3986 16.7325C49.3713 16.0627 49.4662 15.6535 49.6922 15.4651C49.8757 15.3121 50.231 14.4933 50.4815 13.6455C51.0654 11.6712 51.7227 10.5545 53.0167 9.33854C55.7363 6.78288 58.8963 6.21466 65.0328 7.17717ZM49.1152 17.3074C48.9102 17.5133 48.4992 17.1799 48.6521 16.9317C48.7429 16.7841 48.8631 16.7878 49.0176 16.9429C49.1442 17.0701 49.1881 17.2341 49.1152 17.3074ZM48.1928 19.9045C49.1229 20.8389 49.7817 23.3905 49.1881 23.7591C48.9584 23.9017 47.2333 20.7832 47.2333 20.2256C47.2333 19.5055 47.6551 19.3644 48.1928 19.9045ZM48.0287 43.0064C49.0107 43.3074 49.8142 43.6034 49.8142 43.6643C49.8142 43.8615 48.2356 43.4882 46.9107 42.9777C45.1827 42.3118 45.8145 42.328 48.0287 43.0064ZM66.9121 43.3419C66.2262 43.5515 63.1069 43.8332 63.471 43.6526C63.8104 43.4843 65.9754 43.1587 66.8045 43.1514L67.5573 43.1447L66.9121 43.3419ZM81.9628 64.9773C81.6432 65.7957 81.3315 66.4149 81.27 66.3531C81.2087 66.2915 81.4317 65.3867 81.766 64.3425C82.1995 62.9879 82.398 62.5938 82.4587 62.9667C82.5056 63.2541 82.2823 64.1589 81.9628 64.9773ZM32.6111 63.0382C32.6494 63.9359 33.2804 69.1179 33.369 69.262C33.438 69.3739 33.2038 69.4658 32.8485 69.4658C32.476 69.4658 31.9474 69.6861 31.5998 69.9864C31.0445 70.4665 31.0002 70.6175 31.0361 71.9158C31.0974 74.1268 31.6486 76.9288 33.1468 82.6449C35.1799 90.402 35.4364 92.1684 35.5476 99.1728C35.6655 106.608 35.7014 106.713 38.4156 107.591C40.0767 108.128 41.3824 109.01 42.83 110.573C46.5167 114.555 47.562 115.512 49.0305 116.25C49.8481 116.661 50.6686 116.997 50.8538 116.997C51.3923 116.997 50.8701 117.331 49.8989 117.608C49.4133 117.747 48.6586 118.103 48.2222 118.401L47.4286 118.942L47.0621 118.27C45.8358 116.021 43.5066 112.802 42.1201 111.438C39.5694 108.93 37.585 108.079 32.9991 107.524C30.0632 107.169 29.2655 106.603 27.6553 103.733C27.1232 102.784 19.1667 82.7738 18.4972 80.7004C18.4226 80.4697 18.7 80.2668 19.4607 79.9959C21.7433 79.1826 25.0198 76.0171 27.948 71.7961C29.6492 69.3439 31.7484 65.3774 31.7484 64.6152C31.7484 63.9925 32.1687 62.9842 32.4283 62.9842C32.5274 62.9842 32.6098 63.0086 32.6111 63.0382ZM81.1676 73.9626C81.8182 75.6381 83.217 77.3732 84.6872 78.3277C85.392 78.7853 86.0845 79.2047 86.2261 79.2596C86.3846 79.3209 86.277 79.511 85.9456 79.7547C83.921 81.2433 83.6265 82.106 83.2431 87.6683C82.8781 92.9671 82.4877 95.4107 81.595 97.9845C80.8653 100.089 80.045 101.623 78.8126 103.189C78.3386 103.792 77.9952 104.329 78.0494 104.384C78.1036 104.438 78.6283 104.183 79.2153 103.816C81.2076 102.572 82.4286 102.876 84.0653 105.025C85.6897 107.158 86.3063 110.062 85.5729 112.125C85.2518 113.028 84.9821 113.339 83.8349 114.123C83.088 114.634 82.3621 115.051 82.2219 115.05C82.0817 115.049 81.5324 114.209 81.0012 113.184C79.3682 110.032 76.6392 107.491 74.8877 107.491C74.4934 107.491 74.039 107.742 73.5577 108.225C72.8867 108.899 72.8247 109.073 72.8049 110.332C72.7892 111.346 72.7387 111.563 72.6114 111.164C71.85 108.775 73.2527 105.933 75.578 105.152C78.4109 104.2 79.04 101.882 77.7663 97.0887C76.349 91.754 76.0398 90.1429 76.0314 88.0461C76.023 85.9891 76.1264 85.4678 77.5749 80.2683C78.0823 78.4472 78.2126 75.3292 77.8203 74.3911L77.5762 73.8071L76.3348 74.5583C74.5874 75.6152 73.6831 75.8339 71.1059 75.8228C69.1195 75.8142 68.6367 75.733 67.0957 75.1472C65.298 74.4641 64.0663 73.8518 65.0001 74.1054C68.0149 74.9247 71.6143 75.26 73.5233 74.8997C76.2374 74.387 78.6273 72.5419 79.8617 70.0054L80.4614 68.7731L80.5917 70.7938C80.6721 72.0426 80.8921 73.2531 81.1676 73.9626ZM41.7491 73.8944C45.5287 75.1215 50.223 75.4072 53.2015 74.5913C53.8226 74.4213 54.3306 74.3204 54.3306 74.3671C54.3306 74.6246 51.0222 75.9842 49.6479 76.2914C47.211 76.8361 43.1769 76.6345 40.891 75.8542C38.8442 75.1552 37.0892 74.1216 36.0298 72.9911C35.2594 72.169 34.3293 70.9083 34.3293 70.6864C34.3293 70.6221 35.6115 71.192 37.1789 71.9527C38.7463 72.7134 40.8028 73.5871 41.7491 73.8944ZM15.0652 77.7908C15.8773 78.178 17.4838 79.7625 17.2759 79.9715C16.8175 80.4319 13.4515 78.2264 13.7851 77.6841C13.9731 77.3784 14.2484 77.4015 15.0652 77.7908ZM91.1072 78.291C91.1072 78.63 89.4661 79.2215 88.7239 79.15C88.009 79.0809 88.0242 79.0662 89.2792 78.6105C90.7152 78.089 91.1072 78.0205 91.1072 78.291ZM76.1619 108.262C77.6973 108.994 80.8934 113.079 81.3242 114.86C81.4457 115.363 81.3855 115.439 80.7728 115.562C77.5556 116.209 73.9558 114.734 73.4633 112.568C73.0176 110.607 73.3637 108.392 74.1661 108.067C74.6975 107.853 75.4582 107.927 76.1619 108.262ZM39.8436 111.239C42.1489 112.958 44.1258 115.349 45.9152 118.582C46.5752 119.775 46.5946 119.872 46.2731 120.365C46.0859 120.651 45.8556 120.886 45.7612 120.886C45.6666 120.886 44.9784 120.459 44.2319 119.937C40.6417 117.427 36.8053 112.473 37.2069 110.866C37.4271 109.984 38.3319 110.112 39.8436 111.239ZM74.944 115.027C76.3153 116.004 78.8613 116.395 80.8388 115.934C82.1329 115.632 82.0172 116.084 80.6384 116.718C78.8245 117.552 77.0235 117.53 75.8185 116.659C75.013 116.077 73.8738 114.62 74.2237 114.62C74.3059 114.62 74.63 114.803 74.944 115.027ZM70.4607 115.269C70.4607 115.387 70.4265 115.485 70.3848 115.485C70.343 115.485 69.2058 115.772 67.8577 116.122C66.5097 116.473 64.3779 116.91 63.1209 117.094C60.7915 117.435 54.5454 117.561 54.5459 117.267C54.5459 117.178 57.3284 116.653 60.7291 116.1C66.689 115.131 70.4607 114.809 70.4607 115.269ZM82.9346 115.377C82.7873 115.555 82.5095 115.697 82.317 115.693C82.0761 115.688 82.1346 115.589 82.5045 115.377C83.1947 114.98 83.2622 114.98 82.9346 115.377ZM26.304 116.363C27.223 116.711 31.362 118.97 31.2635 119.068C31.1512 119.181 27.7267 118.018 26.901 117.587C26.1663 117.203 25.1056 116.133 25.4601 116.133C25.5913 116.133 25.9711 116.236 26.304 116.363ZM47.6635 120.683C47.6635 121.032 47.5667 121.318 47.4484 121.318C47.3301 121.318 47.2333 120.972 47.2333 120.549C47.2333 120.091 47.3204 119.834 47.4484 119.914C47.5667 119.987 47.6635 120.333 47.6635 120.683ZM46.7146 121.263C46.4834 121.495 46.3606 121.17 46.523 120.755C46.6752 120.365 46.6869 120.365 46.7621 120.741C46.8056 120.958 46.7843 121.193 46.7146 121.263ZM36.603 122.511C38.3203 123.886 39.9103 124.559 41.4416 124.559C42.9139 124.559 43.8064 124.132 45.0285 122.845C46.1455 121.669 46.9458 121.374 46.6851 122.236C46.3924 123.205 45.4395 124.184 44.2645 124.725C41.5865 125.956 38.7014 125.208 36.164 122.625C35.4581 121.906 34.9327 121.318 34.9966 121.318C35.0605 121.318 35.7833 121.855 36.603 122.511ZM53.1172 145.783C53.2983 146.29 53.5118 146.947 53.5916 147.244L53.7366 147.784L53.0909 147.174C52.253 146.382 51.6455 145.236 51.8203 144.778C52.0446 144.191 52.7402 144.73 53.1172 145.783ZM64.5868 146.3C64.913 147.154 62.8608 149.257 61.2369 149.734C60.734 149.882 60.7254 149.862 60.8295 148.774C60.9474 147.543 61.5128 146.743 62.6107 146.253C63.5118 145.85 64.4235 145.872 64.5868 146.3ZM87.0209 150.024C87.0209 150.303 84.2143 151.511 82.4421 151.995C80.5988 152.498 76.5536 153.298 75.9449 153.279C75.7084 153.271 76.5906 153.041 77.9053 152.766C80.7293 152.177 81.8782 151.81 84.3947 150.694C86.2667 149.864 87.0209 149.671 87.0209 150.024ZM30.9411 152.215C32.5089 152.691 34.953 153.332 36.3724 153.639C41.3413 154.714 40.5232 154.81 34.985 153.802C32.0695 153.271 28.4327 152.196 27.7232 151.655C27.3621 151.38 27.3617 151.362 27.715 151.356C27.9215 151.352 29.3732 151.739 30.9411 152.215ZM75.3894 153.381C75.2664 153.501 70.7519 154.164 70.2929 154.13C70.0895 154.115 70.8908 153.93 72.0737 153.72C74.1717 153.348 75.5696 153.205 75.3894 153.381ZM29.3218 181.349C31.1368 182.279 32.1295 184.143 31.891 186.173C31.5826 188.798 29.7089 190.485 27.1006 190.485C24.511 190.485 22.7504 188.892 21.9336 185.809L21.6473 184.729L22.4358 183.576C24.2428 180.932 26.8584 180.086 29.3218 181.349ZM87.7115 182.096C88.3372 182.404 89.2312 183.049 89.6981 183.529L90.5474 184.403L90.0768 185.87C88.8679 189.641 86.5936 191.342 83.6474 190.68C81.9868 190.307 80.4996 188.865 80.1755 187.315C79.6876 184.98 80.8265 182.666 82.9346 181.711C84.0446 181.208 86.2697 181.388 87.7115 182.096ZM106.402 258.74C107.429 259.292 107.327 261.319 106.273 261.319C105.511 261.319 104.657 260.519 104.657 259.806C104.657 258.74 105.473 258.241 106.402 258.74ZM11.6097 262.874C12.1484 263.739 10.6995 265.386 9.8629 264.859C9.33641 264.528 9.25963 263.325 9.7317 262.801C10.1911 262.291 11.2724 262.333 11.6097 262.874Z"/>
</mask>
<path fill-rule="evenodd" clip-rule="evenodd" d="M54.7607 1.3196C52.4608 1.92908 50.8951 2.87689 48.9343 4.84684C46.8226 6.96803 45.8524 8.68002 45.479 10.9436C45.19 12.6958 45.6128 14.4121 46.6161 15.5602L47.2779 16.3172H46.5998C45.681 16.3172 44.7904 16.8137 44.4794 17.4994C44.0013 18.5533 44.1918 19.4964 45.4468 22.2852C46.7978 25.2879 47.1746 25.6714 48.3401 25.2295C48.9621 24.9936 48.9997 25.0146 49.3419 25.782C49.5827 26.3227 49.6967 27.171 49.6957 28.4161C49.6944 29.9554 49.6 30.4567 49.1122 31.5138C47.9966 33.9316 46.5376 35.1715 42.5018 37.132C41.0233 37.8501 39.3449 38.7247 38.7719 39.0752C37.8725 39.6257 37.7422 39.7924 37.8164 40.3004L37.9024 40.8885L36.0621 41.0125C30.8344 41.3647 24.594 45.1129 21.6402 49.6746C20.0926 52.0648 19.6188 52.6272 17.4464 54.6535C10.8972 60.7624 9.85236 62.1537 7.90599 67.359C6.81775 70.2697 6.61924 70.6383 4.97633 72.8014C1.23006 77.7338 1.00983 80.1391 3.70399 86.7029C6.28545 92.9918 12.1923 102.869 16.33 107.815C18.6379 110.574 21.6557 113.459 23.4573 114.629C24.4809 115.294 24.8663 115.673 24.8663 116.014C24.8663 117.023 26.7408 118.183 30.1193 119.266C32.6246 120.069 32.8244 120.281 32.8212 122.128C32.8184 123.784 32.6479 124.468 31.1103 128.988C28.0319 138.038 25.1818 149.657 23.3726 160.531C21.982 168.89 20.8604 179.843 21.0912 182.809C21.2237 184.509 21.2026 184.619 20.3926 186.482C15.2817 198.233 12.7564 212.015 11.9645 232.478C11.6695 240.101 11.1563 242.624 8.8938 247.576C7.94728 249.647 7.78103 250.219 7.64468 251.873C7.458 254.137 7.438 254.172 4.01046 258.272C2.67941 259.864 1.45631 261.489 1.29222 261.884C0.698197 263.312 1.0251 264.623 2.13378 265.26C2.4381 265.435 4.0253 265.582 6.58547 265.672C8.77379 265.749 10.875 265.881 11.2548 265.965C12.1764 266.17 13.6677 265.444 14.455 264.407C15.2521 263.357 15.5889 262.308 16.053 259.431C16.4332 257.074 16.9244 255.719 18.0241 253.993C18.4422 253.337 18.4968 252.938 18.5252 250.321C18.5497 248.061 18.6661 246.971 19.0293 245.595C20.3625 240.548 22.0902 236.621 25.9416 229.884C32.901 217.709 35.1291 211.928 36.4754 202.553C37.4583 195.709 37.9002 194.119 40.1484 189.335C41.0798 187.353 42.3816 184.443 43.0412 182.869C45.4577 177.103 49.6273 164.771 50.4503 160.955C50.9439 158.666 50.8506 157.821 50.021 157.067C49.4333 156.533 49.4858 156.434 50.3948 156.369C52.0522 156.25 52.4573 155.615 53.4989 151.511L54.1914 148.781L54.745 149.176C55.7741 149.911 57.0121 150.305 58.6646 150.425L60.3103 150.544L60.4572 151.757C60.7633 154.282 61.5367 155.238 63.2733 155.238H64.0155L63.3456 155.839C62.2023 156.865 62.2571 157.724 63.7549 162.26C65.3563 167.109 68.3646 174.981 70.9171 180.999C74.7954 190.144 74.9152 190.634 75.1948 198.489C75.3077 201.66 75.5008 205.16 75.6243 206.267C76.3536 212.813 78.0109 219.298 80.9975 227.291C86.0191 240.731 86.2366 241.67 85.3729 246.196C85.05 247.887 85.0466 248.197 85.3367 249.353C85.6153 250.464 85.6185 250.824 85.3619 252.035C84.9479 253.987 85.0999 255.317 85.8617 256.4C86.8405 257.792 87.6995 258.117 90.8582 258.293C93.9141 258.463 94.07 258.51 96.9141 260.13C99.3527 261.519 101.696 262.343 103.714 262.522C105.097 262.645 105.302 262.603 106.842 261.88C109.35 260.704 110.41 259.405 109.857 258.185C109.717 257.876 108.621 257.081 107.069 256.161C104.372 254.564 103.259 253.747 100.463 251.31C97.992 249.157 97.3068 248.262 96.5308 246.169C95.3671 243.031 94.8709 234.3 95.4826 227.723C96.3181 218.74 96.4108 212.232 95.8226 203.849C95.5277 199.646 95.1509 197.054 94.2191 192.818C93.4061 189.121 92.6177 186.817 91.6264 185.24L91.0442 184.313L91.4352 182.037C91.8901 179.389 92.0591 170.61 91.735 166.473C90.1893 146.742 87.7692 133.013 83.4848 119.67C82.9456 117.991 82.5045 116.527 82.5045 116.416C82.5045 116.306 82.9288 115.915 83.4476 115.548C84.6472 114.699 87.2332 111.48 88.1849 109.652C88.5873 108.879 89.2299 107.23 89.6127 105.987C90.0994 104.406 91.2634 101.84 93.4835 97.4526C97.0423 90.4203 98.3079 87.4023 99.2861 83.6171C100.567 78.6596 100.436 76.7618 98.3703 70.33C96.4394 64.3179 95.0705 61.2234 93.5508 59.436C93.1547 58.9698 92.5379 57.8031 92.1806 56.8434C90.4801 52.2765 88.0313 48.6443 84.7662 45.8458C82.0079 43.4815 79.548 42.4337 76.0146 42.118C74.4995 41.9828 74.3833 41.9387 74.6036 41.5844C74.9784 40.9814 74.499 40.6037 72.9841 40.3086C71.1074 39.943 69.0935 38.8924 67.5895 37.4939L66.3077 36.3019L63.814 36.3358L61.3203 36.3698L63.2559 36.2112C64.3631 36.1204 65.5382 35.8867 66.0017 35.6648C67.8564 34.7768 69.7045 31.8318 70.3568 28.725C70.6497 27.3304 70.6895 26.3785 70.5719 23.6074C70.4461 20.6499 70.4777 20.0545 70.8121 19.0703C71.3315 17.5424 71.2844 15.6425 70.6904 14.1567C70.4293 13.5031 70.042 12.4823 69.8297 11.8882C68.7255 8.79539 68.0704 7.50146 67.4923 7.27137C66.394 6.8343 62.8217 6.34343 60.6751 6.33457C54.9891 6.31102 51.4164 8.80382 49.9286 13.8326L49.609 14.9129L49.6862 13.8784C49.7976 12.3827 50.8865 10.3216 52.2494 9.02678C54.3899 6.99309 57.1998 5.95432 60.5676 5.95173C62.7585 5.95 66.6774 6.44411 67.5089 6.82652C68.1692 7.1305 68.7677 8.00573 69.1615 9.24348C69.5275 10.3935 69.8989 10.0349 69.7398 8.68521C69.5523 7.09464 68.6709 5.46173 67.3826 4.31838C66.0931 3.17375 63.4118 1.8042 61.5044 1.31592C59.8529 0.893112 56.3626 0.895057 54.7607 1.3196ZM61.3749 1.73463C64.0728 2.37371 67.073 4.23521 68.2728 6.01439C69.2127 7.40813 69.3281 7.91758 68.515 7.08297C67.7379 6.28553 67.1308 6.10253 64.1162 5.75707C58.2625 5.08601 54.6809 5.98716 51.8418 8.84509C50.2344 10.4635 49.4464 12.0673 49.1655 14.2919C48.9324 16.14 48.6773 16.6309 48.1091 16.3254C47.251 15.8641 46.341 14.6525 46.0201 13.544C44.7904 9.29426 49.2952 3.23446 54.7874 1.75062C56.3015 1.34142 59.6804 1.33321 61.3749 1.73463ZM65.0328 7.17717C66.2467 7.36751 67.371 7.63045 67.5317 7.76116C67.6923 7.89208 68.1853 8.92286 68.6275 10.0517C69.0694 11.1806 69.7292 12.8334 70.0938 13.7246C70.8784 15.6429 70.9695 17.3368 70.3813 19.0703C70.0475 20.0538 70.0161 20.6514 70.1422 23.6074C70.2577 26.3137 70.2179 27.344 69.9484 28.6321C69.2477 31.9794 67.1198 34.9909 65.0556 35.5568C64.4558 35.7214 63.2968 35.7722 61.8498 35.6974C58.2575 35.5123 55.3457 34.2957 53.0215 32.0094C52.4311 31.4287 51.8792 31.0229 51.7952 31.1076C51.507 31.3982 54.833 34.3397 56.2662 35.0618C58.6993 36.2877 60.3602 36.6781 63.4181 36.7425L66.1613 36.8004L67.3487 37.8908C68.7479 39.1754 70.713 40.1986 72.7365 40.6968C74.2181 41.0615 74.6575 41.4191 73.9646 41.6961C73.7527 41.7808 71.3048 42.1342 68.5251 42.4814C65.7453 42.8286 63.3501 43.1572 63.2021 43.2114C63.0544 43.2657 62.9333 43.5074 62.9333 43.749C62.9333 44.1251 63.0716 44.1878 63.9041 44.1878C64.4381 44.1878 66.5432 43.8352 68.5819 43.4042C71.6905 42.7472 72.7228 42.6199 74.9771 42.6162C77.3065 42.6123 77.8975 42.688 79.4028 43.1814C81.6885 43.9307 83.4568 45.1086 85.7264 47.3933C88.4154 50.1 90.6315 53.5899 91.6481 56.7187C92.0522 57.9621 92.7022 59.1182 93.7132 60.3916C94.6978 61.6317 96.1684 65.014 97.5653 69.2503C99.8556 76.1962 100.081 77.8332 99.2845 81.7571C98.4256 85.9921 96.9964 89.6278 93.5009 96.4721C92.1355 99.1458 90.7491 101.868 90.4201 102.522C90.091 103.175 89.5729 104.585 89.2688 105.654C88.6677 107.767 87.5427 110.268 86.7611 111.229L86.2682 111.835L86.263 110.041C86.2583 108.472 86.1697 108.059 85.5559 106.747C84.1584 103.76 82.4307 102.34 80.6777 102.737C80.2104 102.843 79.7908 102.892 79.745 102.846C79.6992 102.8 79.8717 102.466 80.128 102.105C80.7728 101.195 81.9567 98.5497 82.3587 97.1203C82.9964 94.8524 83.3607 92.2349 83.6747 87.6611C83.9693 83.3723 84.0302 82.9903 84.578 81.9788C84.9012 81.3825 85.5537 80.6079 86.028 80.2573C86.7689 79.71 87.0827 79.6201 88.2531 79.6201C89.7603 79.6201 90.7818 79.2773 91.4212 78.5565C91.7815 78.1506 91.7972 78.0512 91.5288 77.874C91.1126 77.599 90.1599 77.782 88.5178 78.4522C86.9465 79.0936 86.5209 79.0401 84.9516 78.0037C83.5861 77.1016 82.4804 75.7675 81.7128 74.0957C81.2335 73.0515 81.1102 72.4347 81.0466 70.7621C80.964 68.5948 81.0539 68.2096 82.3961 64.9721C83.0301 63.4427 83.0512 62.2743 82.4467 62.1591C81.9686 62.0682 81.6642 62.7788 80.89 65.7929C78.992 73.1803 75.3303 75.5997 67.9971 74.3111C66.4486 74.0391 63.2243 73.1367 61.6975 72.5481C61.5494 72.4911 61.4278 72.5566 61.4278 72.694C61.4278 73.106 66.8338 75.6228 68.6326 76.0482C71.4304 76.7102 75.1062 76.1711 76.7723 74.8545C77.5268 74.2582 77.6719 74.5903 77.6276 76.8115C77.6033 78.0412 77.4085 79.2902 77.0379 80.5924C75.7002 85.2954 75.5709 86.0656 75.6789 88.6943C75.7591 90.6467 75.9525 91.8266 76.5815 94.2036C77.9352 99.3179 78.0225 99.7684 77.9449 101.249C77.8636 102.798 77.2685 103.897 76.2422 104.395C75.9604 104.531 75.2683 104.856 74.704 105.116C72.9144 105.941 71.7511 108.287 72.049 110.47C72.1251 111.029 72.4765 112.088 72.8297 112.824C73.1828 113.559 73.4716 114.245 73.4716 114.348C73.4716 114.451 73.7545 114.984 74.1001 115.531C75.4585 117.683 78.0885 118.323 80.6782 117.132C81.3563 116.82 81.9443 116.565 81.9845 116.565C82.1378 116.565 84.0801 122.892 85.1015 126.719C88.2045 138.347 90.182 150.86 91.2098 165.371C91.735 172.785 91.6148 178.942 90.8726 182.632L90.6427 183.776L89.7717 182.985C88.3286 181.675 86.7551 181.058 84.8703 181.063C83.628 181.065 83.0519 181.175 82.3641 181.541C80.6141 182.471 79.6779 184.185 79.6779 186.458C79.6779 188.592 81.0799 190.368 83.2697 191.007C86.4355 191.932 89.1785 190.077 90.3997 186.187C90.5954 185.563 90.833 185.053 90.9279 185.053C91.1784 185.053 92.166 187.09 92.746 188.802C93.4807 190.972 94.704 196.897 95.0774 200.095C95.2561 201.625 95.5153 205.322 95.6536 208.31C95.9271 214.227 95.7204 221.04 95.0615 227.831C94.5225 233.384 94.8374 241.332 95.742 245.007C96.3667 247.545 97.1732 248.813 99.6147 251.094C102.353 253.651 103.478 254.501 106.748 256.475C109.615 258.207 109.975 258.679 109.226 259.727C108.983 260.068 108.499 260.514 108.151 260.717L107.519 261.088L107.54 260.129C107.575 258.477 106.023 257.554 104.814 258.509C103.809 259.304 104.074 260.789 105.339 261.447C106.167 261.877 105.838 262.175 104.53 262.18C102.46 262.188 99.9416 261.262 95.3202 258.796C93.8949 258.036 93.7184 257.997 91.0137 257.855C87.8412 257.689 87.1797 257.461 86.2256 256.205C85.7118 255.529 85.6254 255.218 85.6389 254.099C85.6477 253.376 85.7344 252.22 85.8316 251.53C85.9516 250.678 85.92 249.905 85.7327 249.121C85.4976 248.137 85.509 247.708 85.8088 246.213C86.2738 243.895 86.2512 241.721 85.7402 239.606C85.3466 237.977 83.7663 233.459 80.827 225.563C78.5425 219.425 76.9256 213.064 76.1596 207.198C75.9733 205.772 75.7303 201.932 75.6197 198.664C75.3533 190.798 75.2014 190.115 72.0602 182.669C67.2689 171.311 62.9333 159.429 62.9333 157.655C62.9333 156.773 63.8039 155.779 64.9287 155.375C65.4281 155.196 66.9497 154.942 68.31 154.81C71.5922 154.492 79.4123 153.194 81.9718 152.541C83.097 152.255 84.766 151.679 85.6804 151.263C87.053 150.637 87.3435 150.418 87.3435 150.009C87.3435 149.196 86.5942 149.294 83.8315 150.469C80.7833 151.766 78.9802 152.22 73.4362 153.087C71.1491 153.445 68.4552 153.936 67.4497 154.179C65.044 154.759 62.7273 154.942 62.0933 154.601C61.4693 154.265 61.0669 153.286 60.8837 151.659L60.7381 150.367L61.9266 149.872C63.4654 149.231 65.084 147.554 65.084 146.6C65.084 145.41 63.5028 145.186 61.9234 146.154C60.9753 146.735 60.5456 147.474 60.38 148.808L60.2389 149.945L58.5926 149.92C57.1467 149.898 56.7819 149.804 55.5982 149.152C54.3048 148.439 54.24 148.363 53.9968 147.278C53.6357 145.668 53.0731 144.52 52.521 144.267C51.898 143.982 51.3196 144.308 51.3196 144.944C51.3196 145.517 52.3087 147.13 53.1174 147.876C53.4299 148.164 53.6854 148.567 53.6854 148.771C53.6854 149.388 52.395 154.179 52.0466 154.856C51.6296 155.666 50.4772 156.161 49.4264 155.982C46.0042 155.398 33.8484 152.64 31.3043 151.871C29.5694 151.346 27.949 150.917 27.7037 150.917C26.7956 150.917 26.8819 151.764 27.8353 152.21C30.3696 153.396 33.4227 154.074 41.4265 155.231C44.7977 155.719 47.9119 156.272 48.3467 156.46C48.7816 156.648 49.4107 157.088 49.7447 157.439C50.8263 158.574 50.5458 160.084 47.5854 169.065C44.6601 177.941 42.9619 182.313 40.0376 188.496C37.6 193.65 37.0525 195.576 36.0412 202.553C34.6878 211.89 32.6515 217.155 25.5119 229.776C21.3056 237.211 20.1498 239.813 18.7953 244.899C18.2191 247.063 18.131 247.764 18.1127 250.328L18.0916 253.272L17.3169 254.433C16.2859 255.978 16.1237 256.456 15.6373 259.394C15.0357 263.026 14.3589 264.421 12.813 265.213C11.9484 265.656 10.6718 265.79 10.6718 265.438C10.6718 265.328 10.8664 265.175 11.1043 265.099C11.5903 264.944 12.1772 263.946 12.1772 263.274C12.1772 262.089 10.3965 261.543 9.44889 262.437C8.9095 262.946 8.78024 264.051 9.17382 264.79C9.38953 265.195 9.2921 265.208 6.07189 265.208C2.80888 265.208 2.73489 265.198 2.0856 264.649C1.58127 264.223 1.42384 263.911 1.42384 263.341C1.42384 262.233 1.87268 261.515 4.64986 258.186C6.03769 256.523 7.3423 254.829 7.54941 254.422C7.7606 254.007 7.99482 252.869 8.08299 251.829C8.21741 250.249 8.4 249.627 9.32436 247.6C11.3494 243.16 12.0577 240.153 12.2768 235.069C12.9341 219.819 13.5218 213.689 15.1041 205.578C16.3203 199.344 18.3637 192.419 20.4999 187.293C21.1178 185.81 21.3211 185.495 21.4482 185.823C21.537 186.053 21.7706 186.692 21.9671 187.242C23.0763 190.348 26.521 191.768 29.5311 190.36C32.1104 189.154 33.1477 185.617 31.6869 183.011C30.7015 181.252 28.3129 180.088 26.3094 180.39C24.9736 180.591 23.2289 181.681 22.4377 182.809C21.7914 183.73 21.7435 183.757 21.548 183.317C21.2957 182.749 21.6581 176.896 22.29 171.334C23.9511 156.712 27.1451 142.151 31.5792 128.988C32.8905 125.095 33.1217 124.183 33.2068 122.567C33.3253 120.316 33.2401 120.309 35.7575 122.779C36.7206 123.724 37.9338 124.704 38.4534 124.957C40.5316 125.968 42.7502 125.968 44.8257 124.959C45.7354 124.517 47.0183 123.065 47.0183 122.479C47.0183 122.321 47.2688 122.027 47.5751 121.826C48.0409 121.519 48.1166 121.333 48.0398 120.686C47.9895 120.261 47.8846 119.768 47.8069 119.59C47.6278 119.178 48.639 118.503 50.2256 117.975C51.5188 117.544 51.7367 117.537 56.5019 117.76C60.0979 117.928 62.6481 117.726 66.0518 117.001C68.7933 116.417 71.3823 115.633 71.4713 115.36C71.6072 114.943 70.474 114.62 68.8731 114.62C68.0111 114.62 65.2814 114.953 62.8075 115.36C60.3336 115.767 56.9725 116.309 55.3384 116.565L52.3677 117.031L50.9295 116.591C48.9481 115.985 47.6633 115.105 45.7498 113.046C41.3762 108.339 41.0805 108.109 37.9226 106.959C36.1784 106.324 36.1765 106.316 36.0214 99.399C35.8597 92.1954 35.5093 89.8214 33.4896 82.2454C31.7654 75.7788 31.0905 71.7209 31.5833 70.7832C32.2898 69.4387 33.3335 69.6293 34.174 71.256C35.3119 73.4586 37.7342 75.2803 40.8888 76.3059C42.2534 76.7497 43.1896 76.8875 45.4145 76.9731C48.7193 77.1001 50.8577 76.6773 53.3628 75.4018C54.9691 74.5838 56.4565 73.4739 56.2391 73.2553C56.1664 73.1825 55.624 73.3141 55.0334 73.5478C49.8858 75.5863 43.8206 74.8303 36.7578 71.2702L33.9174 69.8382L33.6957 68.7338C33.5737 68.1264 33.383 66.6268 33.2718 65.4014C33.0713 63.1927 32.8412 62.5521 32.2489 62.5521C31.9057 62.5521 31.3183 63.7951 31.3183 64.521C31.3183 65.6105 28.434 70.6445 26.1949 73.4627C23.4137 76.9634 21.1163 78.9938 19.1984 79.6461L18.1215 80.0123L17.163 78.9413C15.7568 77.3702 14.1516 76.643 13.5107 77.2868C13.1367 77.6625 13.1771 77.7904 13.9501 78.6747C14.6813 79.5115 16.4635 80.4787 17.2808 80.4822C17.6262 80.4837 17.8886 80.7369 18.2189 81.3874C18.657 82.2501 21.137 88.5523 24.5564 97.4919C27.0965 104.133 28.4056 106.434 30.1182 107.266C30.7103 107.554 32.0205 107.842 33.6748 108.047C35.1151 108.226 36.8176 108.569 37.4579 108.809C39.1679 109.452 41.5485 111.267 43.0595 113.08C44.4246 114.717 47.1727 119.074 46.9695 119.278C46.9067 119.342 46.5393 118.83 46.1531 118.141C44.2138 114.684 41.9076 112.009 39.5967 110.536C38.3848 109.764 37.5688 109.688 37.0219 110.294C36.4509 110.928 36.7137 111.999 37.9155 113.936C39.2319 116.058 41.7244 118.681 43.846 120.178C44.7629 120.825 45.5128 121.401 45.5128 121.458C45.5128 121.807 44.231 123.15 43.4709 123.597C41.5446 124.731 39.2205 124.124 36.3094 121.725C34.0346 119.851 32.1538 118.686 28.6695 116.994C26.9722 116.17 24.8172 114.997 23.8806 114.387C21.6407 112.928 17.3363 108.561 14.8467 105.222C10.2378 99.0403 4.99526 89.5278 3.15643 84.0107C1.87376 80.1616 2.09227 77.7053 3.95584 75.0254C4.51501 74.2213 5.46024 72.8601 6.05641 72.0007C7.12486 70.4607 7.63866 69.3709 8.96456 65.8342C10.1838 62.5817 11.7348 60.6636 17.9987 54.663C19.5642 53.1634 20.96 51.6191 21.3155 50.9934C23.9167 46.4142 29.2588 42.6316 34.6205 41.5729C36.0836 41.2841 39.1438 41.2977 40.828 41.6006C41.5712 41.7341 43.5826 42.3181 45.2977 42.898C47.0129 43.4781 48.8201 44.0422 49.3137 44.1515C50.2656 44.3626 50.7327 44.1595 50.528 43.6237C50.2993 43.0252 43.2804 41.1639 39.2092 40.6223C37.4912 40.3937 37.926 39.9504 41.7521 38.0303C43.6464 37.0797 45.6421 35.9899 46.187 35.6086C49.5251 33.2725 50.9129 29.6247 49.8284 26.0373C49.4309 24.7235 49.3963 24.3709 49.612 23.8477C49.9985 22.9104 49.7423 21.3737 49.0313 20.3645C48.2341 19.2328 47.7818 18.9457 47.2871 19.2568C46.643 19.6619 46.6998 20.7625 47.4235 21.8954C48.8188 24.0797 48.9132 24.9592 47.7527 24.9592C47.172 24.9592 46.9273 24.5783 45.6595 21.704C44.4889 19.05 44.3839 18.0798 45.1805 17.2797C45.947 16.5095 46.9348 16.5767 48.2872 17.4908C49.4535 18.2794 49.4617 18.274 49.3986 16.7325C49.3713 16.0627 49.4662 15.6535 49.6922 15.4651C49.8757 15.3121 50.231 14.4933 50.4815 13.6455C51.0654 11.6712 51.7227 10.5545 53.0167 9.33854C55.7363 6.78288 58.8963 6.21466 65.0328 7.17717ZM49.1152 17.3074C48.9102 17.5133 48.4992 17.1799 48.6521 16.9317C48.7429 16.7841 48.8631 16.7878 49.0176 16.9429C49.1442 17.0701 49.1881 17.2341 49.1152 17.3074ZM48.1928 19.9045C49.1229 20.8389 49.7817 23.3905 49.1881 23.7591C48.9584 23.9017 47.2333 20.7832 47.2333 20.2256C47.2333 19.5055 47.6551 19.3644 48.1928 19.9045ZM48.0287 43.0064C49.0107 43.3074 49.8142 43.6034 49.8142 43.6643C49.8142 43.8615 48.2356 43.4882 46.9107 42.9777C45.1827 42.3118 45.8145 42.328 48.0287 43.0064ZM66.9121 43.3419C66.2262 43.5515 63.1069 43.8332 63.471 43.6526C63.8104 43.4843 65.9754 43.1587 66.8045 43.1514L67.5573 43.1447L66.9121 43.3419ZM81.9628 64.9773C81.6432 65.7957 81.3315 66.4149 81.27 66.3531C81.2087 66.2915 81.4317 65.3867 81.766 64.3425C82.1995 62.9879 82.398 62.5938 82.4587 62.9667C82.5056 63.2541 82.2823 64.1589 81.9628 64.9773ZM32.6111 63.0382C32.6494 63.9359 33.2804 69.1179 33.369 69.262C33.438 69.3739 33.2038 69.4658 32.8485 69.4658C32.476 69.4658 31.9474 69.6861 31.5998 69.9864C31.0445 70.4665 31.0002 70.6175 31.0361 71.9158C31.0974 74.1268 31.6486 76.9288 33.1468 82.6449C35.1799 90.402 35.4364 92.1684 35.5476 99.1728C35.6655 106.608 35.7014 106.713 38.4156 107.591C40.0767 108.128 41.3824 109.01 42.83 110.573C46.5167 114.555 47.562 115.512 49.0305 116.25C49.8481 116.661 50.6686 116.997 50.8538 116.997C51.3923 116.997 50.8701 117.331 49.8989 117.608C49.4133 117.747 48.6586 118.103 48.2222 118.401L47.4286 118.942L47.0621 118.27C45.8358 116.021 43.5066 112.802 42.1201 111.438C39.5694 108.93 37.585 108.079 32.9991 107.524C30.0632 107.169 29.2655 106.603 27.6553 103.733C27.1232 102.784 19.1667 82.7738 18.4972 80.7004C18.4226 80.4697 18.7 80.2668 19.4607 79.9959C21.7433 79.1826 25.0198 76.0171 27.948 71.7961C29.6492 69.3439 31.7484 65.3774 31.7484 64.6152C31.7484 63.9925 32.1687 62.9842 32.4283 62.9842C32.5274 62.9842 32.6098 63.0086 32.6111 63.0382ZM81.1676 73.9626C81.8182 75.6381 83.217 77.3732 84.6872 78.3277C85.392 78.7853 86.0845 79.2047 86.2261 79.2596C86.3846 79.3209 86.277 79.511 85.9456 79.7547C83.921 81.2433 83.6265 82.106 83.2431 87.6683C82.8781 92.9671 82.4877 95.4107 81.595 97.9845C80.8653 100.089 80.045 101.623 78.8126 103.189C78.3386 103.792 77.9952 104.329 78.0494 104.384C78.1036 104.438 78.6283 104.183 79.2153 103.816C81.2076 102.572 82.4286 102.876 84.0653 105.025C85.6897 107.158 86.3063 110.062 85.5729 112.125C85.2518 113.028 84.9821 113.339 83.8349 114.123C83.088 114.634 82.3621 115.051 82.2219 115.05C82.0817 115.049 81.5324 114.209 81.0012 113.184C79.3682 110.032 76.6392 107.491 74.8877 107.491C74.4934 107.491 74.039 107.742 73.5577 108.225C72.8867 108.899 72.8247 109.073 72.8049 110.332C72.7892 111.346 72.7387 111.563 72.6114 111.164C71.85 108.775 73.2527 105.933 75.578 105.152C78.4109 104.2 79.04 101.882 77.7663 97.0887C76.349 91.754 76.0398 90.1429 76.0314 88.0461C76.023 85.9891 76.1264 85.4678 77.5749 80.2683C78.0823 78.4472 78.2126 75.3292 77.8203 74.3911L77.5762 73.8071L76.3348 74.5583C74.5874 75.6152 73.6831 75.8339 71.1059 75.8228C69.1195 75.8142 68.6367 75.733 67.0957 75.1472C65.298 74.4641 64.0663 73.8518 65.0001 74.1054C68.0149 74.9247 71.6143 75.26 73.5233 74.8997C76.2374 74.387 78.6273 72.5419 79.8617 70.0054L80.4614 68.7731L80.5917 70.7938C80.6721 72.0426 80.8921 73.2531 81.1676 73.9626ZM41.7491 73.8944C45.5287 75.1215 50.223 75.4072 53.2015 74.5913C53.8226 74.4213 54.3306 74.3204 54.3306 74.3671C54.3306 74.6246 51.0222 75.9842 49.6479 76.2914C47.211 76.8361 43.1769 76.6345 40.891 75.8542C38.8442 75.1552 37.0892 74.1216 36.0298 72.9911C35.2594 72.169 34.3293 70.9083 34.3293 70.6864C34.3293 70.6221 35.6115 71.192 37.1789 71.9527C38.7463 72.7134 40.8028 73.5871 41.7491 73.8944ZM15.0652 77.7908C15.8773 78.178 17.4838 79.7625 17.2759 79.9715C16.8175 80.4319 13.4515 78.2264 13.7851 77.6841C13.9731 77.3784 14.2484 77.4015 15.0652 77.7908ZM91.1072 78.291C91.1072 78.63 89.4661 79.2215 88.7239 79.15C88.009 79.0809 88.0242 79.0662 89.2792 78.6105C90.7152 78.089 91.1072 78.0205 91.1072 78.291ZM76.1619 108.262C77.6973 108.994 80.8934 113.079 81.3242 114.86C81.4457 115.363 81.3855 115.439 80.7728 115.562C77.5556 116.209 73.9558 114.734 73.4633 112.568C73.0176 110.607 73.3637 108.392 74.1661 108.067C74.6975 107.853 75.4582 107.927 76.1619 108.262ZM39.8436 111.239C42.1489 112.958 44.1258 115.349 45.9152 118.582C46.5752 119.775 46.5946 119.872 46.2731 120.365C46.0859 120.651 45.8556 120.886 45.7612 120.886C45.6666 120.886 44.9784 120.459 44.2319 119.937C40.6417 117.427 36.8053 112.473 37.2069 110.866C37.4271 109.984 38.3319 110.112 39.8436 111.239ZM74.944 115.027C76.3153 116.004 78.8613 116.395 80.8388 115.934C82.1329 115.632 82.0172 116.084 80.6384 116.718C78.8245 117.552 77.0235 117.53 75.8185 116.659C75.013 116.077 73.8738 114.62 74.2237 114.62C74.3059 114.62 74.63 114.803 74.944 115.027ZM70.4607 115.269C70.4607 115.387 70.4265 115.485 70.3848 115.485C70.343 115.485 69.2058 115.772 67.8577 116.122C66.5097 116.473 64.3779 116.91 63.1209 117.094C60.7915 117.435 54.5454 117.561 54.5459 117.267C54.5459 117.178 57.3284 116.653 60.7291 116.1C66.689 115.131 70.4607 114.809 70.4607 115.269ZM82.9346 115.377C82.7873 115.555 82.5095 115.697 82.317 115.693C82.0761 115.688 82.1346 115.589 82.5045 115.377C83.1947 114.98 83.2622 114.98 82.9346 115.377ZM26.304 116.363C27.223 116.711 31.362 118.97 31.2635 119.068C31.1512 119.181 27.7267 118.018 26.901 117.587C26.1663 117.203 25.1056 116.133 25.4601 116.133C25.5913 116.133 25.9711 116.236 26.304 116.363ZM47.6635 120.683C47.6635 121.032 47.5667 121.318 47.4484 121.318C47.3301 121.318 47.2333 120.972 47.2333 120.549C47.2333 120.091 47.3204 119.834 47.4484 119.914C47.5667 119.987 47.6635 120.333 47.6635 120.683ZM46.7146 121.263C46.4834 121.495 46.3606 121.17 46.523 120.755C46.6752 120.365 46.6869 120.365 46.7621 120.741C46.8056 120.958 46.7843 121.193 46.7146 121.263ZM36.603 122.511C38.3203 123.886 39.9103 124.559 41.4416 124.559C42.9139 124.559 43.8064 124.132 45.0285 122.845C46.1455 121.669 46.9458 121.374 46.6851 122.236C46.3924 123.205 45.4395 124.184 44.2645 124.725C41.5865 125.956 38.7014 125.208 36.164 122.625C35.4581 121.906 34.9327 121.318 34.9966 121.318C35.0605 121.318 35.7833 121.855 36.603 122.511ZM53.1172 145.783C53.2983 146.29 53.5118 146.947 53.5916 147.244L53.7366 147.784L53.0909 147.174C52.253 146.382 51.6455 145.236 51.8203 144.778C52.0446 144.191 52.7402 144.73 53.1172 145.783ZM64.5868 146.3C64.913 147.154 62.8608 149.257 61.2369 149.734C60.734 149.882 60.7254 149.862 60.8295 148.774C60.9474 147.543 61.5128 146.743 62.6107 146.253C63.5118 145.85 64.4235 145.872 64.5868 146.3ZM87.0209 150.024C87.0209 150.303 84.2143 151.511 82.4421 151.995C80.5988 152.498 76.5536 153.298 75.9449 153.279C75.7084 153.271 76.5906 153.041 77.9053 152.766C80.7293 152.177 81.8782 151.81 84.3947 150.694C86.2667 149.864 87.0209 149.671 87.0209 150.024ZM30.9411 152.215C32.5089 152.691 34.953 153.332 36.3724 153.639C41.3413 154.714 40.5232 154.81 34.985 153.802C32.0695 153.271 28.4327 152.196 27.7232 151.655C27.3621 151.38 27.3617 151.362 27.715 151.356C27.9215 151.352 29.3732 151.739 30.9411 152.215ZM75.3894 153.381C75.2664 153.501 70.7519 154.164 70.2929 154.13C70.0895 154.115 70.8908 153.93 72.0737 153.72C74.1717 153.348 75.5696 153.205 75.3894 153.381ZM29.3218 181.349C31.1368 182.279 32.1295 184.143 31.891 186.173C31.5826 188.798 29.7089 190.485 27.1006 190.485C24.511 190.485 22.7504 188.892 21.9336 185.809L21.6473 184.729L22.4358 183.576C24.2428 180.932 26.8584 180.086 29.3218 181.349ZM87.7115 182.096C88.3372 182.404 89.2312 183.049 89.6981 183.529L90.5474 184.403L90.0768 185.87C88.8679 189.641 86.5936 191.342 83.6474 190.68C81.9868 190.307 80.4996 188.865 80.1755 187.315C79.6876 184.98 80.8265 182.666 82.9346 181.711C84.0446 181.208 86.2697 181.388 87.7115 182.096ZM106.402 258.74C107.429 259.292 107.327 261.319 106.273 261.319C105.511 261.319 104.657 260.519 104.657 259.806C104.657 258.74 105.473 258.241 106.402 258.74ZM11.6097 262.874C12.1484 263.739 10.6995 265.386 9.8629 264.859C9.33641 264.528 9.25963 263.325 9.7317 262.801C10.1911 262.291 11.2724 262.333 11.6097 262.874Z" fill="#B3A394"/>
<path fill-rule="evenodd" clip-rule="evenodd" d="M54.7607 1.3196C52.4608 1.92908 50.8951 2.87689 48.9343 4.84684C46.8226 6.96803 45.8524 8.68002 45.479 10.9436C45.19 12.6958 45.6128 14.4121 46.6161 15.5602L47.2779 16.3172H46.5998C45.681 16.3172 44.7904 16.8137 44.4794 17.4994C44.0013 18.5533 44.1918 19.4964 45.4468 22.2852C46.7978 25.2879 47.1746 25.6714 48.3401 25.2295C48.9621 24.9936 48.9997 25.0146 49.3419 25.782C49.5827 26.3227 49.6967 27.171 49.6957 28.4161C49.6944 29.9554 49.6 30.4567 49.1122 31.5138C47.9966 33.9316 46.5376 35.1715 42.5018 37.132C41.0233 37.8501 39.3449 38.7247 38.7719 39.0752C37.8725 39.6257 37.7422 39.7924 37.8164 40.3004L37.9024 40.8885L36.0621 41.0125C30.8344 41.3647 24.594 45.1129 21.6402 49.6746C20.0926 52.0648 19.6188 52.6272 17.4464 54.6535C10.8972 60.7624 9.85236 62.1537 7.90599 67.359C6.81775 70.2697 6.61924 70.6383 4.97633 72.8014C1.23006 77.7338 1.00983 80.1391 3.70399 86.7029C6.28545 92.9918 12.1923 102.869 16.33 107.815C18.6379 110.574 21.6557 113.459 23.4573 114.629C24.4809 115.294 24.8663 115.673 24.8663 116.014C24.8663 117.023 26.7408 118.183 30.1193 119.266C32.6246 120.069 32.8244 120.281 32.8212 122.128C32.8184 123.784 32.6479 124.468 31.1103 128.988C28.0319 138.038 25.1818 149.657 23.3726 160.531C21.982 168.89 20.8604 179.843 21.0912 182.809C21.2237 184.509 21.2026 184.619 20.3926 186.482C15.2817 198.233 12.7564 212.015 11.9645 232.478C11.6695 240.101 11.1563 242.624 8.8938 247.576C7.94728 249.647 7.78103 250.219 7.64468 251.873C7.458 254.137 7.438 254.172 4.01046 258.272C2.67941 259.864 1.45631 261.489 1.29222 261.884C0.698197 263.312 1.0251 264.623 2.13378 265.26C2.4381 265.435 4.0253 265.582 6.58547 265.672C8.77379 265.749 10.875 265.881 11.2548 265.965C12.1764 266.17 13.6677 265.444 14.455 264.407C15.2521 263.357 15.5889 262.308 16.053 259.431C16.4332 257.074 16.9244 255.719 18.0241 253.993C18.4422 253.337 18.4968 252.938 18.5252 250.321C18.5497 248.061 18.6661 246.971 19.0293 245.595C20.3625 240.548 22.0902 236.621 25.9416 229.884C32.901 217.709 35.1291 211.928 36.4754 202.553C37.4583 195.709 37.9002 194.119 40.1484 189.335C41.0798 187.353 42.3816 184.443 43.0412 182.869C45.4577 177.103 49.6273 164.771 50.4503 160.955C50.9439 158.666 50.8506 157.821 50.021 157.067C49.4333 156.533 49.4858 156.434 50.3948 156.369C52.0522 156.25 52.4573 155.615 53.4989 151.511L54.1914 148.781L54.745 149.176C55.7741 149.911 57.0121 150.305 58.6646 150.425L60.3103 150.544L60.4572 151.757C60.7633 154.282 61.5367 155.238 63.2733 155.238H64.0155L63.3456 155.839C62.2023 156.865 62.2571 157.724 63.7549 162.26C65.3563 167.109 68.3646 174.981 70.9171 180.999C74.7954 190.144 74.9152 190.634 75.1948 198.489C75.3077 201.66 75.5008 205.16 75.6243 206.267C76.3536 212.813 78.0109 219.298 80.9975 227.291C86.0191 240.731 86.2366 241.67 85.3729 246.196C85.05 247.887 85.0466 248.197 85.3367 249.353C85.6153 250.464 85.6185 250.824 85.3619 252.035C84.9479 253.987 85.0999 255.317 85.8617 256.4C86.8405 257.792 87.6995 258.117 90.8582 258.293C93.9141 258.463 94.07 258.51 96.9141 260.13C99.3527 261.519 101.696 262.343 103.714 262.522C105.097 262.645 105.302 262.603 106.842 261.88C109.35 260.704 110.41 259.405 109.857 258.185C109.717 257.876 108.621 257.081 107.069 256.161C104.372 254.564 103.259 253.747 100.463 251.31C97.992 249.157 97.3068 248.262 96.5308 246.169C95.3671 243.031 94.8709 234.3 95.4826 227.723C96.3181 218.74 96.4108 212.232 95.8226 203.849C95.5277 199.646 95.1509 197.054 94.2191 192.818C93.4061 189.121 92.6177 186.817 91.6264 185.24L91.0442 184.313L91.4352 182.037C91.8901 179.389 92.0591 170.61 91.735 166.473C90.1893 146.742 87.7692 133.013 83.4848 119.67C82.9456 117.991 82.5045 116.527 82.5045 116.416C82.5045 116.306 82.9288 115.915 83.4476 115.548C84.6472 114.699 87.2332 111.48 88.1849 109.652C88.5873 108.879 89.2299 107.23 89.6127 105.987C90.0994 104.406 91.2634 101.84 93.4835 97.4526C97.0423 90.4203 98.3079 87.4023 99.2861 83.6171C100.567 78.6596 100.436 76.7618 98.3703 70.33C96.4394 64.3179 95.0705 61.2234 93.5508 59.436C93.1547 58.9698 92.5379 57.8031 92.1806 56.8434C90.4801 52.2765 88.0313 48.6443 84.7662 45.8458C82.0079 43.4815 79.548 42.4337 76.0146 42.118C74.4995 41.9828 74.3833 41.9387 74.6036 41.5844C74.9784 40.9814 74.499 40.6037 72.9841 40.3086C71.1074 39.943 69.0935 38.8924 67.5895 37.4939L66.3077 36.3019L63.814 36.3358L61.3203 36.3698L63.2559 36.2112C64.3631 36.1204 65.5382 35.8867 66.0017 35.6648C67.8564 34.7768 69.7045 31.8318 70.3568 28.725C70.6497 27.3304 70.6895 26.3785 70.5719 23.6074C70.4461 20.6499 70.4777 20.0545 70.8121 19.0703C71.3315 17.5424 71.2844 15.6425 70.6904 14.1567C70.4293 13.5031 70.042 12.4823 69.8297 11.8882C68.7255 8.79539 68.0704 7.50146 67.4923 7.27137C66.394 6.8343 62.8217 6.34343 60.6751 6.33457C54.9891 6.31102 51.4164 8.80382 49.9286 13.8326L49.609 14.9129L49.6862 13.8784C49.7976 12.3827 50.8865 10.3216 52.2494 9.02678C54.3899 6.99309 57.1998 5.95432 60.5676 5.95173C62.7585 5.95 66.6774 6.44411 67.5089 6.82652C68.1692 7.1305 68.7677 8.00573 69.1615 9.24348C69.5275 10.3935 69.8989 10.0349 69.7398 8.68521C69.5523 7.09464 68.6709 5.46173 67.3826 4.31838C66.0931 3.17375 63.4118 1.8042 61.5044 1.31592C59.8529 0.893112 56.3626 0.895057 54.7607 1.3196ZM61.3749 1.73463C64.0728 2.37371 67.073 4.23521 68.2728 6.01439C69.2127 7.40813 69.3281 7.91758 68.515 7.08297C67.7379 6.28553 67.1308 6.10253 64.1162 5.75707C58.2625 5.08601 54.6809 5.98716 51.8418 8.84509C50.2344 10.4635 49.4464 12.0673 49.1655 14.2919C48.9324 16.14 48.6773 16.6309 48.1091 16.3254C47.251 15.8641 46.341 14.6525 46.0201 13.544C44.7904 9.29426 49.2952 3.23446 54.7874 1.75062C56.3015 1.34142 59.6804 1.33321 61.3749 1.73463ZM65.0328 7.17717C66.2467 7.36751 67.371 7.63045 67.5317 7.76116C67.6923 7.89208 68.1853 8.92286 68.6275 10.0517C69.0694 11.1806 69.7292 12.8334 70.0938 13.7246C70.8784 15.6429 70.9695 17.3368 70.3813 19.0703C70.0475 20.0538 70.0161 20.6514 70.1422 23.6074C70.2577 26.3137 70.2179 27.344 69.9484 28.6321C69.2477 31.9794 67.1198 34.9909 65.0556 35.5568C64.4558 35.7214 63.2968 35.7722 61.8498 35.6974C58.2575 35.5123 55.3457 34.2957 53.0215 32.0094C52.4311 31.4287 51.8792 31.0229 51.7952 31.1076C51.507 31.3982 54.833 34.3397 56.2662 35.0618C58.6993 36.2877 60.3602 36.6781 63.4181 36.7425L66.1613 36.8004L67.3487 37.8908C68.7479 39.1754 70.713 40.1986 72.7365 40.6968C74.2181 41.0615 74.6575 41.4191 73.9646 41.6961C73.7527 41.7808 71.3048 42.1342 68.5251 42.4814C65.7453 42.8286 63.3501 43.1572 63.2021 43.2114C63.0544 43.2657 62.9333 43.5074 62.9333 43.749C62.9333 44.1251 63.0716 44.1878 63.9041 44.1878C64.4381 44.1878 66.5432 43.8352 68.5819 43.4042C71.6905 42.7472 72.7228 42.6199 74.9771 42.6162C77.3065 42.6123 77.8975 42.688 79.4028 43.1814C81.6885 43.9307 83.4568 45.1086 85.7264 47.3933C88.4154 50.1 90.6315 53.5899 91.6481 56.7187C92.0522 57.9621 92.7022 59.1182 93.7132 60.3916C94.6978 61.6317 96.1684 65.014 97.5653 69.2503C99.8556 76.1962 100.081 77.8332 99.2845 81.7571C98.4256 85.9921 96.9964 89.6278 93.5009 96.4721C92.1355 99.1458 90.7491 101.868 90.4201 102.522C90.091 103.175 89.5729 104.585 89.2688 105.654C88.6677 107.767 87.5427 110.268 86.7611 111.229L86.2682 111.835L86.263 110.041C86.2583 108.472 86.1697 108.059 85.5559 106.747C84.1584 103.76 82.4307 102.34 80.6777 102.737C80.2104 102.843 79.7908 102.892 79.745 102.846C79.6992 102.8 79.8717 102.466 80.128 102.105C80.7728 101.195 81.9567 98.5497 82.3587 97.1203C82.9964 94.8524 83.3607 92.2349 83.6747 87.6611C83.9693 83.3723 84.0302 82.9903 84.578 81.9788C84.9012 81.3825 85.5537 80.6079 86.028 80.2573C86.7689 79.71 87.0827 79.6201 88.2531 79.6201C89.7603 79.6201 90.7818 79.2773 91.4212 78.5565C91.7815 78.1506 91.7972 78.0512 91.5288 77.874C91.1126 77.599 90.1599 77.782 88.5178 78.4522C86.9465 79.0936 86.5209 79.0401 84.9516 78.0037C83.5861 77.1016 82.4804 75.7675 81.7128 74.0957C81.2335 73.0515 81.1102 72.4347 81.0466 70.7621C80.964 68.5948 81.0539 68.2096 82.3961 64.9721C83.0301 63.4427 83.0512 62.2743 82.4467 62.1591C81.9686 62.0682 81.6642 62.7788 80.89 65.7929C78.992 73.1803 75.3303 75.5997 67.9971 74.3111C66.4486 74.0391 63.2243 73.1367 61.6975 72.5481C61.5494 72.4911 61.4278 72.5566 61.4278 72.694C61.4278 73.106 66.8338 75.6228 68.6326 76.0482C71.4304 76.7102 75.1062 76.1711 76.7723 74.8545C77.5268 74.2582 77.6719 74.5903 77.6276 76.8115C77.6033 78.0412 77.4085 79.2902 77.0379 80.5924C75.7002 85.2954 75.5709 86.0656 75.6789 88.6943C75.7591 90.6467 75.9525 91.8266 76.5815 94.2036C77.9352 99.3179 78.0225 99.7684 77.9449 101.249C77.8636 102.798 77.2685 103.897 76.2422 104.395C75.9604 104.531 75.2683 104.856 74.704 105.116C72.9144 105.941 71.7511 108.287 72.049 110.47C72.1251 111.029 72.4765 112.088 72.8297 112.824C73.1828 113.559 73.4716 114.245 73.4716 114.348C73.4716 114.451 73.7545 114.984 74.1001 115.531C75.4585 117.683 78.0885 118.323 80.6782 117.132C81.3563 116.82 81.9443 116.565 81.9845 116.565C82.1378 116.565 84.0801 122.892 85.1015 126.719C88.2045 138.347 90.182 150.86 91.2098 165.371C91.735 172.785 91.6148 178.942 90.8726 182.632L90.6427 183.776L89.7717 182.985C88.3286 181.675 86.7551 181.058 84.8703 181.063C83.628 181.065 83.0519 181.175 82.3641 181.541C80.6141 182.471 79.6779 184.185 79.6779 186.458C79.6779 188.592 81.0799 190.368 83.2697 191.007C86.4355 191.932 89.1785 190.077 90.3997 186.187C90.5954 185.563 90.833 185.053 90.9279 185.053C91.1784 185.053 92.166 187.09 92.746 188.802C93.4807 190.972 94.704 196.897 95.0774 200.095C95.2561 201.625 95.5153 205.322 95.6536 208.31C95.9271 214.227 95.7204 221.04 95.0615 227.831C94.5225 233.384 94.8374 241.332 95.742 245.007C96.3667 247.545 97.1732 248.813 99.6147 251.094C102.353 253.651 103.478 254.501 106.748 256.475C109.615 258.207 109.975 258.679 109.226 259.727C108.983 260.068 108.499 260.514 108.151 260.717L107.519 261.088L107.54 260.129C107.575 258.477 106.023 257.554 104.814 258.509C103.809 259.304 104.074 260.789 105.339 261.447C106.167 261.877 105.838 262.175 104.53 262.18C102.46 262.188 99.9416 261.262 95.3202 258.796C93.8949 258.036 93.7184 257.997 91.0137 257.855C87.8412 257.689 87.1797 257.461 86.2256 256.205C85.7118 255.529 85.6254 255.218 85.6389 254.099C85.6477 253.376 85.7344 252.22 85.8316 251.53C85.9516 250.678 85.92 249.905 85.7327 249.121C85.4976 248.137 85.509 247.708 85.8088 246.213C86.2738 243.895 86.2512 241.721 85.7402 239.606C85.3466 237.977 83.7663 233.459 80.827 225.563C78.5425 219.425 76.9256 213.064 76.1596 207.198C75.9733 205.772 75.7303 201.932 75.6197 198.664C75.3533 190.798 75.2014 190.115 72.0602 182.669C67.2689 171.311 62.9333 159.429 62.9333 157.655C62.9333 156.773 63.8039 155.779 64.9287 155.375C65.4281 155.196 66.9497 154.942 68.31 154.81C71.5922 154.492 79.4123 153.194 81.9718 152.541C83.097 152.255 84.766 151.679 85.6804 151.263C87.053 150.637 87.3435 150.418 87.3435 150.009C87.3435 149.196 86.5942 149.294 83.8315 150.469C80.7833 151.766 78.9802 152.22 73.4362 153.087C71.1491 153.445 68.4552 153.936 67.4497 154.179C65.044 154.759 62.7273 154.942 62.0933 154.601C61.4693 154.265 61.0669 153.286 60.8837 151.659L60.7381 150.367L61.9266 149.872C63.4654 149.231 65.084 147.554 65.084 146.6C65.084 145.41 63.5028 145.186 61.9234 146.154C60.9753 146.735 60.5456 147.474 60.38 148.808L60.2389 149.945L58.5926 149.92C57.1467 149.898 56.7819 149.804 55.5982 149.152C54.3048 148.439 54.24 148.363 53.9968 147.278C53.6357 145.668 53.0731 144.52 52.521 144.267C51.898 143.982 51.3196 144.308 51.3196 144.944C51.3196 145.517 52.3087 147.13 53.1174 147.876C53.4299 148.164 53.6854 148.567 53.6854 148.771C53.6854 149.388 52.395 154.179 52.0466 154.856C51.6296 155.666 50.4772 156.161 49.4264 155.982C46.0042 155.398 33.8484 152.64 31.3043 151.871C29.5694 151.346 27.949 150.917 27.7037 150.917C26.7956 150.917 26.8819 151.764 27.8353 152.21C30.3696 153.396 33.4227 154.074 41.4265 155.231C44.7977 155.719 47.9119 156.272 48.3467 156.46C48.7816 156.648 49.4107 157.088 49.7447 157.439C50.8263 158.574 50.5458 160.084 47.5854 169.065C44.6601 177.941 42.9619 182.313 40.0376 188.496C37.6 193.65 37.0525 195.576 36.0412 202.553C34.6878 211.89 32.6515 217.155 25.5119 229.776C21.3056 237.211 20.1498 239.813 18.7953 244.899C18.2191 247.063 18.131 247.764 18.1127 250.328L18.0916 253.272L17.3169 254.433C16.2859 255.978 16.1237 256.456 15.6373 259.394C15.0357 263.026 14.3589 264.421 12.813 265.213C11.9484 265.656 10.6718 265.79 10.6718 265.438C10.6718 265.328 10.8664 265.175 11.1043 265.099C11.5903 264.944 12.1772 263.946 12.1772 263.274C12.1772 262.089 10.3965 261.543 9.44889 262.437C8.9095 262.946 8.78024 264.051 9.17382 264.79C9.38953 265.195 9.2921 265.208 6.07189 265.208C2.80888 265.208 2.73489 265.198 2.0856 264.649C1.58127 264.223 1.42384 263.911 1.42384 263.341C1.42384 262.233 1.87268 261.515 4.64986 258.186C6.03769 256.523 7.3423 254.829 7.54941 254.422C7.7606 254.007 7.99482 252.869 8.08299 251.829C8.21741 250.249 8.4 249.627 9.32436 247.6C11.3494 243.16 12.0577 240.153 12.2768 235.069C12.9341 219.819 13.5218 213.689 15.1041 205.578C16.3203 199.344 18.3637 192.419 20.4999 187.293C21.1178 185.81 21.3211 185.495 21.4482 185.823C21.537 186.053 21.7706 186.692 21.9671 187.242C23.0763 190.348 26.521 191.768 29.5311 190.36C32.1104 189.154 33.1477 185.617 31.6869 183.011C30.7015 181.252 28.3129 180.088 26.3094 180.39C24.9736 180.591 23.2289 181.681 22.4377 182.809C21.7914 183.73 21.7435 183.757 21.548 183.317C21.2957 182.749 21.6581 176.896 22.29 171.334C23.9511 156.712 27.1451 142.151 31.5792 128.988C32.8905 125.095 33.1217 124.183 33.2068 122.567C33.3253 120.316 33.2401 120.309 35.7575 122.779C36.7206 123.724 37.9338 124.704 38.4534 124.957C40.5316 125.968 42.7502 125.968 44.8257 124.959C45.7354 124.517 47.0183 123.065 47.0183 122.479C47.0183 122.321 47.2688 122.027 47.5751 121.826C48.0409 121.519 48.1166 121.333 48.0398 120.686C47.9895 120.261 47.8846 119.768 47.8069 119.59C47.6278 119.178 48.639 118.503 50.2256 117.975C51.5188 117.544 51.7367 117.537 56.5019 117.76C60.0979 117.928 62.6481 117.726 66.0518 117.001C68.7933 116.417 71.3823 115.633 71.4713 115.36C71.6072 114.943 70.474 114.62 68.8731 114.62C68.0111 114.62 65.2814 114.953 62.8075 115.36C60.3336 115.767 56.9725 116.309 55.3384 116.565L52.3677 117.031L50.9295 116.591C48.9481 115.985 47.6633 115.105 45.7498 113.046C41.3762 108.339 41.0805 108.109 37.9226 106.959C36.1784 106.324 36.1765 106.316 36.0214 99.399C35.8597 92.1954 35.5093 89.8214 33.4896 82.2454C31.7654 75.7788 31.0905 71.7209 31.5833 70.7832C32.2898 69.4387 33.3335 69.6293 34.174 71.256C35.3119 73.4586 37.7342 75.2803 40.8888 76.3059C42.2534 76.7497 43.1896 76.8875 45.4145 76.9731C48.7193 77.1001 50.8577 76.6773 53.3628 75.4018C54.9691 74.5838 56.4565 73.4739 56.2391 73.2553C56.1664 73.1825 55.624 73.3141 55.0334 73.5478C49.8858 75.5863 43.8206 74.8303 36.7578 71.2702L33.9174 69.8382L33.6957 68.7338C33.5737 68.1264 33.383 66.6268 33.2718 65.4014C33.0713 63.1927 32.8412 62.5521 32.2489 62.5521C31.9057 62.5521 31.3183 63.7951 31.3183 64.521C31.3183 65.6105 28.434 70.6445 26.1949 73.4627C23.4137 76.9634 21.1163 78.9938 19.1984 79.6461L18.1215 80.0123L17.163 78.9413C15.7568 77.3702 14.1516 76.643 13.5107 77.2868C13.1367 77.6625 13.1771 77.7904 13.9501 78.6747C14.6813 79.5115 16.4635 80.4787 17.2808 80.4822C17.6262 80.4837 17.8886 80.7369 18.2189 81.3874C18.657 82.2501 21.137 88.5523 24.5564 97.4919C27.0965 104.133 28.4056 106.434 30.1182 107.266C30.7103 107.554 32.0205 107.842 33.6748 108.047C35.1151 108.226 36.8176 108.569 37.4579 108.809C39.1679 109.452 41.5485 111.267 43.0595 113.08C44.4246 114.717 47.1727 119.074 46.9695 119.278C46.9067 119.342 46.5393 118.83 46.1531 118.141C44.2138 114.684 41.9076 112.009 39.5967 110.536C38.3848 109.764 37.5688 109.688 37.0219 110.294C36.4509 110.928 36.7137 111.999 37.9155 113.936C39.2319 116.058 41.7244 118.681 43.846 120.178C44.7629 120.825 45.5128 121.401 45.5128 121.458C45.5128 121.807 44.231 123.15 43.4709 123.597C41.5446 124.731 39.2205 124.124 36.3094 121.725C34.0346 119.851 32.1538 118.686 28.6695 116.994C26.9722 116.17 24.8172 114.997 23.8806 114.387C21.6407 112.928 17.3363 108.561 14.8467 105.222C10.2378 99.0403 4.99526 89.5278 3.15643 84.0107C1.87376 80.1616 2.09227 77.7053 3.95584 75.0254C4.51501 74.2213 5.46024 72.8601 6.05641 72.0007C7.12486 70.4607 7.63866 69.3709 8.96456 65.8342C10.1838 62.5817 11.7348 60.6636 17.9987 54.663C19.5642 53.1634 20.96 51.6191 21.3155 50.9934C23.9167 46.4142 29.2588 42.6316 34.6205 41.5729C36.0836 41.2841 39.1438 41.2977 40.828 41.6006C41.5712 41.7341 43.5826 42.3181 45.2977 42.898C47.0129 43.4781 48.8201 44.0422 49.3137 44.1515C50.2656 44.3626 50.7327 44.1595 50.528 43.6237C50.2993 43.0252 43.2804 41.1639 39.2092 40.6223C37.4912 40.3937 37.926 39.9504 41.7521 38.0303C43.6464 37.0797 45.6421 35.9899 46.187 35.6086C49.5251 33.2725 50.9129 29.6247 49.8284 26.0373C49.4309 24.7235 49.3963 24.3709 49.612 23.8477C49.9985 22.9104 49.7423 21.3737 49.0313 20.3645C48.2341 19.2328 47.7818 18.9457 47.2871 19.2568C46.643 19.6619 46.6998 20.7625 47.4235 21.8954C48.8188 24.0797 48.9132 24.9592 47.7527 24.9592C47.172 24.9592 46.9273 24.5783 45.6595 21.704C44.4889 19.05 44.3839 18.0798 45.1805 17.2797C45.947 16.5095 46.9348 16.5767 48.2872 17.4908C49.4535 18.2794 49.4617 18.274 49.3986 16.7325C49.3713 16.0627 49.4662 15.6535 49.6922 15.4651C49.8757 15.3121 50.231 14.4933 50.4815 13.6455C51.0654 11.6712 51.7227 10.5545 53.0167 9.33854C55.7363 6.78288 58.8963 6.21466 65.0328 7.17717ZM49.1152 17.3074C48.9102 17.5133 48.4992 17.1799 48.6521 16.9317C48.7429 16.7841 48.8631 16.7878 49.0176 16.9429C49.1442 17.0701 49.1881 17.2341 49.1152 17.3074ZM48.1928 19.9045C49.1229 20.8389 49.7817 23.3905 49.1881 23.7591C48.9584 23.9017 47.2333 20.7832 47.2333 20.2256C47.2333 19.5055 47.6551 19.3644 48.1928 19.9045ZM48.0287 43.0064C49.0107 43.3074 49.8142 43.6034 49.8142 43.6643C49.8142 43.8615 48.2356 43.4882 46.9107 42.9777C45.1827 42.3118 45.8145 42.328 48.0287 43.0064ZM66.9121 43.3419C66.2262 43.5515 63.1069 43.8332 63.471 43.6526C63.8104 43.4843 65.9754 43.1587 66.8045 43.1514L67.5573 43.1447L66.9121 43.3419ZM81.9628 64.9773C81.6432 65.7957 81.3315 66.4149 81.27 66.3531C81.2087 66.2915 81.4317 65.3867 81.766 64.3425C82.1995 62.9879 82.398 62.5938 82.4587 62.9667C82.5056 63.2541 82.2823 64.1589 81.9628 64.9773ZM32.6111 63.0382C32.6494 63.9359 33.2804 69.1179 33.369 69.262C33.438 69.3739 33.2038 69.4658 32.8485 69.4658C32.476 69.4658 31.9474 69.6861 31.5998 69.9864C31.0445 70.4665 31.0002 70.6175 31.0361 71.9158C31.0974 74.1268 31.6486 76.9288 33.1468 82.6449C35.1799 90.402 35.4364 92.1684 35.5476 99.1728C35.6655 106.608 35.7014 106.713 38.4156 107.591C40.0767 108.128 41.3824 109.01 42.83 110.573C46.5167 114.555 47.562 115.512 49.0305 116.25C49.8481 116.661 50.6686 116.997 50.8538 116.997C51.3923 116.997 50.8701 117.331 49.8989 117.608C49.4133 117.747 48.6586 118.103 48.2222 118.401L47.4286 118.942L47.0621 118.27C45.8358 116.021 43.5066 112.802 42.1201 111.438C39.5694 108.93 37.585 108.079 32.9991 107.524C30.0632 107.169 29.2655 106.603 27.6553 103.733C27.1232 102.784 19.1667 82.7738 18.4972 80.7004C18.4226 80.4697 18.7 80.2668 19.4607 79.9959C21.7433 79.1826 25.0198 76.0171 27.948 71.7961C29.6492 69.3439 31.7484 65.3774 31.7484 64.6152C31.7484 63.9925 32.1687 62.9842 32.4283 62.9842C32.5274 62.9842 32.6098 63.0086 32.6111 63.0382ZM81.1676 73.9626C81.8182 75.6381 83.217 77.3732 84.6872 78.3277C85.392 78.7853 86.0845 79.2047 86.2261 79.2596C86.3846 79.3209 86.277 79.511 85.9456 79.7547C83.921 81.2433 83.6265 82.106 83.2431 87.6683C82.8781 92.9671 82.4877 95.4107 81.595 97.9845C80.8653 100.089 80.045 101.623 78.8126 103.189C78.3386 103.792 77.9952 104.329 78.0494 104.384C78.1036 104.438 78.6283 104.183 79.2153 103.816C81.2076 102.572 82.4286 102.876 84.0653 105.025C85.6897 107.158 86.3063 110.062 85.5729 112.125C85.2518 113.028 84.9821 113.339 83.8349 114.123C83.088 114.634 82.3621 115.051 82.2219 115.05C82.0817 115.049 81.5324 114.209 81.0012 113.184C79.3682 110.032 76.6392 107.491 74.8877 107.491C74.4934 107.491 74.039 107.742 73.5577 108.225C72.8867 108.899 72.8247 109.073 72.8049 110.332C72.7892 111.346 72.7387 111.563 72.6114 111.164C71.85 108.775 73.2527 105.933 75.578 105.152C78.4109 104.2 79.04 101.882 77.7663 97.0887C76.349 91.754 76.0398 90.1429 76.0314 88.0461C76.023 85.9891 76.1264 85.4678 77.5749 80.2683C78.0823 78.4472 78.2126 75.3292 77.8203 74.3911L77.5762 73.8071L76.3348 74.5583C74.5874 75.6152 73.6831 75.8339 71.1059 75.8228C69.1195 75.8142 68.6367 75.733 67.0957 75.1472C65.298 74.4641 64.0663 73.8518 65.0001 74.1054C68.0149 74.9247 71.6143 75.26 73.5233 74.8997C76.2374 74.387 78.6273 72.5419 79.8617 70.0054L80.4614 68.7731L80.5917 70.7938C80.6721 72.0426 80.8921 73.2531 81.1676 73.9626ZM41.7491 73.8944C45.5287 75.1215 50.223 75.4072 53.2015 74.5913C53.8226 74.4213 54.3306 74.3204 54.3306 74.3671C54.3306 74.6246 51.0222 75.9842 49.6479 76.2914C47.211 76.8361 43.1769 76.6345 40.891 75.8542C38.8442 75.1552 37.0892 74.1216 36.0298 72.9911C35.2594 72.169 34.3293 70.9083 34.3293 70.6864C34.3293 70.6221 35.6115 71.192 37.1789 71.9527C38.7463 72.7134 40.8028 73.5871 41.7491 73.8944ZM15.0652 77.7908C15.8773 78.178 17.4838 79.7625 17.2759 79.9715C16.8175 80.4319 13.4515 78.2264 13.7851 77.6841C13.9731 77.3784 14.2484 77.4015 15.0652 77.7908ZM91.1072 78.291C91.1072 78.63 89.4661 79.2215 88.7239 79.15C88.009 79.0809 88.0242 79.0662 89.2792 78.6105C90.7152 78.089 91.1072 78.0205 91.1072 78.291ZM76.1619 108.262C77.6973 108.994 80.8934 113.079 81.3242 114.86C81.4457 115.363 81.3855 115.439 80.7728 115.562C77.5556 116.209 73.9558 114.734 73.4633 112.568C73.0176 110.607 73.3637 108.392 74.1661 108.067C74.6975 107.853 75.4582 107.927 76.1619 108.262ZM39.8436 111.239C42.1489 112.958 44.1258 115.349 45.9152 118.582C46.5752 119.775 46.5946 119.872 46.2731 120.365C46.0859 120.651 45.8556 120.886 45.7612 120.886C45.6666 120.886 44.9784 120.459 44.2319 119.937C40.6417 117.427 36.8053 112.473 37.2069 110.866C37.4271 109.984 38.3319 110.112 39.8436 111.239ZM74.944 115.027C76.3153 116.004 78.8613 116.395 80.8388 115.934C82.1329 115.632 82.0172 116.084 80.6384 116.718C78.8245 117.552 77.0235 117.53 75.8185 116.659C75.013 116.077 73.8738 114.62 74.2237 114.62C74.3059 114.62 74.63 114.803 74.944 115.027ZM70.4607 115.269C70.4607 115.387 70.4265 115.485 70.3848 115.485C70.343 115.485 69.2058 115.772 67.8577 116.122C66.5097 116.473 64.3779 116.91 63.1209 117.094C60.7915 117.435 54.5454 117.561 54.5459 117.267C54.5459 117.178 57.3284 116.653 60.7291 116.1C66.689 115.131 70.4607 114.809 70.4607 115.269ZM82.9346 115.377C82.7873 115.555 82.5095 115.697 82.317 115.693C82.0761 115.688 82.1346 115.589 82.5045 115.377C83.1947 114.98 83.2622 114.98 82.9346 115.377ZM26.304 116.363C27.223 116.711 31.362 118.97 31.2635 119.068C31.1512 119.181 27.7267 118.018 26.901 117.587C26.1663 117.203 25.1056 116.133 25.4601 116.133C25.5913 116.133 25.9711 116.236 26.304 116.363ZM47.6635 120.683C47.6635 121.032 47.5667 121.318 47.4484 121.318C47.3301 121.318 47.2333 120.972 47.2333 120.549C47.2333 120.091 47.3204 119.834 47.4484 119.914C47.5667 119.987 47.6635 120.333 47.6635 120.683ZM46.7146 121.263C46.4834 121.495 46.3606 121.17 46.523 120.755C46.6752 120.365 46.6869 120.365 46.7621 120.741C46.8056 120.958 46.7843 121.193 46.7146 121.263ZM36.603 122.511C38.3203 123.886 39.9103 124.559 41.4416 124.559C42.9139 124.559 43.8064 124.132 45.0285 122.845C46.1455 121.669 46.9458 121.374 46.6851 122.236C46.3924 123.205 45.4395 124.184 44.2645 124.725C41.5865 125.956 38.7014 125.208 36.164 122.625C35.4581 121.906 34.9327 121.318 34.9966 121.318C35.0605 121.318 35.7833 121.855 36.603 122.511ZM53.1172 145.783C53.2983 146.29 53.5118 146.947 53.5916 147.244L53.7366 147.784L53.0909 147.174C52.253 146.382 51.6455 145.236 51.8203 144.778C52.0446 144.191 52.7402 144.73 53.1172 145.783ZM64.5868 146.3C64.913 147.154 62.8608 149.257 61.2369 149.734C60.734 149.882 60.7254 149.862 60.8295 148.774C60.9474 147.543 61.5128 146.743 62.6107 146.253C63.5118 145.85 64.4235 145.872 64.5868 146.3ZM87.0209 150.024C87.0209 150.303 84.2143 151.511 82.4421 151.995C80.5988 152.498 76.5536 153.298 75.9449 153.279C75.7084 153.271 76.5906 153.041 77.9053 152.766C80.7293 152.177 81.8782 151.81 84.3947 150.694C86.2667 149.864 87.0209 149.671 87.0209 150.024ZM30.9411 152.215C32.5089 152.691 34.953 153.332 36.3724 153.639C41.3413 154.714 40.5232 154.81 34.985 153.802C32.0695 153.271 28.4327 152.196 27.7232 151.655C27.3621 151.38 27.3617 151.362 27.715 151.356C27.9215 151.352 29.3732 151.739 30.9411 152.215ZM75.3894 153.381C75.2664 153.501 70.7519 154.164 70.2929 154.13C70.0895 154.115 70.8908 153.93 72.0737 153.72C74.1717 153.348 75.5696 153.205 75.3894 153.381ZM29.3218 181.349C31.1368 182.279 32.1295 184.143 31.891 186.173C31.5826 188.798 29.7089 190.485 27.1006 190.485C24.511 190.485 22.7504 188.892 21.9336 185.809L21.6473 184.729L22.4358 183.576C24.2428 180.932 26.8584 180.086 29.3218 181.349ZM87.7115 182.096C88.3372 182.404 89.2312 183.049 89.6981 183.529L90.5474 184.403L90.0768 185.87C88.8679 189.641 86.5936 191.342 83.6474 190.68C81.9868 190.307 80.4996 188.865 80.1755 187.315C79.6876 184.98 80.8265 182.666 82.9346 181.711C84.0446 181.208 86.2697 181.388 87.7115 182.096ZM106.402 258.74C107.429 259.292 107.327 261.319 106.273 261.319C105.511 261.319 104.657 260.519 104.657 259.806C104.657 258.74 105.473 258.241 106.402 258.74ZM11.6097 262.874C12.1484 263.739 10.6995 265.386 9.8629 264.859C9.33641 264.528 9.25963 263.325 9.7317 262.801C10.1911 262.291 11.2724 262.333 11.6097 262.874Z" stroke="#B3A394" mask="url(#path-1-outside-1_63_1852)"/>
</svg>
