<svg width="29" height="38" viewBox="0 0 29 38" fill="none" xmlns="http://www.w3.org/2000/svg">
<path fill-rule="evenodd" clip-rule="evenodd" d="M3.90637 0.0583733C3.7846 0.107012 3.61321 0.256679 3.52549 0.390943C3.37865 0.615494 3.39098 0.884326 3.6792 3.76559C4.18205 8.79335 4.08009 9.29028 1.81359 12.8543C0.22831 15.3472 -0.00624284 15.9986 0.000123733 17.8908C0.00335755 18.8564 0.0477216 19.1893 0.258829 19.833C0.650121 21.0264 1.18602 21.9025 2.04662 22.7558C2.88903 23.5911 3.56591 23.9931 5.28287 24.6779C7.71075 25.6461 8.94526 26.4152 10.4039 27.8682C11.5784 29.0381 12.0643 29.7357 13.3708 32.1279C14.4867 34.171 14.9667 34.8738 15.7629 35.6292C16.8506 36.6614 18.0913 37.3554 19.5896 37.7692C20.3422 37.9771 20.6211 37.993 23.6318 37.9988C26.722 38.0048 26.8863 37.9956 27.3294 37.79C28.5984 37.2014 29.2727 35.7746 28.8959 34.475C28.6257 33.543 28.222 33.1203 26.9629 32.4511C24.5714 31.1802 23.066 29.6125 22.1714 27.4614C22.0079 27.0684 21.3215 24.5604 20.6459 21.8881C19.9705 19.2159 19.3562 16.881 19.2811 16.6995C18.9694 15.9463 17.8211 16.1507 17.8211 16.9595C17.8211 17.3434 20.3505 27.1265 20.6535 27.9142C21.5868 30.3408 23.6397 32.5536 26.0951 33.7796C26.7536 34.1083 27.1066 34.35 27.2349 34.5598C27.5924 35.1446 27.4001 35.9198 26.8111 36.2687C26.5698 36.4117 26.1364 36.4345 23.6577 36.4345C21.1302 36.4345 20.6904 36.4104 20.0062 36.235C18.494 35.8471 16.9431 34.8167 16.0712 33.6205C15.879 33.3568 15.2388 32.2597 14.6485 31.1823C13.3726 28.8536 12.9012 28.1672 11.7587 26.9736C10.2302 25.3771 8.64573 24.3525 6.09849 23.3139C4.38073 22.6135 3.79167 22.2723 3.1055 21.5801C1.99013 20.455 1.4797 19.0847 1.57994 17.4855C1.65665 16.2629 1.9006 15.6799 3.20605 13.5989C4.55758 11.4444 4.76929 11.0374 5.13785 9.8856C5.56451 8.55168 5.58341 7.28584 5.23173 3.57346C4.97717 0.887062 4.91815 0.496024 4.73736 0.29782C4.48684 0.0232112 4.20065 -0.0592726 3.90637 0.0583733ZM16.7413 0.054928C16.2937 0.240263 16.2884 0.312614 16.3298 5.66221C16.3666 10.4197 16.3839 10.8284 16.5995 12.0136C16.9186 13.7681 17.0931 14.2592 17.459 14.4336C17.8353 14.613 18.2151 14.4895 18.4218 14.1202C18.5588 13.8755 18.5554 13.7561 18.3877 12.9241C17.923 10.6195 17.9059 10.3753 17.8524 5.3494C17.8062 1.00278 17.7819 0.436745 17.6339 0.261847C17.4313 0.0225019 17.0394 -0.0683925 16.7413 0.054928Z" fill="#B3A394"/>
</svg>
