<svg width="32" height="38" viewBox="0 0 32 38" fill="none" xmlns="http://www.w3.org/2000/svg">
<path fill-rule="evenodd" clip-rule="evenodd" d="M11.6271 0.10286C11.2594 0.30683 11.2336 0.432138 11.1922 2.21914C11.156 3.77892 11.1416 3.91388 10.9778 4.2422C10.7631 4.67264 10.3198 5.13547 9.93846 5.32756C9.78187 5.40644 8.52156 5.82983 7.13777 6.26837C4.32897 7.15846 3.92356 7.31957 3.13498 7.85876C1.6652 8.86368 0.7611 10.1361 0.202029 11.9868C0.0458134 12.504 0.0448368 12.5724 0.022456 24.9967L0 37.4867L0.193767 37.7145C0.437479 38.001 0.798502 38.0794 1.11912 37.9155C1.6139 37.6624 1.58011 38.5908 1.58011 25.2462C1.58011 11.7426 1.54976 12.5487 2.10087 11.3926C2.67181 10.1948 3.55623 9.29717 4.69691 8.75798C5.02736 8.6017 6.42992 8.11651 7.81371 7.6796C9.19749 7.24276 10.4987 6.79687 10.7052 6.68872C11.2465 6.40534 12.0292 5.61138 12.3105 5.06015C12.6993 4.29835 12.7682 3.85275 12.7694 2.09034L12.7705 0.513102L12.564 0.286477C12.3148 0.0130567 11.9263 -0.0630791 11.6271 0.10286ZM19.7092 0.0635664C19.622 0.0984031 19.4783 0.217843 19.39 0.32889C19.2377 0.520381 19.2295 0.61011 19.2295 2.07043C19.2295 3.83671 19.2818 4.20134 19.6437 4.95654C19.9486 5.59296 20.6931 6.37385 21.2948 6.6885C21.5013 6.7965 22.8025 7.24172 24.1863 7.67781C25.5701 8.11398 26.9726 8.59932 27.3031 8.75642C28.4462 9.29977 29.3287 10.1959 29.8991 11.3926C30.4502 12.5487 30.4199 11.7426 30.4199 25.2462C30.4199 38.5908 30.3861 37.6624 30.8809 37.9155C31.2015 38.0794 31.5625 38.001 31.8062 37.7145L32 37.4867L31.9778 24.9967C31.9569 13.2836 31.9472 12.479 31.822 12.0611C31.2358 10.1035 30.3291 8.83879 28.753 7.78017C28.0581 7.31355 27.5779 7.12667 24.8622 6.266C23.4784 5.82746 22.2181 5.40466 22.0615 5.32637C21.6817 5.13659 21.231 4.66715 21.0178 4.239C20.8563 3.91463 20.8416 3.77439 20.8066 2.21914C20.7662 0.416985 20.7411 0.299179 20.3575 0.102934C20.1146 -0.0212601 19.9471 -0.0314363 19.7092 0.0635664ZM10.1044 9.56866C9.71488 9.72635 9.65652 9.89556 9.6074 11.0102C9.54049 12.5288 9.259 13.3041 8.41791 14.2863C8.09279 14.6659 8.03902 14.7734 8.03902 15.0435C8.03902 15.6018 8.56805 15.9513 9.10459 15.7475C9.41026 15.6314 10.1106 14.7428 10.4879 13.9923C10.9502 13.0731 11.1112 12.4128 11.1679 11.2053C11.2079 10.3523 11.1961 10.165 11.0903 9.96233C10.8948 9.58849 10.4722 9.41973 10.1044 9.56866ZM21.2137 9.63469C20.8386 9.86711 20.7784 10.1173 20.8296 11.2301C20.8544 11.7689 20.93 12.4269 20.9975 12.6925C21.2787 13.7984 22.3641 15.5457 22.8954 15.7475C23.4321 15.9514 23.961 15.6018 23.961 15.0432C23.961 14.7693 23.9073 14.6657 23.5489 14.2489C22.7369 13.3042 22.3838 12.2599 22.3838 10.8027C22.3838 10.0541 22.375 10.0111 22.1773 9.79417C21.909 9.49988 21.532 9.43748 21.2137 9.63469ZM15.6513 12.7623C15.5627 12.7997 15.436 12.907 15.3697 13.0008C15.2602 13.1554 15.249 14.1556 15.249 23.7724V34.3736L15.4302 34.582C15.5854 34.7604 15.6674 34.7904 16 34.7904C16.3326 34.7904 16.4146 34.7604 16.5698 34.582L16.751 34.3736V23.76V13.1464L16.5819 12.952C16.3959 12.7381 15.9322 12.6436 15.6513 12.7623ZM5.06491 17.6988C4.91613 17.846 4.80956 18.0259 4.80956 18.13C4.80956 18.2281 4.92905 18.6576 5.07513 19.0844C5.91914 21.5505 6.29466 23.652 6.36383 26.2962C6.43443 28.9938 6.2158 30.8458 5.49225 33.6781C5.12575 35.1128 4.80964 36.769 4.80956 37.2545C4.80956 37.5681 5.12087 37.9286 5.44336 37.9884C5.73273 38.0421 6.11291 37.8786 6.23856 37.6464C6.28339 37.5636 6.40048 37.0185 6.49879 36.4354C6.5971 35.8521 6.84847 34.697 7.05734 33.8685C7.67927 31.4013 7.87214 30.0517 7.93913 27.6968C8.02722 24.5982 7.61716 21.7935 6.64644 18.8561C6.37089 18.0221 6.26282 17.7903 6.07784 17.6364C5.7416 17.3565 5.38906 17.3783 5.06491 17.6988ZM25.9222 17.6364C25.7371 17.7904 25.629 18.0223 25.3525 18.8591C24.4086 21.7156 24.0749 23.8493 24.0749 27.0283C24.0749 29.7811 24.2362 31.0364 24.9702 33.9932C25.1961 34.903 25.4354 36.0228 25.502 36.4816C25.647 37.4792 25.7554 37.7523 26.0702 37.9133C26.5557 38.1617 27.1904 37.7884 27.1904 37.2545C27.1904 36.769 26.8743 35.1128 26.5077 33.6781C25.7842 30.8458 25.5656 28.9938 25.6362 26.2962C25.7053 23.652 26.0809 21.5505 26.9249 19.0844C27.0709 18.6576 27.1904 18.2281 27.1904 18.13C27.1904 18.0259 27.0839 17.846 26.9351 17.6988C26.6109 17.3783 26.2584 17.3565 25.9222 17.6364Z" fill="#B3A394"/>
</svg>
