<svg width="42" height="22" viewBox="0 0 42 22" fill="none" xmlns="http://www.w3.org/2000/svg">
<path fill-rule="evenodd" clip-rule="evenodd" d="M7.03767 0.0452716C5.94527 0.171589 4.79474 0.366038 3.93164 0.570184C2.64794 0.873875 0.370072 1.6123 0.202137 1.77923C-0.00398721 1.98412 -0.0409262 2.28765 0.112083 2.51964C0.393085 2.94592 0.507905 2.9412 2.08894 2.43808C3.82666 1.88524 5.05932 1.59945 6.5558 1.40268C7.79321 1.23989 7.99659 1.13911 7.99659 0.688129C7.99659 0.21328 7.64187 -0.0245177 7.03767 0.0452716ZM9.61881 0.190736C9.28703 0.520453 9.3534 0.986431 9.7619 1.19646C10.2079 1.42572 10.6649 1.1459 10.6649 0.643537C10.6649 0.0643354 10.0246 -0.21275 9.61881 0.190736ZM12.3071 0.493763C12.0602 0.636491 11.9838 0.951124 12.1183 1.27106C12.2138 1.49808 12.306 1.57077 12.5972 1.64794C14.4683 2.14409 15.9961 2.86502 17.3772 3.90341C17.8817 4.28269 18.7731 4.95539 19.3581 5.39833C20.4684 6.23903 20.6997 6.33186 21.0597 6.08122C21.2576 5.94346 21.3697 5.60479 21.2949 5.37073C21.2416 5.20355 18.1424 2.80336 17.1976 2.19763C16.2852 1.61255 15.291 1.15162 14.1039 0.763307C12.9843 0.396954 12.5794 0.336281 12.3071 0.493763ZM31.3665 2.80518C30.8158 2.92047 30.2941 3.17991 29.6468 3.66022C29.3191 3.90341 28.1504 4.73889 27.0497 5.51685L25.0485 6.93137L23.28 7.22404L21.5114 7.51671L19.6111 6.6242C16.4467 5.13815 14.1939 4.26189 12.4993 3.85799C10.816 3.45683 10.2824 3.48293 10.0767 3.9766C9.85888 4.49927 10.2333 4.83173 11.1258 4.90798C12.6409 5.03753 15.7005 6.17364 19.6607 8.07726L21.2771 8.85431L23.2879 8.52608C24.3938 8.34564 25.3973 8.16445 25.5179 8.12351C25.6386 8.08256 26.8501 7.25156 28.2104 6.27674C31.0846 4.21705 31.3689 4.04863 31.9719 4.04863C32.4035 4.04863 32.9283 4.18 32.9283 4.28808C32.9283 4.44142 30.0812 7.10543 28.3301 8.59057L26.3585 10.2627L23.4938 10.8887C21.9183 11.233 20.5292 11.5538 20.4071 11.6015C19.9289 11.7883 19.9105 12.4126 20.3742 12.7146C20.577 12.8466 20.7109 12.8247 23.6925 12.1693C25.4014 11.7937 26.8721 11.449 26.9608 11.4034C27.0496 11.3577 28.2878 10.3229 29.7125 9.10379C32.286 6.90178 34.5211 4.76351 34.635 4.39475C34.8983 3.54228 32.7759 2.51003 31.3665 2.80518ZM35.7941 5.41565C34.8504 5.61963 34.4292 5.91396 34.4292 6.36941C34.4292 6.67542 34.5697 6.8712 34.8636 6.97456C34.942 7.00216 35.2696 6.9332 35.5916 6.82138C36.6233 6.46315 37.8415 6.58309 38.6306 7.1206C38.7926 7.23092 38.8968 7.3492 38.8624 7.38343C38.8279 7.41766 36.7563 8.52907 34.2588 9.85324C30.6081 11.7888 29.0183 12.5769 26.1486 13.8738L22.5792 15.4868L20.687 15.4875L18.7948 15.4883L11.7837 12.1721L4.77273 8.85597H2.67796C0.456791 8.85597 0.246997 8.88721 0.084316 9.24196C-0.0570192 9.55038 -0.0297527 9.6762 0.23549 9.93986L0.479221 10.1821H2.52062H4.56202L11.5644 13.4975L18.5669 16.8129L19.5981 16.8128L20.6292 16.8126L29.0051 19.477C38.449 22.481 37.613 22.2937 38.0147 21.4957C38.1935 21.1405 38.2231 20.9694 38.2223 20.2941C38.2216 19.6155 38.1906 19.4412 37.9988 19.0328C37.7572 18.5184 37.1541 17.8242 36.7137 17.5537C36.3335 17.3201 34.2888 16.6472 33.9592 16.6472C33.4573 16.6472 33.1852 17.2919 33.5186 17.6912C33.5677 17.7499 34.1355 17.9728 34.7806 18.1865C36.0557 18.6089 36.4585 18.8702 36.7699 19.477C36.9569 19.8412 36.9981 20.6664 36.8265 20.6078C36.7692 20.5884 33.8048 19.6453 30.2392 18.5123C26.6735 17.3792 23.7572 16.4308 23.7585 16.4046C23.7599 16.3785 25.2333 15.6945 27.0328 14.8847C29.6964 13.6859 31.2406 12.9156 35.3399 10.7404C38.6925 8.96148 40.4303 7.99479 40.54 7.84783C40.787 7.51679 40.6715 7.23747 40.0311 6.61649C38.9033 5.52274 37.3434 5.08063 35.7941 5.41565ZM36.9553 10.8541C36.4306 11.0048 36.2751 11.5273 36.6452 11.8951C36.8486 12.0973 36.891 12.1056 37.4402 12.0519C38.4037 11.9574 39.3164 12.2294 40.0159 12.8192L40.3077 13.0653L39.9742 13.1525C39.7908 13.2005 37.4643 13.7469 34.8044 14.3667C32.1445 14.9865 29.8682 15.5326 29.746 15.5802C29.4412 15.699 29.2908 16.0735 29.4217 16.3877C29.6421 16.9169 29.4279 16.9477 35.717 15.4825C38.884 14.7445 41.5612 14.0874 41.6665 14.022C41.7718 13.9566 41.9014 13.8083 41.9546 13.6922C42.0378 13.5107 42.0169 13.4156 41.8054 13.0127C41.2975 12.0458 40.1734 11.1829 39.045 10.8936C38.4903 10.7515 37.3851 10.7306 36.9553 10.8541Z" fill="#B3A394"/>
</svg>
