<svg width="38" height="38" viewBox="0 0 38 38" fill="none" xmlns="http://www.w3.org/2000/svg">
<path fill-rule="evenodd" clip-rule="evenodd" d="M15.9405 0.0447593C10.3397 0.579334 5.69067 4.18991 3.98098 9.33276C3.57886 10.5425 3.4122 11.506 3.33805 13.0503C3.24339 15.0213 3.03103 15.9878 2.43134 17.1767C2.01889 17.9945 1.51185 18.6342 0.67811 19.3888C0.296197 19.7345 0.00240721 20.2256 2.95484e-05 20.5224C-0.00257102 20.8351 0.166763 21.253 0.398585 21.5061C0.557666 21.6798 1.06767 21.9872 1.8977 22.4099L3.15578 23.0503L3.14575 23.8792C3.13788 24.5356 3.09954 24.814 2.96156 25.2175C2.73642 25.8758 2.72981 26.6254 2.94491 27.105C3.02806 27.2904 3.13751 27.6146 3.18803 27.8253C3.23848 28.036 3.37735 28.3622 3.49646 28.5502C3.69321 28.8607 3.71305 28.9515 3.71305 29.5429C3.71305 30.6854 4.07193 31.6089 4.79853 32.3359C5.55574 33.0937 6.44001 33.4221 7.72283 33.4221C9.01167 33.4221 10.1893 33.2558 12.2994 32.7759C12.4354 32.7449 12.555 32.964 13.3697 34.7359C14.7852 37.8144 14.807 37.8546 15.1203 37.958C15.6034 38.1176 16.0472 37.8054 16.0472 37.3061C16.0472 37.1455 15.6714 36.2461 14.9698 34.727C14.3772 33.4441 13.8924 32.3631 13.8924 32.3246C13.8924 32.2863 14.1181 32.1605 14.394 32.0452C15.5999 31.5413 17.0824 30.7274 17.2891 30.4559C17.339 30.3903 17.381 30.2086 17.3822 30.052C17.384 29.8348 17.3333 29.7161 17.1674 29.5502C16.8746 29.2572 16.5858 29.2662 16.0569 29.5851C13.8157 30.9359 11.2776 31.7249 8.48606 31.9386C7.51426 32.013 7.3161 32.0084 6.90031 31.9019C6.32625 31.755 5.91737 31.4865 5.61251 31.0561C5.26314 30.5631 5.18943 30.2701 5.14463 29.1969C5.10354 28.2121 5.10175 28.2041 4.86064 27.9154C4.71345 27.739 4.59732 27.5001 4.56529 27.3078C4.53631 27.1334 4.44663 26.8607 4.36601 26.7016C4.19809 26.37 4.20983 26.1609 4.44582 25.2875C4.65245 24.5225 4.676 22.7771 4.48512 22.3745C4.33377 22.0555 3.8057 21.7049 2.54108 21.084L1.56483 20.6046L2.21363 19.9316C3.19539 18.9131 3.80347 17.9191 4.22997 16.6356C4.56552 15.6259 4.68336 14.9091 4.75848 13.422C4.8388 11.8318 5.02062 10.7619 5.39183 9.69477C5.62863 9.01402 6.34208 7.47402 6.42069 7.47402C6.43793 7.47402 6.72681 7.57535 7.06258 7.6993C9.24996 8.50629 11.1548 10.0198 12.4403 11.9722C12.9226 12.7045 13.2056 13.2612 13.6006 14.254C14.2269 15.8282 14.9153 16.9871 15.9357 18.1848C16.4799 18.8235 18.4799 20.5988 18.7907 20.7191C19.2316 20.8897 19.48 20.6939 20.2051 19.6042C20.4596 19.2218 20.79 18.7733 20.9394 18.6074C21.7257 17.7346 23.0808 17.7418 23.8747 18.6231C24.3002 19.0953 24.3995 19.3804 24.3943 20.1135C24.383 21.6918 23.7314 23.1983 22.5589 24.3572C21.7564 25.1505 21.34 25.2865 20.0797 25.1675C19.2951 25.0934 18.9729 25.976 19.6137 26.444C20.0746 26.7806 21.4133 26.7497 22.2284 26.3837C22.4675 26.2763 22.6759 26.2017 22.6914 26.2179C22.707 26.2341 23.425 28.8059 24.2869 31.9329C26.0142 38.1993 25.9375 37.9913 26.5196 37.9913C26.8491 37.9913 27.1494 37.7677 27.225 37.4661C27.2542 37.3496 26.8896 35.9078 26.1893 33.3708C25.595 31.2173 25.1345 29.433 25.166 29.4059C25.1976 29.3788 25.5578 29.1396 25.9665 28.8742C26.9674 28.2243 27.6757 27.6394 28.5856 26.7112C29.2761 26.0069 29.3472 25.9085 29.3472 25.6576C29.3472 25.2624 29.0225 24.9462 28.6166 24.9462C28.3394 24.9462 28.2687 24.9976 27.515 25.7466C26.5896 26.6662 24.8217 28.0262 24.7045 27.9089C24.6889 27.8934 24.5033 27.2576 24.292 26.4961L23.9077 25.1117L24.3257 24.5643C25.2104 23.4055 25.7525 21.9218 25.8318 20.442C25.884 19.4657 25.8015 19.0309 25.4271 18.3086C24.7705 17.0422 23.2784 16.3024 21.8625 16.5413C20.799 16.7208 20.0361 17.2541 19.3178 18.3196C19.0939 18.652 18.8919 18.9239 18.8692 18.9239C18.7716 18.9239 17.4607 17.7216 17.0808 17.2836C16.127 16.1842 15.5887 15.2816 14.9328 13.6822C14.4138 12.4168 14.1297 11.874 13.5084 10.9602C12.1633 8.9822 10.1088 7.33528 7.91111 6.47327C7.62505 6.36107 7.36425 6.24427 7.33156 6.21371C7.2386 6.12665 8.65569 4.68136 9.39373 4.11036C12.1299 1.99354 15.5999 1.09495 19.2198 1.56573C23.6219 2.13815 27.5951 4.85333 29.8493 8.82964C31.597 11.9124 32.0867 15.6347 31.2177 19.2317C31.0456 19.9445 31.1144 20.2347 31.502 20.4312C31.943 20.6548 32.3939 20.423 32.5436 19.8959C32.8715 18.7413 33.2218 15.8804 33.1071 15.2938C33.0857 15.1844 33.0588 14.8474 33.0474 14.5448L33.0266 13.9947L33.6047 13.7514C35.6835 12.8764 37.2163 11.1036 37.7933 8.90703C38.0537 7.91558 38.0698 6.48873 37.8316 5.52055C37.1718 2.84009 35.1647 0.831826 32.4883 0.174351C31.6654 -0.0278061 30.1842 -0.0441631 29.3635 0.139778C28.1978 0.401044 27.1279 0.936734 26.1983 1.72469C25.9171 1.96298 25.6496 2.18492 25.6039 2.21786C25.5546 2.25325 25.224 2.1128 24.7941 1.87376C23.331 1.06038 21.3989 0.411973 19.6748 0.155838C18.6712 0.00669219 16.8932 -0.0461705 15.9405 0.0447593ZM32.0359 1.55964C33.1545 1.79681 34.0283 2.2786 34.8786 3.12693C35.9425 4.18835 36.4735 5.39066 36.5355 6.87922C36.5649 7.58368 36.5432 7.85156 36.4119 8.40041C36.0104 10.0801 34.9408 11.4453 33.4108 12.231L32.8023 12.5435L32.707 12.1835C32.0853 9.83418 31.25 8.0616 29.9486 6.32955C29.095 5.19363 28.2471 4.33883 26.821 3.17637C26.7596 3.12634 27.4522 2.5467 27.892 2.28001C28.4186 1.96068 29.0941 1.68834 29.6716 1.56269C30.2781 1.43071 31.421 1.42923 32.0359 1.55964ZM7.05092 15.8698C6.57806 16.343 6.90425 16.9831 7.85754 17.4527C8.28255 17.662 8.43657 17.6964 9.05692 17.7205C9.8579 17.7517 10.3088 17.6283 10.9518 17.2022C11.3865 16.9141 11.5296 16.7016 11.5296 16.3445C11.5296 16.1271 11.4791 16.0213 11.2981 15.8595C10.964 15.5608 10.6739 15.5834 10.1922 15.9456C9.52963 16.4437 8.92868 16.4442 8.18514 15.9474C7.63775 15.5816 7.35808 15.5625 7.05092 15.8698ZM30.1089 22.3273C29.7687 22.5893 29.7676 23.2131 30.1069 23.4744C30.3556 23.6659 30.7822 23.6448 31.0334 23.4285C31.2066 23.2795 31.2419 23.1901 31.2419 22.9016C31.2419 22.6131 31.2066 22.5237 31.0334 22.3747C30.7829 22.1591 30.3557 22.1371 30.1089 22.3273ZM20.4253 22.6357C20.2645 22.7965 20.2081 22.9235 20.2081 23.1247C20.2081 23.7448 21.0226 24.0824 21.4376 23.6342C21.8534 23.1854 21.5229 22.4183 20.914 22.4183C20.713 22.4183 20.5861 22.4748 20.4253 22.6357Z" fill="#B3A394"/>
</svg>
