<svg width="1069" height="347" viewBox="0 0 1069 347" fill="none" xmlns="http://www.w3.org/2000/svg">
<path d="M1 330.281C25.385 332.699 76.6943 327.621 86.8514 287.96C99.5477 238.384 10.0688 206.34 43.3211 122.303C63.7436 70.6895 128.568 58.8212 199.909 86.6322C271.25 114.443 318.509 104.415 350.451 53.3798C358.663 40.2605 370.88 6.84434 373.5 1" stroke="#9F9084"/>
<path d="M338.359 346C305.712 340.962 260.368 332.094 260.368 281.914C260.368 227.501 304.503 182.157 427.838 205.131C587.411 234.856 716.831 216.014 783.94 167.647C848.027 121.459 960.117 125.93 982.849 174.297C1005.58 222.664 1049.56 244.832 1068.7 249.871" stroke="#9F9084"/>
<circle cx="268" cy="187.5" r="121.5" stroke="#9F9084"/>
</svg>
