<svg width="943" height="293" viewBox="0 0 943 293" fill="none" xmlns="http://www.w3.org/2000/svg">
<path d="M1 260.5C21.1667 262.5 63.6 258.3 72 225.5C82.5 184.5 8.5 158 36 88.5C52.8897 45.8153 106.5 36 165.5 59C224.5 82 284.5 47.5 290 31.5C294.4 18.7 299.833 5.83333 302 1" stroke="#525252"/>
<path d="M276 292C249 287.833 215.5 262 215.5 220.5C215.5 175.5 252 138 354 157C485.969 181.582 593 166 648.5 126C701.5 87.8017 794.2 91.4998 813 131.5C831.8 171.5 926.667 194.833 942.5 199" stroke="#525252"/>
<path d="M221.966 242.5C166.478 242.5 121.5 197.726 121.5 142.5C121.5 87.2737 166.478 42.5 221.966 42.5C266.423 42.5 304.134 71.2408 317.371 111.072C320.703 121.098 323.187 126.885 324.869 130.61C325.117 131.16 325.347 131.663 325.559 132.126C326.066 133.236 326.469 134.119 326.777 134.884C327.21 135.959 327.436 136.757 327.488 137.563C327.54 138.37 327.422 139.223 327.112 140.411C326.827 141.502 326.39 142.845 325.796 144.667C325.741 144.838 325.684 145.013 325.625 145.193C324.266 149.37 322.192 155.843 319.45 166.786C308.549 210.277 269.039 242.5 221.966 242.5Z" stroke="#525252"/>
</svg>
